/* XPM */
static char *Shinji[] = {
/* columns rows colors chars-per-pixel */
"64 64 221 2 ",
"   c #010000",
".  c #0E0000",
"X  c #0C0609",
"o  c #0B0B0C",
"O  c #0B0907",
"+  c #120403",
"@  c #150A0C",
"#  c #1A0C0C",
"$  c #170807",
"%  c #1D110C",
"&  c #16120E",
"*  c #0D0D1C",
"=  c #0A0B12",
"-  c #130C16",
";  c #1B0A11",
":  c #120E1B",
">  c #1A0E19",
",  c #14101C",
"<  c #1D151E",
"1  c #181114",
"2  c #0E101F",
"3  c #21140E",
"4  c #330E16",
"5  c #231512",
"6  c #261912",
"7  c #2A1D14",
"8  c #24151B",
"9  c #2A121C",
"0  c #2C1C1C",
"q  c #271717",
"w  c #2B151A",
"e  c #2E2016",
"r  c #2E211C",
"t  c #302217",
"y  c #332519",
"u  c #37281B",
"i  c #3D2D1E",
"p  c #070D27",
"a  c #07112B",
"s  c #09112A",
"d  c #0F1125",
"f  c #121322",
"g  c #191524",
"h  c #1D1820",
"j  c #14192D",
"k  c #1D182E",
"l  c #11162B",
"z  c #151A33",
"x  c #1B1B36",
"c  c #0D0F3C",
"v  c #271B25",
"b  c #311F21",
"n  c #221E39",
"m  c #1D2136",
"M  c #262426",
"N  c #342224",
"B  c #3B2C23",
"V  c #39242B",
"C  c #3D292B",
"Z  c #38252A",
"A  c #21223D",
"S  c #232135",
"D  c #383C3F",
"F  c #323631",
"G  c #502C0E",
"H  c #4B3A1A",
"J  c #543615",
"K  c #4C2F10",
"L  c #432F2E",
"P  c #452928",
"I  c #433221",
"U  c #493622",
"Y  c #4F3A24",
"T  c #533E27",
"R  c #592D35",
"E  c #453030",
"W  c #483239",
"Q  c #57343A",
"!  c #71313A",
"~  c #3D4239",
"^  c #584128",
"/  c #4F4130",
"(  c #664624",
")  c #7F582C",
"_  c #604235",
"`  c #7E463A",
"'  c #6F5230",
"]  c #715431",
"[  c #795D3A",
"{  c #6D512F",
"}  c #1C2649",
"|  c #1C2B53",
" . c #1E3355",
".. c #1A304B",
"X. c #222441",
"o. c #262846",
"O. c #272949",
"+. c #292C4C",
"@. c #27274E",
"#. c #3D3D46",
"$. c #232A55",
"%. c #242B59",
"&. c #2A2C52",
"*. c #293259",
"=. c #33345A",
"-. c #36395D",
";. c #383A5E",
":. c #323456",
">. c #372A49",
",. c #243B63",
"<. c #2B3860",
"1. c #373963",
"2. c #3A3C62",
"3. c #353760",
"4. c #573547",
"5. c #3D4652",
"6. c #26456C",
"7. c #264469",
"8. c #285075",
"9. c #43474A",
"0. c #464A54",
"q. c #514E5A",
"w. c #52595A",
"e. c #685942",
"r. c #606D5A",
"t. c #575F60",
"y. c #51596F",
"u. c #665F60",
"i. c #5D6A63",
"p. c #76726F",
"a. c #676E75",
"s. c #717A7C",
"d. c #6C6C6F",
"f. c #865F34",
"g. c #875C2B",
"h. c #98632C",
"j. c #896136",
"k. c #9A6933",
"l. c #A4733B",
"z. c #A47036",
"x. c #BA7F38",
"c. c #99774E",
"v. c #9E7F54",
"b. c #8F6E55",
"n. c #A07947",
"m. c #AB7F62",
"M. c #BC833E",
"N. c #B98340",
"B. c #AF8C53",
"V. c #958672",
"C. c #AD9368",
"Z. c #C48A48",
"A. c #D1864B",
"S. c #CA9655",
"D. c #D39E5A",
"F. c #C9A16D",
"G. c #CAA876",
"H. c #D6AB79",
"J. c #D8B479",
"K. c #EBB37A",
"L. c #6D7885",
"P. c #6E7785",
"I. c #7D898E",
"U. c #848584",
"Y. c #89978D",
"T. c #899799",
"R. c #AAA094",
"E. c #B2A382",
"W. c #949DA2",
"Q. c #89A4AA",
"!. c #99A6A9",
"~. c #92ACB2",
"^. c #98ACB1",
"/. c #99B2B7",
"(. c #A3A8A9",
"). c #A2AFB4",
"_. c #ACB9B0",
"`. c #A6B6BA",
"'. c #D2B482",
"]. c #D6BB8A",
"[. c #CBBF9F",
"{. c #EDBB86",
"}. c #E4BE8C",
"|. c #E9B887",
" X c #F1B884",
".X c #B2C0BA",
"XX c #DFC38E",
"oX c #DDC392",
"OX c #E0C696",
"+X c #E5CB9C",
"@X c #EBCC9C",
"#X c #E6C797",
"$X c #EEC18F",
"%X c #ECD2A3",
"&X c #EFD6A8",
"*X c #E7D1A6",
"=X c #F0D7A9",
"-X c #F0D8A9",
";X c #E8CFA0",
":X c #ADBCC0",
">X c #B9C8CD",
",X c #BFCFD2",
"<X c #ADC3C8",
"1X c #C1CAC7",
"2X c #C4D5DA",
"3X c #C6D7DB",
"4X c #D4D9D3",
"5X c #C0CED5",
"6X c #DBE2DE",
"7X c #CBDDE1",
"8X c #CFE0E4",
"9X c #D1E2E6",
"0X c #D3E5E9",
"qX c #D7E9ED",
"wX c #D8EAEE",
"eX c #DBEDF1",
"rX c #DFF1F5",
"tX c #E4F6FA",
"yX c #E6F8FC",
"uX c #E2F3F7",
"iX c None",
/* pixels */
"iXiXiXiXiXiXiXiXiXiXiXiXiXiXiXiXiXiXiXiXiXiXiX. . . . . . . . . . . . . . . . @ iXiXiXiXiXiXiXiXiXiXiXiXiXiXiXiXiXiXiXiXiXiXiXiX",
"iXiXiXiXiXiXiXiXiXiXiXiXiXiXiXiXiXiXiXiXiXiXiX. 6 7 r 5 e y u t y t e 3 % 3 3 + . . iXiXiXiXiXiXiXiXiXiXiXiXiXiXiXiXiXiXiXiXiXiX",
"iXiXiXiXiXiXiXiXiXiXiXiXiXiXiXiXiXiXiXiXN . . $ 5 u t . . 3 y y t 6 3 0 3 y u u 5 r . Z iXiXiXiXiXiXiXiXiXiXiXiXiXiXiXiXiXiXiXiX",
"iXiXiXiXiXiXiXiXiXiXiXiXiXiXiXiXiXiXiX. . . % q 3 6 N 0 . . % 5 6 . 5 3 3 3 3 3 % 5 % . 7 iXiXiXiXiXiXiXiXiXiXiXiXiXiXiXiXiXiXiX",
"iXiXiXiXiXiXiXiXiXiXiXiXiXiXiXiXiX. . . . 3 3 . . . 5 5 % . 3 3 . 3 % . 3 3 3 3 3 3 3 7 . . iXiXiXiXiXiXiXiXiXiXiXiXiXiXiXiXiXiX",
"iXiXiXiXiXiXiXiXiXiXiXiXiXiXiXiX. & . + 3 . . + . . . . . 3 . . 3 . + 3 . . 3 3 3 3 3 3 3 . . . iXiXiX. iXiXiXiXiXiXiXiXiXiXiXiX",
"iXiXiXiXiXiXiXiXiXiXiXiXiXiXiX. N . 7 5 . . 0 0 b 0 b 0 . . 5 3 3 3 6 3 3 3 . 3 3 3 3 3 3 3 . . . . . . iXiXiXiXiXiXiXiXiXiXiXiX",
"iXiXiXiXiXiXiXiXiXiXiXiXiXiX. . . u u . + 0 0 N 0 N 0 % 3 3 7 3 3 7 6 6 3 3 3 . % e 3 3 6 3 3 3 B e . . iXiXiXiXiXiXiXiXiXiXiXiX",
"iXiXiXiXiXiXiXiXiXiXiXiXiXiX. . t u + 6 b y N 0 % N 7 3 3 e 6 3 3 7 7 7 3 3 3 3 . 3 3 3 3 6 3 u 3 . + iXiXiXiXiXiXiXiXiXiXiXiXiX",
"iXiXiXiXiXiXiXiXiXiXiXiXiX. 3 y ' I . i i B 3 3 e i i 3 6 e u y 6 3 e e t 7 3 3 3 . 5 3 i 6 i i 6 . iXiXiXiXiXiXiXiXiXiXiXiXiXiX",
"iXiXiXiXiXiXiXiXiXiXiXiXq # 7 ] ^ + 3 u 5 3 3 u i y 3 3 e e u e y 3 e t t t 3 3 3 3 . % i I ] i u + . iXiXiXiXiXiXiXiXiXiXiXiXiX",
"iXiXiXiXiXiXiXiXiXiXiXiX. e ] ] 3 $ + . . . I i i 6 t % e y e u u i t t u B u 3         3 i ^ ] 7 3 . iXiXiXiXiXiXiXiXiXiXiXiXiX",
"iXiXiXiXiXiXiXiXiXiXiX3 7 Y ' ^ U # . U.6X. ] B i e u 3 e y u i i i 7 i i T I 3   U.1X  # 3 i i e 3 . . iXiXiXiXiXiXiXiXiXiXiXiX",
"iXiXiXiXiXiXiXiXiXiXiX. . i ' I 3 . U.I.. I ' ^ ^ I u 6 e u u ^ i i u i I ] U u 3   p.U.  3 . y 6 y 5 . . iXiXiXiXiXiXiXiXiXiXiX",
"iXiXiXiXiXiXiXiXiXiX+ X y i i 3 . yX(.. 3 u ' ' i i i 7 u B H ' 6 7 i I ' ] ] i 3 3   p.4X  % . u u 7 . . iXiXiXiXiXiXiXiXiXiXiX",
"iXiXiXiXiXiXiXiXiXiX. . t 7 . e . 6X+ 3 y i B H 3 6 . % . t t T 3 . 3 7 U ] ] i i 3 3 . 4X  3 . y i 5 . . iXiXiXiXiXiXiXiXiXiXiX",
"iXiXiXiXiXiXiXiXiX. . 7 7 $ $ i + . t . B i t 3 5 . ) j.. N t B 3 . . % i i B i . . 6 e     3 . 3 u 7 r . iXiXiXiXiXiXiXiXiXiXiX",
"iXiXiXiXiXiXiXiXiX. . 0 3 . 3 7 7 t 3 . L t 6 3 . ( j.l.. Z r 6 3 . . % % q H 3 3 . 3 y e 3 y $ 3 3 u % . iXiXiXiXiXiXiXiXiXiXiX",
"iXiXiXiXiXiXiXiXiX. # 6 3 + 3 6 7 3 3 # . t 3 . J j.k.J.. . N 5 % . j.. % 3 3 3 3 . % 6 y i y 3 3 3 t 3 + . iXiXiXiXiXiXiXiXiXiX",
"iXiXiXiXiXiXiXiXiX+ # 3 + 3 3 3 3 3 . 6 . 7 3 . g.k.G.].h.. N % & J k.k.. % 3 3 3 . . % % e 3 y . 3 e e u % iXiXiXiXiXiXiXiXiXiX",
"iXiXiXiXiXiXiXiXiX. N . . q 3 3 3 3 . 6 C 3 . ] k.n.].oXB.. N 0 % K l.J.h.. 3 % 3 3 . 0 % e % y . 3 7 . y u . iXiXiXiXiXiXiXiXiX",
"iXiXiXiXiXiXiXiXiX. Z 0 . N 0 5 3 N r 6 . q . . . 7 t e.].h.+ N 3 . B./ &   . 3 3 3 $ 0 0 7 3 u . 3 6 . . u $ . iXiXiXiXiXiXiXiX",
"iXiXiXiXiXiXiXiXiX. Z 0 % . N % 3 . Z 6 . C . ( . . % r b.J.+ b N . N u + . . + . 3 % . 0 6 5 y . 3 e . iX. . iX. iXiXiXiXiXiXiX",
"iXiXiXiXiXiXiXiX. L N N 3 . N % 3 . E 3 . . . F.oXoX*X&X-XoXC.. v   F.oX-X-Xl.J . . 3 . . r % y . 3 y . iXiXiXiXiXiXiXiXiXiXiXiX",
"iXiXiXiXiXiXiX. . . 5 N q . N N 3 . E + . . . X         *X-XXX[ . . V.      X . . 3 . . + 0 7 u . % . % iXiXiXiXiXiXiXiXiXiXiXiX",
"iXiXiXiXiXiXiXiXiXiX. V b . V N 3 . E . . . . h h   _.    *XOXoX]..         - h   @ . . $ 0 0 I . 5 . # iXiXiXiXiXiXiXiXiXiXiXiX",
"iXiXiXiXiXiXiXiXiXiX. 5 b . E b b . L .   O     M   _._.oX*X+XoXoXOXoX_.      <     ; . % . q i . 3 . . iXiXiXiXiXiXiXiXiXiXiXiX",
"iXiXiXiXiXiXiXiXiXiX. . L 0 . E N . . .   Y.qXwX  h   _.oXoX%XOX+XoXoX_.qX8X  h   i.  - . . 3 . . 3 . . iXiXiXiXiXiXiXiXiXiXiXiX",
"iXiXiXiXiXiXiXiXiXiXiX. E b . E b . . . ~ Y.    h h   _.oXoXOXOXoXoXoX.X    o o   Y.r.  . . + . . 3 u . iXiXiXiXiXiXiXiXiXiXiXiX",
"iXiXiXiXiXiXiXiXiXiX+ L L L q . L q + + . `.  < h h X qXoXoXOX+X+XoXoXqX  h h h X 8XE.z.7 . . 3 % 7 i . iXiXiXiXiXiXiXiXiXiXiXiX",
"iXiXiXiXiXiXiXiXiXiX. E 0 . . . . 0 . $   7X@ f d d f qXoXOXOX*X;X+XoXqXp p a a a qXoX'.+ i e . 3 i u t iXiXiXiXiXiXiXiXiXiXiXiX",
"iXiXiXiXiXiXiXiXiX+ . . . % . . . . . v.oXwXs s #.a a wX+X+X-X%X+XoXXXqXd p 5.a a wXoXoXC.. . . . . . u . iXiXiXiXiXiXiXiXiXiXiX",
"iXiXiXiXiXiXiXiXiXiXiXiXiX. % . # . . ]._ qXa a 5.a a ,XoX%X-X+XoXoXoXqXa a 0.d d qX4 }.}.Y H . i . . 6 . . iXiXiXiXiXiXiXiXiXiX",
"iXiXiXiXiXiXiXiXiXiXiXiXiXiX. . . . c.oX{.4 eXa q.a qXoX+X-X;X+X-X-X+XeXqXs q.a 0X4.H.|.].v G + . . 3 iXiXiXiXiXiXiXiXiXiXiXiXiX",
"iXiXiXiXiXiXiXiXiXiXiXiXiXiX. . @ . G.oX X|.4.a a a R.-X-X-X;XoX-X-X-XoXR.a a c b.'. X{.h.9 + 3 . 3 iXiXiXiXiXiXiXiXiXiXiXiXiXiX",
"iXiXiXiXiXiXiXiXiXiXiXiXiXiX. Z W N . S. X X X@X+X&X*X-X-X;XoXc.oX-X-X-X@X;X{.{. X XK.A.9 9 ; . . iXiXiXiXiXiXiXiXiXiXiXiXiXiXiX",
"iXiXiXiXiXiXiXiXiXiXiXiXiXiX. N $ . . C.D.}.{.#X+X-X-X&XOX'.G G +X-X-X+X&X%X@X{.|.K.A.g.9 9 8 iXiXiXiXiXiXiXiXiXiXiXiXiXiXiXiXiX",
"iXiXiXiXiXiXiXiXiXiXiXiXiXiX. ; yXeX# 3 B S.oX%X-X-X&X&X-X-X-X-X-X-X-X-X-X-XOXXX].|.H.9 C v 8 8 iXiXiXiXiXiXiXiXiXiXiXiXiXiXiXiX",
"iXiXiXiXiXiXiXiXiXiXiXiXiXiXiX8 yXs.. 0X9 B.S.oXoX@X-X=X%X@X;X&X+X-X-X-X@XOXoXoXoXZ.9 9 /.8 8 g k iXiXiXiXiXiXiXiXiXiXiXiXiXiXiX",
"iXiXiXiXiXiXiXiXiXiXiXiXiXiX8 g uXM W.wXB 9 9 Z.XXoXoX%X@Xb.` ` ! C.%XoXoXoX].x.M.9 9 `.eX9.>XwXg g iXiXiXiXiXiXiXiXiXiXiXiXiXiX",
"iXiXiXiXiXiXiXiXiXiXiXiXj 8 g g ,XM s.wX& W.9 9 N.J.H.XXXXOX#XXXXXXXOXXXoXG.M._ 9 W ^.t.0X  w.wXW.g g iXiXiXiXiXiXiXiXiXiXiXiXiX",
"iXiXiXiXiXiXiXiXiXiXiXiXz 8 I.a.yX`.j ).q qXyXW.9 9 B.F.H.J.J.J.J.XXXXOXN.8 9 9 /.0XeX= !.  (.9Xg g g iXiXiXiXiXiXiXiXiXiXiXiXiX",
"iXiXiXiXiXiXiXiXiXiXiXiX0 eXtXtX>X7X= l u.(.tXyX3XQ.9 9 4 9 9 9 9 9 9 9 9 s././.qX8X!.9.    3X0X#.n h g iXiXiXiXiXiXiXiXiXiXiXiX",
"iXiXiXiXiXiXiXiXiXiXiXiX8 `.).L.0.a s j V 0Xi.2XyXuXQ.~.      /.D - ~.Q.Q.~.2XqX!.o eXj s = L.2X9X).m g iXiXiXiXiXiXiXiXiXiXiXiX",
"iXiXiXiXiXiXiXiXiXiXiX8 z d p p l x } 8 ; t.0X= T.yXyX2X  9X  qXT.O ~.0XqXqX>X= t.9X9.- ; j z y.P.eXwXg g iXiXiXiXiXiXiXiXiXiXiX",
"iXiXiXiXiXiXiXiXiXiXiX8  ...j z x %.%.9 ; b - 0XO T.yXrX      qX`.  qXqXqX!.o a.9Xo b - iX; s c 5.y.U.8 g iXiXiXiXiXiXiXiXiXiXiX",
"iXiXiXiXiXiXiXiXiXiX8 z 7.} } $.%.%.%.> > < @ X 5X& uXyXrX3X0X9XwXwXwXwXqXo 7X9Xo P - - z 8 j d p p d l h iXiXiXiXiXiXiXiXiXiXiX",
"iXiXiXiXiXiXiXiXiXiX8 <.7.$.%.%.%.> ; ; # v N o 5X0.wXyX5Xg ..* * h qXqXT.o :Xo R R - z z %.,.7.l l z x > < iXiXiXiXiXiXiXiXiXiX",
"iXiXiXiXiXiXiXiXiXiX8 6.*.%.%.%.; ; ; ; - * < W O 5.wXqXm 6.8.| | } j wX9Xo `.Q - - iXz 6.6.6.,.%.} } x z ; iXiXiXiXiXiXiXiXiXiX",
"iXiXiXiXiXiXiXiXiXiX8 &.&.v $.; > iXiX; * * * v o T.qXL.| 7.f , * | | I.<XW.q.b - n z $.,.6.,.<.%.%.%.k ; ; iXiXiXiXiXiXiXiXiXiX",
"iXiXiXiXiXiXiXiXiXiX8 n n x ; ; iXiXiX; * * * f h h <  .| j 4.! * >.| | L.D - - * iXz %.%.%.%.%.%.%.k $.; iXiXiXiXiXiXiXiXiXiXiX",
"iXiXiXiXiXiXiXiXiXiXiX; ; ; ; iXiXiXiX; * * * X.o.h < h h < > - , , h , - - - * * 8 8 k x X.@.$.k k ; ; iXiXiXiXiXiXiXiXiXiXiXiX",
"iXiXiXiXiXiXiXiXiXiXiXiXiXiXiXiXiXiXiX; * * - O.o.o.X.o.d * n # - * g X.o.o.X.* * > iX; k k k k # ; iXiXiXiXiXiXiXiXiXiXiXiXiXiX",
"iXiXiXiXiXiXiXiXiXiXiXiXiXiXiXiXiXiXiX; f * o.O.o.o.o.o.o.d * : * * o.o.o.o.o.* * # iXiX; ; ; ; iXiXiXiXiXiXiXiXiXiXiXiXiXiXiXiX",
"iXiXiXiXiXiXiXiXiXiXiXiXiXiXiXiXiXiXiXiX# f O.O.o.O.O.O.O.O.A * 2 o.o.o.o.O.O.X.: ; iXiXiXiXiXiXiXiXiXiXiXiXiXiXiXiXiXiXiXiXiXiX",
"iXiXiXiXiXiXiXiXiXiXiXiXiXiXiXiXiXiXiXiX; : O.+.+.+.+.O.O.O.o.# X.o.o.o.o.o.o.X.: ; iXiXiXiXiXiXiXiXiXiXiXiXiXiXiXiXiXiXiXiXiXiX",
"iXiXiXiXiXiXiXiXiXiXiXiXiXiXiXiXiXiXiXiX; * &.+.+.:.-.+.+.+.&.# o.o.X.X.X.X.X.A * ; iXiXiXiXiXiXiXiXiXiXiXiXiXiXiXiXiXiXiXiXiXiX",
"iXiXiXiXiXiXiXiXiXiXiXiXiXiXiXiXiXiXiXiX; < :.&.+.-.-.;.;.&.:.< X.A X.A X.X.A k ; iXiXiXiXiXiXiXiXiXiXiXiXiXiXiXiXiXiXiXiXiXiXiX",
"iXiXiXiXiXiXiXiXiXiXiXiXiXiXiXiXiXiXiXiXiX5 =.=.:.5.;.;.2.=.=.8 A A X.A } X.k k ; iXiXiXiXiXiXiXiXiXiXiXiXiXiXiXiXiXiXiXiXiXiXiX",
"iXiXiXiXiXiXiXiXiXiXiXiXiXiXiXiXiXiXiXiXiXiX9 -.2.2.2.2.1.-.-.8 m X.} A v k ; ; iXiXiXiXiXiXiXiXiXiXiXiXiXiXiXiXiXiXiXiXiXiXiXiX",
"iXiXiXiXiXiXiXiXiXiXiXiXiXiXiXiXiXiXiXiXiXiXv v 2.2.2.1.1.1.3.8 v A x k k ; ; iXiXiXiXiXiXiXiXiXiXiXiXiXiXiXiXiXiXiXiXiXiXiXiXiX",
"iXiXiXiXiXiXiXiXiXiXiXiXiXiXiXiXiXiXiXiXiXiXiX8 2.2.1.1.1.1.1.8 iX8 ; ; ; ; iXiXiXiXiXiXiXiXiXiXiXiXiXiXiXiXiXiXiXiXiXiXiXiXiXiX",
"iXiXiXiXiXiXiXiXiXiXiXiXiXiXiXiXiXiXiXiXiXiXiXiX9 =.2.1.1.1.1.Z iXiXiXiXiXiXiXiXiXiXiXiXiXiXiXiXiXiXiXiXiXiXiXiXiXiXiXiXiXiXiXiX",
"iXiXiXiXiXiXiXiXiXiXiXiXiXiXiXiXiXiXiXiXiXiXiXiXiXv 8 v 8 8 8 iXiXiXiXiXiXiXiXiXiXiXiXiXiXiXiXiXiXiXiXiXiXiXiXiXiXiXiXiXiXiXiXiX"
};
