/* XPM */
static char *Rei[] = {
/* columns rows colors chars-per-pixel */
"64 64 238 2 ",
"   c #010101",
".  c #0F0F0F",
"X  c #060407",
"o  c #090A16",
"O  c #100F1A",
"+  c #131314",
"@  c #1C1C1C",
"#  c #14141D",
"$  c #0C1013",
"%  c #2F0009",
"&  c #260509",
"*  c #34030B",
"=  c #2A121C",
"-  c #25181A",
";  c #331016",
":  c #132419",
">  c #07142A",
",  c #141623",
"<  c #191C29",
"1  c #001336",
"2  c #051A38",
"3  c #10172E",
"4  c #221E27",
"5  c #1B3B29",
"6  c #1D263B",
"7  c #1E212F",
"8  c #232222",
"9  c #292829",
"0  c #222738",
"q  c #222635",
"w  c #323233",
"e  c #3B3B3B",
"r  c #36373A",
"t  c #312E2F",
"y  c #410A0E",
"u  c #431C1D",
"i  c #511013",
"p  c #7C1719",
"a  c #6A1C1D",
"s  c #4F2D2C",
"d  c #622324",
"f  c #562518",
"g  c #2F4E3B",
"h  c #7E4735",
"j  c #0E194F",
"k  c #1C2942",
"l  c #1E2D4A",
"z  c #112446",
"x  c #0D2651",
"c  c #212D45",
"v  c #202E4C",
"b  c #333745",
"n  c #243253",
"m  c #28385A",
"M  c #2B3553",
"N  c #2A3A66",
"B  c #373D69",
"V  c #1F2659",
"C  c #5D384F",
"Z  c #354052",
"A  c #374767",
"S  c #3A4D7D",
"D  c #384975",
"F  c #304572",
"G  c #454646",
"H  c #595C5D",
"J  c #504F50",
"K  c #73594E",
"L  c #51586C",
"P  c #5E6367",
"I  c #686B6C",
"U  c #767879",
"Y  c #6A6C72",
"T  c #67645A",
"R  c #AF3537",
"E  c #881C1F",
"W  c #8F5A35",
"Q  c #AA6A3D",
"!  c #986038",
"~  c #936B59",
"^  c #BE7541",
"/  c #AC6E52",
"(  c #8E6F6A",
")  c #A87A62",
"_  c #CA4B4B",
"`  c #C17743",
"'  c #B6896F",
"]  c #D18856",
"[  c #C69479",
"{  c #C88F72",
"}  c #3B4E84",
"|  c #3D5188",
" . c #3D5493",
".. c #455788",
"X. c #455C9C",
"o. c #465A93",
"O. c #474E8C",
"+. c #4D629A",
"@. c #557195",
"#. c #767F83",
"$. c #6E7C80",
"%. c #455DA3",
"&. c #4A63A9",
"*. c #5368A8",
"=. c #4D6ABA",
"-. c #536CB6",
";. c #5572BB",
":. c #5A74BD",
">. c #5B78B7",
",. c #5572AA",
"<. c #5574C6",
"1. c #5C7BCB",
"2. c #5A76C5",
"3. c #5E7DD1",
"4. c #4F6CC0",
"5. c #637CCB",
"6. c #617DD3",
"7. c #6C79D6",
"8. c #6F79CD",
"9. c #597EE1",
"0. c #758C91",
"q. c #6281B8",
"w. c #5D80CE",
"e. c #5F81D1",
"r. c #6784C8",
"t. c #6383D4",
"y. c #6683DB",
"u. c #6986DD",
"i. c #6C8CDC",
"p. c #6788D7",
"a. c #6E90DC",
"s. c #7394DD",
"d. c #7088D1",
"f. c #6D8CE3",
"g. c #6A8CE9",
"h. c #738DE4",
"j. c #728AE6",
"k. c #6E92E2",
"l. c #6E92EF",
"z. c #7294E4",
"x. c #7394EB",
"c. c #769BEC",
"v. c #7A9BEB",
"b. c #7798E6",
"n. c #648EFD",
"m. c #688CF7",
"M. c #6C96FA",
"N. c #749BF3",
"B. c #729CFB",
"V. c #779BF2",
"C. c #7BA3ED",
"Z. c #76A0EC",
"A. c #7CA4F2",
"S. c #7FA9F5",
"D. c #7AA4FC",
"F. c #85969B",
"G. c #889091",
"H. c #B59083",
"J. c #8E9DA1",
"K. c #98A6A9",
"L. c #94ACB2",
"P. c #9BABB1",
"I. c #9BB3B9",
"U. c #88A2A6",
"Y. c #A4A9A9",
"T. c #AAB8AF",
"R. c #ACB9B0",
"E. c #A8B4B7",
"W. c #B2B2B0",
"Q. c #CB9883",
"!. c #D3AA90",
"~. c #E0B79B",
"^. c #F1B79F",
"/. c #D8B7A2",
"(. c #EBBDA5",
"). c #E6C5AD",
"_. c #EACBB8",
"`. c #F4CAB7",
"'. c #F3D2BA",
"]. c #EFD3BB",
"[. c #D3CABA",
"{. c #A8BEC4",
"}. c #A1AEC7",
"|. c #889BF2",
" X c #8799EE",
".X c #82A9F5",
"XX c #82ADFA",
"oX c #87A8F3",
"OX c #84B2FC",
"+X c #8BB6FB",
"@X c #93BBFB",
"#X c #91B6F8",
"$X c #89A9F4",
"%X c #B6C5CA",
"&X c #BCCED3",
"*X c #B7CCD1",
"=X c #BED0D5",
"-X c #ACC1C6",
";X c #9BC3FC",
":X c #A8CEFC",
">X c #B9E0FF",
",X c #C1CDD0",
"<X c #C4D2D5",
"1X c #CADADE",
"2X c #C6D6DA",
"3X c #D5DCDE",
"4X c #C4CDC6",
"5X c #FAD5C3",
"6X c #F3DAC5",
"7X c #FADCCB",
"8X c #F2DAC8",
"9X c #F6E1CC",
"0X c #F8E3CF",
"qX c #FAE5D3",
"wX c #FCEBDB",
"eX c #F9E6D4",
"rX c #FEF0DF",
"tX c #CDDDE3",
"yX c #D4DEE1",
"uX c #D3E2E6",
"iX c #D5E5E9",
"pX c #DBEAEE",
"aX c #D9E6E9",
"sX c #DDECF0",
"dX c #D6EAF5",
"fX c #D7EAEF",
"gX c #E4EAEB",
"hX c #FFF1E2",
"jX c #E3EEF2",
"kX c #EAEFF0",
"lX c #E5F0F4",
"zX c #ECF4F6",
"xX c #E6F6FA",
"cX c #F1F7F9",
"vX c #F4F9FB",
"bX c #FCFDFE",
"nX c #F4F6F6",
"mX c None",
/* pixels */
"mXmXmXmXmXmXmXmXmXmXmXmXmXmXmXmXmXmXmXmXmXmXmX  1 1 1 2   > > 1 1 1 # 1 > > 1 2 mXmXmXmXmXmXmXmXmXmXmXmXmXmXmXmXmXmXmXmXmXmXmXmX",
"mXmXmXmXmXmXmXmXmXmXmXmXmXmXmXmXmXmXmXmXmXmXmX2 Z.v.C.+.o 6 m v.v.m 3 >.>.v.x.x 1 $ mXmXmXmXmXmXmXmXmXmXmXmXmXmXmXmXmXmXmXmXmXmX",
"mXmXmXmXmXmXmXmXmXmXmXmXmXmXmXmXmXmXmXmXn x A w. X..v.v.v. Xs.C.v.,.v.a.v.v.c.x.x.2.k mXmXmXmXmXmXmXmXmXmXmXmXmXmXmXmXmXmXmXmXmX",
"mXmXmXmXmXmXmXmXmXmXmXmXmXmXmXmXmXmXmXA d.;Xc.A A d.b.+.>.v.v.v.v.b.b.r.v.v. X..*.x.-.k k X mXmXmXmXmXmXmXmXmXmXmXmXmXmXmXmXmXmX",
"mXmXmXmXmXmXmXmXmXmXmXmXmXmXmXmXmX1 F OXOXg.A @.+XC.r.>..Xv.v.v.v.a.z.r.r.v.v.v.n n x.j.x.k k mXmXmXmXmXmXmXmXmXmXmXmXmXmXmXmXmX",
"mXmXmXmXmXmXmXmXmXmXmXmXmXmXmXmX1 A C.c.+.A +X.X.XZ.i..X.XOXC.v.b.a.h.z.-.v.v.v.v.c L g.x.c.k X mXmXmXmXmXmXmXmXmXmXmXmXmXmXmXmX",
"mXmXmXmXmXmXmXmXmXmXmXmXmXmXmX1 >.OXx.+.A OXXXA.b.s.A.S.OXOXv.v.v.z.a.a.>.b.v.v.v.x.k x.x.j.c.k mXmXmXmXmXmXmXmXmXmXmXmXmXmXmXmX",
"mXmXmXmXmXmXmXmXmXmXmXmXmXmX2 x +Xx.i.S OXOX.X.Xb.s.S.A..Xv.v.C.b.z.i.i.t.q.v.v.v.x.5.k x.l.x.5.k l mXmXmXmXmXmXmXmXmXmXmXmXmXmX",
"mXmXmXmXmXmXmXmXmXmXmXmXmXmXm s..Xx...XXA.OXA.A.b.v.v.v.v.V.A.D.c.x.k.p.p.>.C.v.v.c.x.k S x.l.l.l k mXmXmXmXmXmXmXmXmXmXmXmXmXmX",
"mXmXmXmXmXmXmXmXmXmXmXmXmXN +X+Xc.o.>.v.OXA..XV.z.v.v.v.c.N.D.S.A.x.k.i.i.>.v.v.b.b.x.j.6 <.n.n.D.x.k mXmXmXmXmXmXmXmXmXmXmXmXmX",
"mXmXmXmXmXmXmXmXmXmXmXmXc } S.S.k.o.S.D.OXc.v.v.z.v.v.c.V.B.S.+XD.x.a.i.a.p.c.c.b.b.i.g.F N M.M.#XV.&.6 mXmXmXmXmXmXmXmXmXmXmXmX",
"mXmXmXmXmXmXmXmXmXmXmXmXk l.x.N.*.l.r s G r v.z.z.c.v.v.N.D.+X@XS.c.i.p.p.t.v.c.w r r 8 g.| a.oXoXM.f.6 X mXmXmXmXmXmXmXmXmXmXmX",
"mXmXmXmXmXmXmXmXmXmXmXk k.x.x.x.*.a.G K.xXw N.l.B.M.N.c.B.D.;X;XS.N.a.p.p.1.B.M.e dXtX8 X.i.:.V.n.n.f.u.k mXmXmXmXmXmXmXmXmXmXmX",
"mXmXmXmXmXmXmXmXmXmXmX6 l.n.B.l.z.Z J.G.+ M.M.l.XXOXN.c.B. X;X@XD.N.i.p.e.;.B.S.l.  #.G.  j.;.9.n.g.u.f.l mXmXmXmXmXmXmXmXmXmXmX",
"mXmXmXmXmXmXmXmXmXmXk d.#X@X>XB.. lXE.. A..XM.z.;X>Xx..XD.@X>X:X;X+Xp.t.+.;.c.@X@Xn.  0.sX  5.:.f.f.y.f.>.k mXmXmXmXmXmXmXmXmXmX",
"mXmXmXmXmXmXmXmXmXmXk x.n.#X#Xi.$ xX. c.D.$Xb.x.>X:Xq.XXC.#X>X>X>X+X+Xt.F :.c.M.n.1.j.X dX  2.,.f.f.y.6.c.k mXmXmXmXmXmXmXmXmXmX",
"mXmXmXmXmXmXmXmXmXX M A.m.n.m.d.. . x.x.M.x.b.S +XOX>.OXc.#X;X;XS.B.e.w.F s.z.p.-.5.g.j..   i.-.y.y.y.6.p.k mXmXmXmXmXmXmXmXmXmX",
"mXmXmXmXmXmXmXmXmXk S.c.f.f.z.m 6.j.z.OX.Xx.x.k D.D.q.C.x.D.;X;X+XN.1.*.m i.y.N N y.y.1.y.u.y.:.&.y.y.y.y.d.k mXmXmXmXmXmXmXmXmX",
"mXmXmXmXmXmXmXmXmXk S.f.f.x.f.} z.x.c.XX..b.b.k  Xl.,..Xc..X@X;X+Xl.>.o.c 7.2.6 X.t.1.l 3.3.6.&.%.3.3.3.e.c.k mXmXmXmXmXmXmXmXmX",
"mXmXmXmXmXmXmXmXmXk S.f.f.A.f.:.x.c.OXA...h.i.k  Xa.A C.C.S.+X+XS.g.;.} k 6.o.k 6.X.m k 6.3.3.%.%.<.1.<.1.p.n X mXmXmXmXmXmXmXmX",
"mXmXmXmXmXmXmXmXm ..C.k XXc.i.k.c.C.OX>.6.p.u.k m b.B r.v.A.S.A.M.e.&.} n 2.F c 6.o.k k 3.3.3.*.X.<.e.k <.3.Z.k mXmXmXmXmXmXmXmX",
"mXmXmXmXmXmXmXmXk z.i.k OXc.f.c.C.c.XXv y.t.:.k c |.u.D b.Z.c.x.k.;.&.k 3.S v 2.} M c k e.3.3.=.%.=.t.n k <.C.k mXmXmXmXmXmXmXmX",
"mXmXmXmXmXmXmXmXk XXk k OXx.u.c.A.k.XXk j.7.N M Y 0 j.k z.b.z.f.1.&.m k S k 3.S N 6 ~ 6 e.y.e.=.} -.t.1.k =.t.k mXmXmXmXmXmXmXmX",
"mXmXmXmXmXmXmXmXk v.k k XXk.y.c.S.k..Xk j.j.0 ' ' 6 n %.c h.z.t.-.X.z N v k } A 0 ' ~ z 3.e.e.;.v -.3.e.k k t.k mXmXmXmXmXmXmXmX",
"mXmXmXmXmXmXmXmXk d.k l XXf.*.C.A.i.c.k p.j.O $ X o # 6 k 8.i.<.X.N k O O O O O O [ ) k  .<.<.&.N v w.w.k k =.k mXmXmXmXmXmXmXmX",
"mXmXmXmXmXmXmXmXk k mXk XXf.*.A.Z.k.a.k -.j.6 = =     # k k d.o. .6 O @ X   - u O O ) k N <.<. .N 6 w.w.k k &.k mXmXmXmXmXmXmXmX",
"mXmXmXmXmXmXmXmXc k mXk #Xf.O.|.N.k.;.k ..c -   u     G.t L k o.k k H.R.      u   O $ ( l <.<.n N k 1.;.k F v mXmXmXmXmXmXmXmXmX",
"mXmXmXmXmXmXmXmXmXk mXk #Xj.B 8.Z.w.N k O R.bXbX  d   T.9XhXk k k H.Q.R.bXbX  d   R.+ @ k k <.A 0 &.1.m k mXk mXmXmXmXmXmXmXmXmX",
"mXmXmXmXmXmXmXmXmXmXmXk |.t.n k A.2.k O H W.    f d   T.9XhX].6 ' ~.'.T.X X d i X R.Y.# }.6 S n k 2.1.k 9 mXmXmXmXmXmXmXmXmXmXmX",
"mXmXmXmXmXmXmXmXmXmXmXX n 1.<.N |.1.c r R.E.  a p E   R.9XhX0X'./.'.9XR.  p p p & T.4XT M 6 } 6 N t. .7 mXmXmXmXmXmXmXmXmXmXmXmX",
"mXmXmXmXmXmXmXmXmXmXmXmXk h.5.m o 7.l K kXiX  i * y ; pXqXhXhXwX'.0X9XaX% y y y * gXT.).6 } k 5 =.k 6 O mXmXmXmXmXmXmXmXmXmXmXmX",
"mXmXmXmXmXmXmXmXmXmXmXmXk 2.5.=.X o 6.k pXaX& y R u * vXwXhXhXwX9X9X0XpX* y R y * gX[.eX6 } k l  .k O mXmXmXmXmXmXmXmXmXmXmXmXmX",
"mXmXmXmXmXmXmXmXmXmXmXmXmXk B 4.%.o 7.=.k pX* * R % % kXwXhXrXwXwX6X9XaX% % R % & vXwX6 =.O k &.z < O mXmXmXmXmXmXmXmXmXmXmXmXmX",
"mXmXmXmXmXmXmXmXmXmXmXmXmXk k B =.k k k k k pX* _ % vX0XrXhXhXrXwX9XqXgXpX% _ ; lXC l k k k V | | # mXmXmXmXmXmXmXmXmXmXmXmXmXmX",
"mXmXmXmXmXmXmXmXmXmXmXmXmXmXk k O.=.%.Z [ /.C * % * Y.wXrXhXrXrXwXqXrX9XH.* * ; ( /./ , 3 =. .o.# X mXmXmXmXmXmXmXmXmXmXmXmXmXmX",
"mXmXmXmXmXmXmXmXmXmXmXmXmXmXk l n 7.=.=.k Q.`.'.'.qXeXwXhXhXkX' 6XwXwXwX9XqX7X5X(.{ , B 4.O.7 O mXmXmXmXmXmXmXmXmXmXmXmXmXmXmXmX",
"mXmXmXmXmXmXmXmXmXmXmXmXmXmXmXb x x m k c k 5XqXqX7X7XwXhX8Xf f /.wXwXeX9X7X`.(.`., , , q O O mXmXmXmXmXmXmXmXmXmXmXmXmXmXmXmXmX",
"mXmXmXmXmXmXmXmXmXmXmXmXmXmXmX4 fXpXj j C Q.^.5X5X5X7XqXhXhX9X_.8XhXwX7X8X5X5X(.^.~.K 9 L r 8 @ mXmXmXmXmXmXmXmXmXmXmXmXmXmXmXmX",
"mXmXmXmXmXmXmXmXmXmXmXmXmXmXmX@ r pXjX9 = Q.{ `.'.qXqXwXwXhXhXhXhXwX8XeX8X5X(.(.!.` ; = w - @ + @ mXmXmXmXmXmXmXmXmXmXmXmXmXmXmX",
"mXmXmXmXmXmXmXmXmXmXmXmXmXmX@ + aX@ jX@ ] = = [ ).6X7XqXhX~ h h h H.8X8X5X(.(.!.' = = ^ < jXK.pX@ + mXmXmXmXmXmXmXmXmXmXmXmXmXmX",
"mXmXmXmXmXmXmXmXmXmXmXmXmX@ + @ %X- &X@ ] W = = ' ~.6X6XqXwXwXeXeX9X5X/.).~.{ K = Q ` Q @ aXr 3XY.+ + mXmXmXmXmXmXmXmXmXmXmXmXmX",
"mXmXmXmXmXmXmXmXmXmXmXmXmX@ 0.Y gX< <X8 ] ` s Y.= = !.).].].6X8X8X_._./.!.= = = 8 W ` ! @ 3Xt aX@ @ @ mXmXmXmXmXmXmXmXmXmXmXmXmX",
"mXmXmXmXmXmXmXmXmXmXmXmX@ yXlX%X@ E.jX- ` ` 8 dXpX%X= = - = = - = = = = = L.L.1X- Q Q ! @ sX@ vXG 8 @ @ mXmXmXmXmXmXmXmXmXmXmXmX",
"mXmXmXmXmXmXmXmXmXmXmXmX@ G.@ - sX%X< ^ ` Q 8 sXpXiX-X*X9 @ @ -X- 9 < L.L.<XkXpXkX- ! W < 7 I - nXE.Y @ mXmXmXmXmXmXmXmXmXmXmXmX",
"mXmXmXmXmXmXmXmXmXmXmX@ bXbXcXlXuX0 q + W t pXsXjXpXpXsX< sXg E.< gX8 3X3XlXlXpXjXpX9 . . 0 0 P - @ w @ + mXmXmXmXmXmXmXmXmXmXmX",
"mXmXmXmXmXmXmXmXmXmXmX@ bXcXlXjXP.0 0 . . Y pXxXnXzXzXpX- - 8 sX- @ @ zXzXzXzXjXfX9 q . mX. 0 0.bXvXpX@ @ mXmXmXmXmXmXmXmXmXmXmX",
"mXmXmXmXmXmXmXmXmXmX@ vXnXcXiX1Xr 0 6 + . @ pXvXbXbXcXcXpXsXpXpXjXsXxXcXnXlXlXpX%X6 . . @ @ 6 Y vXzXpXtX# mXmXmXmXmXmXmXmXmXmXmX",
"mXmXmXmXmXmXmXmXmXmX# vXvXiXuX*XL # . . K.@ @ @ aXvXbXvXvXbXbXnXcXcXcXzXlXlXlX1X7 @ . @ @ 0 q 1XvXcXiX2X+ @ mXmXmXmXmXmXmXmXmXmX",
"mXmXmXmXmXmXmXmXmXmX@ pXiXtX=X{.b . mX. K.<X@ 5 : . U vXbXU I G G R.zXzXxXU @ . + . mX# 0 < pXvXbXnXtXL.I.@ mXmXmXmXmXmXmXmXmXmX",
"mXmXmXmXmXmXmXmXmXmX@ iXuX=X{.9 + mXmX. %X1X2X@ 5 5 g bXY.I e 8 @ w T.gXH J 5 : . E.@ #.iXzXvXbXpXiX%XL.+ @ mXmXmXmXmXmXmXmXmXmX",
"mXmXmXmXmXmXmXmXmXmX@ 2X&X{.. . mXmXmX. &XaX<X1X+ @ 5 H #.@ sXsX<X- w <Xg 5 . . <X<X@ iXzXvXzXpX1X*XL.L.. mXmXmXmXmXmXmXmXmXmXmX",
"mXmXmXmXmXmXmXmXmXmXmX. . . . mXmXmXmX. e U aX2X=X@ @ : @ @ + . + # : + . . . 2X%X@ # %X%XuXuX=X-XI.. $ mXmXmXmXmXmXmXmXmXmXmXmX",
"mXmXmXmXmXmXmXmXmXmXmXmXmXmXmXmXmXmXmX. @ 8 U tX1X&X%X&XtX%X$.. . 3XbXbXbXnXcX8 @ + mX+ L.L.-XI.. . mXmXmXmXmXmXmXmXmXmXmXmXmXmX",
"mXmXmXmXmXmXmXmXmXmXmXmXmXmXmXmXmXmXmX. lXE.@ E.pX2XtX1X2XiXF.J.aXbXpXlXjXgX@ @ E.. mXmX. . . . mXmXmXmXmXmXmXmXmXmXmXmXmXmXmXmX",
"mXmXmXmXmXmXmXmXmXmXmXmXmXmXmXmXmXmXmXmX+ @ pX- K.gXaX8 gXpXpXF.gXbX&X&X2XZ @ iX@ . mXmXmXmXmXmXmXmXmXmXmXmXmXmXmXmXmXmXmXmXmXmX",
"mXmXmXmXmXmXmXmXmXmXmXmXmXmXmXmXmXmXmXmX. 2X8 sXH nXI 9 G cXpX. bXuX%XP.L.G sX8 ,X. mXmXmXmXmXmXmXmXmXmXmXmXmXmXmXmXmXmXmXmXmXmX",
"mXmXmXmXmXmXmXmXmXmXmXmXmXmXmXmXmXmXmXmX. lXK.- zXnX8 8 @ cXzX. aX4XK.  K.0.  K.sX+ mXmXmXmXmXmXmXmXmXmXmXmXmXmXmXmXmXmXmXmXmXmX",
"mXmXmXmXmXmXmXmXmXmXmXmXmXmXmXmXmXmXmXmX+ + jXH zXnX8 yX@ kXlX@ P.K.8 8 - 0.Z 0.. mXmXmXmXmXmXmXmXmXmXmXmXmXmXmXmXmXmXmXmXmXmXmX",
"mXmXmXmXmXmXmXmXmXmXmXmXmXmXmXmXmXmXmXmXmX+ lXjX8 8 @ xX@ 8 @ @ <X8 < U.@ 8 0.0.. mXmXmXmXmXmXmXmXmXmXmXmXmXmXmXmXmXmXmXmXmXmXmX",
"mXmXmXmXmXmXmXmXmXmXmXmXmXmXmXmXmXmXmXmXmXmX@ G.t zXnXnXzXxXjX@ G F.K.0.F.J.$ + mXmXmXmXmXmXmXmXmXmXmXmXmXmXmXmXmXmXmXmXmXmXmXmX",
"mXmXmXmXmXmXmXmXmXmXmXmXmXmXmXmXmXmXmXmXmXmX@ e gXnXcXnXvXcXzX@ 9 F.U.F.F.. . mXmXmXmXmXmXmXmXmXmXmXmXmXmXmXmXmXmXmXmXmXmXmXmXmX",
"mXmXmXmXmXmXmXmXmXmXmXmXmXmXmXmXmXmXmXmXmXmXmX@ gXnXvXvXvXnXlX@ mX+ . . + . mXmXmXmXmXmXmXmXmXmXmXmXmXmXmXmXmXmXmXmXmXmXmXmXmXmX",
"mXmXmXmXmXmXmXmXmXmXmXmXmXmXmXmXmXmXmXmXmXmXmXmX@ zXnXnXzXkXtX8 mXmXmXmXmXmXmXmXmXmXmXmXmXmXmXmXmXmXmXmXmXmXmXmXmXmXmXmXmXmXmXmX",
"mXmXmXmXmXmXmXmXmXmXmXmXmXmXmXmXmXmXmXmXmXmXmXmXmX+ @ @ @ @ @ mXmXmXmXmXmXmXmXmXmXmXmXmXmXmXmXmXmXmXmXmXmXmXmXmXmXmXmXmXmXmXmXmX"
};
