/* XPM */
static char *Asuka[] = {
/* columns rows colors chars-per-pixel */
"64 64 232 2 ",
"   c #010101",
".  c #0D0C0D",
"X  c #070607",
"o  c #140101",
"O  c #1A0C0C",
"+  c #170909",
"@  c #0A0110",
"#  c #0F0D1C",
"$  c #0B0A15",
"%  c #120D1B",
"&  c #160A1B",
"*  c #151414",
"=  c #181719",
"-  c #10100E",
";  c #270000",
":  c #280000",
">  c #270B0D",
",  c #3D0701",
"<  c #3A0802",
"1  c #350908",
"2  c #27110A",
"3  c #2C1901",
"4  c #381505",
"5  c #280D16",
"6  c #370D18",
"7  c #2A121C",
"8  c #251617",
"9  c #3C1B1C",
"0  c #341718",
"q  c #172A10",
"w  c #31211A",
"e  c #141223",
"r  c #1C1828",
"t  c #1F1C33",
"y  c #271822",
"u  c #341B24",
"i  c #221D34",
"p  c #1A262A",
"a  c #172432",
"s  c #1B3723",
"d  c #222328",
"f  c #262739",
"g  c #332A32",
"h  c #460709",
"j  c #560704",
"k  c #4D1405",
"l  c #531100",
"z  c #591604",
"x  c #5C1A06",
"c  c #5D1A09",
"v  c #531A03",
"b  c #471716",
"n  c #56191A",
"m  c #520C13",
"M  c #640302",
"N  c #6C0307",
"B  c #7D0000",
"V  c #750107",
"C  c #621E0B",
"Z  c #6B1305",
"A  c #690C17",
"S  c #780715",
"D  c #6B1B11",
"F  c #572908",
"G  c #4B2117",
"H  c #4E211A",
"J  c #58271D",
"K  c #4D2D02",
"L  c #65240B",
"P  c #69230F",
"I  c #6A280F",
"U  c #6B2613",
"Y  c #6D2914",
"T  c #6C2A1A",
"R  c #672616",
"E  c #722B14",
"W  c #732E1B",
"Q  c #772D17",
"!  c #75311C",
"~  c #7B331C",
"^  c #7E3616",
"/  c #481C25",
"(  c #531E21",
")  c #7A1A24",
"_  c #7C0E21",
"`  c #582821",
"'  c #552F2D",
"]  c #6A2D21",
"[  c #7E3623",
"{  c #7A3527",
"}  c #77352D",
"|  c #374635",
" . c #2B5139",
".. c #7E463A",
"X. c #634239",
"o. c #222F42",
"O. c #2B2D48",
"+. c #293445",
"@. c #2B3952",
"#. c #374A6D",
"$. c #3B5942",
"%. c #715749",
"&. c #5C4A5A",
"*. c #820105",
"=. c #8B0107",
"-. c #94010C",
";. c #910103",
":. c #870213",
">. c #8B0315",
",. c #870A18",
"<. c #930214",
"1. c #9C0213",
"2. c #9C0519",
"3. c #97081B",
"4. c #871110",
"5. c #A30217",
"6. c #A5041A",
"7. c #AC091E",
"8. c #A7071C",
"9. c #B50019",
"0. c #82351C",
"q. c #883B1E",
"w. c #962C19",
"e. c #980D22",
"r. c #8A1A29",
"t. c #991A29",
"y. c #AC0B22",
"u. c #A50B21",
"i. c #B30C24",
"p. c #BB0E27",
"a. c #BD0F29",
"s. c #A41527",
"d. c #BA142C",
"f. c #AF1F32",
"g. c #843A23",
"h. c #8B3D24",
"j. c #833A2D",
"k. c #853A26",
"l. c #843B33",
"z. c #863D36",
"x. c #922629",
"c. c #B12C11",
"v. c #CC3815",
"b. c #C4112C",
"n. c #C8122E",
"m. c #B9460B",
"M. c #8D4127",
"N. c #8E412A",
"B. c #854227",
"V. c #944325",
"C. c #95452B",
"Z. c #98472B",
"A. c #9C4A2D",
"S. c #9B4727",
"D. c #8C4035",
"F. c #964631",
"G. c #A24D2E",
"H. c #AB522E",
"J. c #A7502E",
"K. c #A34F30",
"L. c #AC5431",
"P. c #A55030",
"I. c #B15632",
"U. c #B55933",
"Y. c #BC5D34",
"T. c #9F6138",
"R. c #92421F",
"E. c #CC4D0B",
"W. c #C9460E",
"Q. c #D3500C",
"!. c #E5580E",
"~. c #C05F37",
"^. c #C46237",
"/. c #CB663A",
"(. c #D86D3E",
"). c #95664E",
"_. c #AE794E",
"`. c #916A5A",
"'. c #DE7141",
"]. c #EB7845",
"[. c #E67644",
"{. c #B7865D",
"}. c #A88568",
"|. c #BE926B",
" X c #AC8E7A",
".X c #BB906F",
"XX c #C2855F",
"oX c #C39469",
"OX c #C79977",
"+X c #D49072",
"@X c #C9A27C",
"#X c #D1A67F",
"$X c #E2A17E",
"%X c #B39C8C",
"&X c #ACB9B0",
"*X c #A9B2BA",
"=X c #9A9999",
"-X c #CCA985",
";X c #D5AA85",
":X c #DAB995",
">X c #CCAE93",
",X c #E9BA98",
"<X c #F4BD97",
"1X c #E3A886",
"2X c #DFC09C",
"3X c #E7C49C",
"4X c #F5C19D",
"5X c #EACBA5",
"6X c #EDCFA8",
"7X c #E8C6A1",
"8X c #F5C6A2",
"9X c #F5CBA5",
"0X c #F4CEA9",
"qX c #EFD2AB",
"wX c #F2D4AD",
"eX c #F3D7B1",
"rX c #F6DAB5",
"tX c #F9DEB9",
"yX c #F8DAB5",
"uX c #FAE0B9",
"iX c #D4C0A3",
"pX c #AFB9C8",
"aX c #FDE5C4",
"sX c #FFE8C9",
"dX c #FFECD3",
"fX c #D9D9E8",
"gX c #E6E6EC",
"hX c #ECECF4",
"jX c #FDFDFD",
"kX c #F4F6FA",
"lX c #F7F2E9",
"zX c None",
/* pixels */
"zXzXzXzXzXzXzXzXzXzXzXzXzXzXzXzXzXzXzXzXzXzXI L L L v v X 3 4 l l k q z 4 l l l zXzXzXzXzXzXzXzXzXzXzXzXzXzXzXzXzXzXzXzXzXzXzXzX",
"zXzXzXzXzXzXzXzXzXzXzXzXzXzXzXzXzXzXzXzXI I L L B.q.A.! 4 k H A.0.L 4 g.q.V.N.z l l zXzXzXzXzXzXzXzXzXzXzXzXzXzXzXzXzXzXzXzXzXzX",
"zXzXzXzXzXzXzXzXzXzXzXzXzXzXzXzXzXzXzXL L E ` I E F l l ! A.C.~ A.g.h.~ Q Y Z.N.k.U l zXzXzXzXzXzXzXzXzXzXzXzXzXzXzXzXzXzXzXzXzX",
"zXzXzXzXzXzXzXzXzXzXzXzXzXzXzXzXb < < b A.^.P.L.I.P.P.A.z c ~ C.M.q.h.A.A.Z.Z.Z.h.g.l 1 , , , zXzXzXzXzXzXzXzXzXzXzXzXzXzXzXzXzX",
"zXzXzXzXzXzXzXzXzXzXzXzXzXzXzXzXb x.< < Y.(.(.^.U.H.H.L.g.Q g.C.A.K.K.Z.N.A.h.! k.h.g., 9.6., zXzXzXzXzXzXzXzXzXzXzXzXzXzXzXzXzX",
"zXzXzXzXzXzXzXzXzXzXzXzXzXzXzXH r._ < F.G.~.^.^.G.l l C C.k.V.J.A.0.x Q h.K.G.E l l l < h N S , zXzXzXzXzXzXzXzXzXzXzXzXzXzXzXzX",
"zXzXzXzXzXzXzXzXzXzXzXzXzXzX0 d.,.< Z.L L V.I.L.H.S.G.I l h.h.h.l l C.L.I.L.J.G.Z.Z.Z.h.b < N N , zXzXzXzXzXzXzXzXzXzXzXzXzXzXzX",
"zXzXzXzXzXzXzXzXzXzXzXzXzXzX< :.< S.].].C l l l h.I.A.Z.~ P Z.Z P.L.I.I.I.J.K.Z.! Z.Z.Z.l C , <., zXzXzXzXzXzXzXzXzXzXzXzXzXzXzX",
"zXzXzXzXzXzXzXzXzXzXzXzXzXzX< < F L A.U.L.I.L.I.I.H.H.Z.Z.G.H.I.U.U.U.I.L.A.c L L Z.Z.Z.l g.< , < zXzXzXzXzXzXzXzXzXzXzXzXzXzXzX",
"zXzXzXzXzXzXzXzXzXzXzXzXzXzXL L V.~.L H.C F L L L q.q.G.G.G.J.L.U.U.L.U l l L k.I x Z.Z.l g.g.l E zXzXzXzXzXzXzXzXzXzXzXzXzXzXzX",
"zXzXzXzXzXzXzXzXzXzXzXzXzXL L L V.Y.H.J.L H.L.I.V.L S.C H.G.H.J.L.c l z h.A.Z.L.P.l C.Z.0.Z.Q P l zXzXzXzXzXzXzXzXzXzXzXzXzXzXzX",
"zXzXzXzXzXzXzXzXzXzXzXzXzXL B.M.Y.P.J.L V.I.'.^.^.I.I.I.L.J.L.L.L.J.A.G.A.I.I.].Y.C.l Z.Z.C.Q g.l l zXzXzXzXzXzXzXzXzXzXzXzXzXzX",
"zXzXzXzXzXzXzXzXzXzXzXzXL L ^.I C.C.E L I.'.].].^.Y.I.H.H.I.U.H.J.U.I.I.U.].].].I.Z.z l Z.Z.C.U l l zXzXzXzXzXzXzXzXzXzXzXzXzXzX",
"zXzXzXzXzXzXzXzXzXzXzXzXI R.E E C.A.L P.I.].[.]./.~.I.I.I.I.Y.I.I.U.Y.Y.].].U.H.V.Z.C.l x C.C.C C.l zXzXzXzXzXzXzXzXzXzXzXzXzXzX",
"zXzXzXzXzXzXzXzXzXzXzXL L ^.L C.A.c g.G.G.~.^.^.].[.U.H.Y.~.'.U.U.U./.'.U.0.h.Z.Z.Z.Z.Z.l L Z.z h.l zXzXzXzXzXzXzXzXzXzXzXzXzXzX",
"zXzXzXzXzXzXzXzXzXzXzXL ^ ^.F C.0.L S.S.G.G.H.U.Y.I.S.G.U.~.'.q.I.I.I.A.K.Z.U P h.N.Z.C.C.l P U c l P zXzXzXzXzXzXzXzXzXzXzXzXzX",
"zXzXzXzXzXzXzXzXzXzXzXL ^ A.z C.l E A.0.A.G.L.I.J.0.0.J.L.L.I.q.F.Z.A.A.A.C.M.c C [ h.C.N.C.j g.l P l zXzXzXzXzXzXzXzXzXzXzXzXzX",
"zXzXzXzXzXzXzXzXzXzXzXL J.g.l U l A.A.x A.G.A.G.0.E G.0.0.K.G.h.l F.N.M.C.A.C.M.x [ T [ M.M.C.l l M.l zXzXzXzXzXzXzXzXzXzXzXzXzX",
"zXzXzXzXzXzXzXzXzXzXzXL Y.z q.z x A.C l A.A.C.h.l C D.j.z C.A.C.l N.} B.h.C.F.C.h.x R R T N.F.c l N.l zXzXzXzXzXzXzXzXzXzXzXzXzX",
"zXzXzXzXzXzXzXzXzXzXzXz S.z L l Z.Z.l D.A.N.~ z k _.z z.l g.Z.Z.W l D.j.j.h.C.C.Z.! x Y U T h.U l C.l l zXzXzXzXzXzXzXzXzXzXzXzX",
"zXzXzXzXzXzXzXzXzXzXzXl Z.l l z Z.l { F.C.! E l |.|.l z.l { g.Z.Z.l l l.j.l.g.M.C.C.P z R R C h.l h.l l zXzXzXzXzXzXzXzXzXzXzXzX",
"zXzXzXzXzXzXzXzXzXzXzXl c l l Z.l l z.C.W W l z l l l B.D z [ C.Z.z x l P j.[ [ k.N.N.z z R l E l h.l l zXzXzXzXzXzXzXzXzXzXzXzX",
"zXzXzXzXzXzXzXzXzXzXzXl Z.C.W l l z.z.g.W E l _.{.l l l D.l l.k.C.l _.l l l l [ [ [ N.N.l R l l l k.l l zXzXzXzXzXzXzXzXzXzXzXzX",
"zXzXzXzXzXzXzXzXzXzXzXl C.~ l z D z.F.W W z F _.3X|._.z l l ] { N.l z oX{.v l F K ! [ N.l l z R z k.l l zXzXzXzXzXzXzXzXzXzXzXzX",
"zXzXzXzXzXzXzXzXzXzXzXz l l z l D.z.! W Y k X X X $ = }.z l l [ W l @X- O 2 2 2 k C T l N.l R P R g.l z zXzXzXzXzXzXzXzXzXzXzXzX",
"zXzXzXzXzXzXzXzXzXzXzXL l C.z l D.l.W W l @ . % e     f iX).l l c l @X* X   $ g 2 2 R l E l g.R k.g.l L zXzXzXzXzXzXzXzXzXzXzXzX",
"zXzXzXzXzXzXzXzXzXzXzXzXl C.L l z.l T l . X =   @     =XuXeX.Xl z l -X&X      @   2 l ! l l [ L [ g.l zXzXzXzXzXzXzXzXzXzXzXzXzX",
"zXzXzXzXzXzXzXzXzXzXzXzXl k.R l [ l l k X &XjXjX  X   &XuX6XwX}.l l #X&XjXjX  @   &X= l l l z l g.W l zXzXzXzXzXzXzXzXzXzXzXzXzX",
"zXzXzXzXzXzXzXzXzXzXzXzXl l C.l l [ v X - &X    @ & X &XtX5XqX6X|.l OX&X  O g i X &X&X3 l l z G [ l l zXzXzXzXzXzXzXzXzXzXzXzXzX",
"zXzXzXzXzXzXzXzXzXzXzXzXT l Z.l l C.F . &X&X  #.#.O.X &XrXeX5X6XeX@X;X&X  &.#.#.= &X&X%.l k l H [ l l zXzXzXzXzXzXzXzXzXzXzXzXzX",
"zXzXzXzXzXzXzXzXzXzXzXzXzXl N.T l 9 F %XfXfX. @.o.o.y gXuXqXeXqX6X5XqXgXt o.+.o.y fX&X Xl 0 k J g.l zXzXzXzXzXzXzXzXzXzXzXzXzXzX",
"zXzXzXzXzXzXzXzXzXzXzXzXzXl [ ! b 7 T.%XhXkX5 o.pXo.7 kXuXeXtXrX6XuXyXlXa o.pX+.f jXkX%XK 7 7 J g.l U zXzXzXzXzXzXzXzXzXzXzXzXzX",
"zXzXzXzXzXzXzXzXzXzXzXzXzXl B.! b 7 ).%XkXhX5 o.pXa > aXtXtXtXrX5X6XrXlXp a =Xa a kXlX X_.7 7 H [ l C zXzXzXzXzXzXzXzXzXzXzXzXzX",
"zXzXzXzXzXzXzXzXzXzXzXzXzXl h.{ G 0 5 #X XgXkXt hXy hXtXrXtXsXrX3X5XeXeXjXa kX+.kX' b ;X_.7 9 J ] l z zXzXzXzXzXzXzXzXzXzXzXzXzX",
"zXzXzXzXzXzXzXzXzXzXzXzXzXl l.F J G 7 oXyX>X&.1 5 1 yXtXtXsXdXtXqX6X6XeXwXr a f ).:X3X#Xu 7 ` ` ] l l zXzXzXzXzXzXzXzXzXzXzXzXzX",
"zXzXzXzXzXzXzXzXzXzXzXzXzXl z.K F G 7 oX<X9X9X0X0X0XwXeXtXsXaX}.6XqXeXwXwX0X0X0X8X3X$XXXy 9 0 2 ] l l zXzXzXzXzXzXzXzXzXzXzXzXzX",
"zXzXzXzXzXzXzXzXzXzXzXzXzXl z.' Z M 7 / $X<X<X8X8X9X0XwXeX7XG K 0XwXwX0X0X9X9X4X<X1X+XX.u 8 8 ` ] Y l zXzXzXzXzXzXzXzXzXzXzXzXzX",
"zXzXzXzXzXzXzXzXzXzXzXzXzXl } w O : j b +X,X<X8X8X9X9XwXwXtXuXtXeXeXwX0X9X9X<X<X;X+X`.5 ' ; ; 0 ` [ l zXzXzXzXzXzXzXzXzXzXzXzXzX",
"zXzXzXzXzXzXzXzXzXzXzXzXzXl } 8 : 6.S m 6 -X,X,X8X0X0XwXeXsXsXaXrXeXwXwX0X7X,X,X+XOX7 u 6.; : ; 2 { l zXzXzXzXzXzXzXzXzXzXzXzXzX",
"zXzXzXzXzXzXzXzXzXzXzXzXz T d : - m ,.w $./ 7 ;X7XqXwXwXeX).....D.}.wXwX7X7X-XOX`.8 u <.8.b.y.2.: > Z l zXzXzXzXzXzXzXzXzXzXzXzX",
"zXzXzXzXzXzXzXzXzXzXzXzXl 8 : : y.e.2.6 | | b 7 ;X:X5XqXwXwXeXeXeXqXeX>X@XOXOX%.y s q > 2.a.b.y.m ; 1 l zXzXzXzXzXzXzXzXzXzXzXzX",
"zXzXzXzXzXzXzXzXzXzXzXzXz O > 1 n.S ,.A m 7 s | u 7 |.OX:X:X:X:X:X-X.X.X.X7 7 u 9 o ; h # 6 e.a.; ; ; Z zXzXzXzXzXzXzXzXzXzXzXzX",
"zXzXzXzXzXzXzXzXzXzXzXP 8 x.n.n.n.6.% # 8.n.S . =  .7 7 7 7 8 7 7 7 y u b s X   : o 6.:.6 & # b.h : : M z zXzXzXzXzXzXzXzXzXzXzX",
"zXzXzXzXzXzXzXzXzXzXzXd : f f ' u 2.% # 7 n.n.8.> D h M * X . B = * h X       *.8.u.y.2.# e t r.p.>.u.j Z zXzXzXzXzXzXzXzXzXzXzX",
"zXzXzXzXzXzXzXzXzXzXzX: b i O.f i # % + # n.n.n.b.i.7.6.o 1.o 5.;.o *.B *.6.y.p.p.p.6.: : r t t r 3.6.: M z zXzXzXzXzXzXzXzXzXzX",
"zXzXzXzXzXzXzXzXzXzX2 : 6.e f i r e $ : ; 6.>.<.8.n.n.p.o o o p.i.o o 7.y.i.8.8.3.1.8.: ` ; e i f e # : : zXzXzXzXzXzXzXzXzXzXzX",
"zXzXzXzXzXzXzXzXzXzX; n.n.n.# t e @ $ : ; ; A 8 = = 2 S y.p.b.p.i.7.b.i.0 = = 0 b A : 1 ; ; # # e r # # ; 8 zXzXzXzXzXzXzXzXzXzX",
"zXzXzXzXzXzXzXzXzXzX: n.n.7.A # # + : : N ; * m.m.E.w.* 3.y.n.n.p.i.i.A 9 m.E.E.c.1 : : ; & # # # # # # : : zXzXzXzXzXzXzXzXzXzX",
"zXzXzXzXzXzXzXzXzXzX: b.n.8.S $ @ O { + M V ; !.!.Q.E.v.O ,.b.n.d.i.b W.E.E.Q.Q.6 : >.: & & 6 _ ,.<.6.6.x.: zXzXzXzXzXzXzXzXzXzX",
"zXzXzXzXzXzXzXzXzXzX: >.1.:.S : j { l 8 ;.-.;.; !.!.E.E.n S 2.d.y.h v.E.E.E.E.D ; :.: >.,.e.u.i.y.u.2.:.; : zXzXzXzXzXzXzXzXzXzX",
"zXzXzXzXzXzXzXzXzXzX: >.:.:.: g c l z O 1.6.6.;.: : !.E.v.S :.S 2.S W.E.E.E.: : 6.6.; 6.p.p.i.7.y.:.:.:.; zXzXzXzXzXzXzXzXzXzXzX",
"zXzXzXzXzXzXzXzXzXzXzX; : ; ; zXzXzXzX: h ,.5.5.-.: : : : ; : : : : : : : : : 6.6.: : 3.y.8.6.:.:.:.: : zXzXzXzXzXzXzXzXzXzXzXzX",
"zXzXzXzXzXzXzXzXzXzXzXzXzXzXzXzXzXzXzX; . . 5.5.5.5.5.-.;.B N : : :.:.S S >.6.6.- : zX; :.:.:.:.: ; zXzXzXzXzXzXzXzXzXzXzXzXzXzX",
"zXzXzXzXzXzXzXzXzXzXzXzXzXzXzXzXzXzXzX; f.. . 5.5.5.5.5.-.B B :.S <.5.6.6.6.6.. 2 ; zXzX: : ; ; zXzXzXzXzXzXzXzXzXzXzXzXzXzXzXzX",
"zXzXzXzXzXzXzXzXzXzXzXzXzXzXzXzXzXzXzXzX; >.. . 5.5.6.5.5.1.V :.<.8.6.5.1.h . A 3.; zXzXzXzXzXzXzXzXzXzXzXzXzXzXzXzXzXzXzXzXzXzX",
"zXzXzXzXzXzXzXzXzXzXzXzXzXzXzXzXzXzXzXzX: 6.5.. . 8.6.8.5.6.-.; 6.2.-.,.<.*.B =.- ; zXzXzXzXzXzXzXzXzXzXzXzXzXzXzXzXzXzXzXzXzXzX",
"zXzXzXzXzXzXzXzXzXzXzXzXzXzXzXzXzXzXzXzX; 5 6.6.3.6.d.9 b.6.6.: 2.*.B B *.B     O : zXzXzXzXzXzXzXzXzXzXzXzXzXzXzXzXzXzXzXzXzXzX",
"zXzXzXzXzXzXzXzXzXzXzXzXzXzXzXzXzXzXzXzX: : - 2.6.i.t.9 ) p.8.: =.B B - *.B M B : zXzXzXzXzXzXzXzXzXzXzXzXzXzXzXzXzXzXzXzXzXzXzX",
"zXzXzXzXzXzXzXzXzXzXzXzXzXzXzXzXzXzXzXzXzX: ,.- - s.9 b ( r.a.; *.*.r.; n B 4.x.: zXzXzXzXzXzXzXzXzXzXzXzXzXzXzXzXzXzXzXzXzXzXzX",
"zXzXzXzXzXzXzXzXzXzXzXzXzXzXzXzXzXzXzXzXzXzX: 8.8.r.t.n.) t.b.: *.N N B N N ; ; zXzXzXzXzXzXzXzXzXzXzXzXzXzXzXzXzXzXzXzXzXzXzXzX",
"zXzXzXzXzXzXzXzXzXzXzXzXzXzXzXzXzXzXzXzXzXzX: h b.d.d.b.b.b.n.: h *.B 4.B : ; zXzXzXzXzXzXzXzXzXzXzXzXzXzXzXzXzXzXzXzXzXzXzXzXzX",
"zXzXzXzXzXzXzXzXzXzXzXzXzXzXzXzXzXzXzXzXzXzXzX: b.b.n.b.n.n.n.: zX; : ; : : zXzXzXzXzXzXzXzXzXzXzXzXzXzXzXzXzXzXzXzXzXzXzXzXzXzX",
"zXzXzXzXzXzXzXzXzXzXzXzXzXzXzXzXzXzXzXzXzXzXzXzX: y.a.b.b.b.a.n zXzXzXzXzXzXzXzXzXzXzXzXzXzXzXzXzXzXzXzXzXzXzXzXzXzXzXzXzXzXzXzX",
"zXzXzXzXzXzXzXzXzXzXzXzXzXzXzXzXzXzXzXzXzXzXzXzXzX: ; : : : : zXzXzXzXzXzXzXzXzXzXzXzXzXzXzXzXzXzXzXzXzXzXzXzXzXzXzXzXzXzXzXzXzX"
};
