/* XPM */
static char *_a31d198e0344499f431d6dd36bc4a5agNmUK5GeuyQhCSZ9[] = {
/* columns rows colors chars-per-pixel */
"64 64 256 2 ",
"   c #171213",
".  c #2B0C13",
"X  c #0E0F36",
"o  c #231925",
"O  c #1E2329",
"+  c #36373C",
"@  c #302D2F",
"#  c #33221C",
"$  c #473231",
"%  c #50102D",
"&  c #37413D",
"*  c #160858",
"=  c #151450",
"-  c #211956",
";  c #373B45",
":  c #282859",
">  c #2B3952",
",  c #25364E",
"<  c #1E0966",
"1  c #27146F",
"2  c #373469",
"3  c #362972",
"4  c #3D3578",
"5  c #31256C",
"6  c #1C344E",
"7  c #44397A",
"8  c #503566",
"9  c #682E47",
"0  c #3B4346",
"q  c #2B455A",
"w  c #394A68",
"e  c #45484A",
"r  c #4B5354",
"t  c #525659",
"y  c #524B4F",
"u  c #665755",
"i  c #6C645E",
"p  c #434875",
"a  c #4F5771",
"s  c #586679",
"d  c #5D6668",
"f  c #656767",
"g  c #737272",
"h  c #655B64",
"j  c #54453E",
"k  c #B8306B",
"l  c #892A55",
"z  c #C83A78",
"x  c #C6326F",
"c  c #B54876",
"v  c #8A7472",
"b  c #A37879",
"n  c #C7477D",
"m  c #A7827D",
"M  c #3D3582",
"N  c #443A87",
"B  c #4C4987",
"V  c #564D8C",
"C  c #595886",
"Z  c #5A5494",
"A  c #5A4C9A",
"S  c #655A92",
"D  c #596183",
"F  c #6B7190",
"G  c #655AA6",
"H  c #766FA2",
"J  c #5F54A0",
"K  c #D03F82",
"L  c #B85A86",
"P  c #B45386",
"I  c #92778B",
"U  c #B8658B",
"Y  c #B67295",
"T  c #937EAC",
"R  c #CA4A84",
"E  c #D84887",
"W  c #C85689",
"Q  c #D8538C",
"!  c #D85894",
"~  c #C75B93",
"^  c #E3498C",
"/  c #E3518E",
"(  c #E84E92",
")  c #E75897",
"_  c #F2589A",
"`  c #C66895",
"'  c #D56899",
"]  c #CD729A",
"[  c #E5679D",
"{  c #F0629E",
"}  c #D878A5",
"|  c #CD74A3",
" . c #E969A5",
".. c #F465A4",
"X. c #FB77B6",
"o. c #F076AC",
"O. c #76849A",
"+. c #70838A",
"@. c #7C92A9",
"#. c #898C8A",
"$. c #938986",
"%. c #8F9294",
"&. c #AA8D90",
"*. c #848EA3",
"=. c #8693A6",
"-. c #8C96B4",
";. c #9092B1",
":. c #B092AC",
">. c #9CA9B5",
",. c #99A5A7",
"<. c #A9ABA5",
"1. c #ACB3AB",
"2. c #B5B4AA",
"3. c #A7ABB7",
"4. c #ABB5B7",
"5. c #B8B9B7",
"6. c #B6ACAC",
"7. c #A7A399",
"8. c #D785AB",
"9. c #CD91AF",
"0. c #FB85BB",
"q. c #E78CB3",
"w. c #C5BBB9",
"e. c #D1ADB1",
"r. c #D0A1A8",
"t. c #BAC3BD",
"y. c #C5C3BB",
"u. c #D6C9BD",
"i. c #E7CABF",
"p. c #9BA5C1",
"a. c #BAABC4",
"s. c #ACB6C6",
"d. c #BBB5C8",
"f. c #AFB2CD",
"g. c #B5B8E8",
"h. c #F694C5",
"j. c #C6ADCA",
"k. c #C3ACC6",
"l. c #C5B3CB",
"z. c #CAB4CD",
"x. c #C5BCCD",
"c. c #CBBACE",
"v. c #C4B3C6",
"b. c #D7B9CB",
"n. c #CBAED1",
"m. c #CDB4D3",
"M. c #C5BDD3",
"N. c #CBBCD3",
"B. c #C5BAD4",
"V. c #D3BCD4",
"C. c #D4BCDA",
"Z. c #D9BCDD",
"A. c #D3B5D6",
"S. c #FDB6D7",
"D. c #EEAECF",
"F. c #DBBDE0",
"G. c #FFBFED",
"H. c #BAC7C8",
"J. c #BBC9D6",
"K. c #BDD5D7",
"L. c #BBCBE3",
"P. c #BDD7E6",
"I. c #BEDCF6",
"U. c #BDE2E2",
"Y. c #C2C4CA",
"T. c #C7C8C6",
"R. c #D5C9CA",
"E. c #C4D2CB",
"W. c #C9D5C9",
"Q. c #D5D6CB",
"!. c #C5C4D3",
"~. c #CAC4D5",
"^. c #C5CBD3",
"/. c #CBCAD5",
"(. c #CCC3DA",
"). c #CCCBDA",
"_. c #C4CADA",
"`. c #D2C3D5",
"'. c #D3C4DB",
"]. c #DBC3DC",
"[. c #D6CAD9",
"{. c #C4D5D4",
"}. c #CAD2D4",
"|. c #CCDAD5",
" X c #C4D4DB",
".X c #CBD4DB",
"XX c #C5DCDC",
"oX c #CBDCDC",
"OX c #C5DAD5",
"+X c #D3DCD3",
"@X c #D2D3DC",
"#X c #D3DCDC",
"$X c #D8D7D7",
"%X c #E8D4CC",
"&X c #E7D8D6",
"*X c #F8DAD6",
"=X c #F0CBD0",
"-X c #CCE2DD",
";X c #CAE2D9",
":X c #D6E3DA",
">X c #F4E4DC",
",X c #C7CBE6",
"<X c #D6CDE4",
"1X c #DBCCE4",
"2X c #D9C5E2",
"3X c #CBD5E3",
"4X c #C5DDE3",
"5X c #CCDCE3",
"6X c #CCDCEB",
"7X c #C5D9E8",
"8X c #D4D4E3",
"9X c #D9D4E5",
"0X c #D3DCE4",
"qX c #D9DCE6",
"wX c #DCD4EA",
"eX c #D5DEEA",
"rX c #DADCEA",
"tX c #D1D4EB",
"yX c #CBDDF4",
"uX c #D6D8F9",
"iX c #CECAF9",
"pX c #E3CCE4",
"aX c #E6CEEA",
"sX c #FDCBE7",
"dX c #E3D3EC",
"fX c #E5D8E8",
"gX c #F8D6EA",
"hX c #E8DBF4",
"jX c #FCD9F8",
"kX c #FBCAF5",
"lX c #CDE3E4",
"zX c #CDE3EB",
"xX c #C7E5E7",
"cX c #D4E3E5",
"vX c #DAE4E5",
"bX c #D4E4EA",
"nX c #DAE4EB",
"mX c #D4EAEC",
"MX c #DBEAEC",
"NX c #D8E9E3",
"BX c #CCE3F2",
"VX c #CCE6F7",
"CX c #D3E5F3",
"ZX c #D4EAF4",
"AX c #DBEBF3",
"SX c #DCECFC",
"DX c #D7E6FA",
"FX c #DAF2F9",
"GX c #E6E8E8",
"HX c #F7E6E5",
"JX c #E3EBFF",
"KX c #E8E8F6",
"LX c #FAE6F9",
"PX c #E8F4F9",
"IX c #FAF4FB",
"UX c #FFF9EF",
/* pixels */
"< < * = F VXI.BXbX3X~.B.B.!.!.!.3XeXbXXXmXP.yXq - 7 3 V 7 : a.jXkXjXT 7 A 7 7 = > I.FXI.U.P.6XtX^.!.!.M.J.!.3XnXDXL.yXF = * 1 M ",
"* * B g.uXP.SXZX@X~.!.N.(.(./._.).3XbXbXZXzX7Xw 5 : 2 V 7 8 kX:.T :.n.;.S - 2 : w L.VXBXZXxXqX,X_./.~.!.M.M.~..XCXZXyXVXg.B * < ",
"* 7 X w DX6XZX X!.N.(.'.<X9XqXrXtX_..XcXlXZXCX@.a C D H 8 8 kX:.LXhXI 8 S S s H =.6X6XzXCX3XqX[.eXeXtX<X<X~.N.Y.K.CXZXDX2 X 3 * ",
"- g.p 6 6XAXoX.Xv.c.C.1XdXdXrXnX9X.X^.5XlXZXCXyXDXJX2XIXjXG.kX} S.jXkXjXkXjXaXF.tXKX5XlXXX{.9X[.rXrXwXdX1XC.c.c.nX5XJXzX6 D g.- ",
"F SXyX7XJXcX_.0Xv.l.m.C.2X,XN.!.[.8X!.5XAX5X;XPXJX4.h Y Y ~ L ' } q.| | | kXjXjXKXrXoXlX;XH.}.`.~.!.(.2XZ.m.v.k.nX^.5XAX7XVXJXF ",
"7XyX7XPX5X0X@X8Xl.j.j.n.m.l.a.a.(.~.d..XnX5XmX:X$.o . l ` ' Q c n ! ! ! U ` P 9.gXHXvX:XOXH.Y./.a.d.j.m.m.j.j.z.9X^.qX.XFX7XyXyX",
"VXDX7X4XcXqXKXfXN.z.j.n.A.m.l.d.[.~.!.!.bXnXPX@.. . l ]  .o.0.X.) R X.X.! ' | | D.pXHX$X^.H.x.1Xk.z.m.A.n.k.j.V.hXrXnXbX5X4XBXSX",
"CXCX4XXX0X^.KX(.N.k.a.n.Z.].].V.fX`.wX8XeXeXNX    9 c q.Q X.0.X.! [ X.X.X.0.0.D.Y q.sXfX$X[.`.aXV.].F.Z.n.k.j.m.[.rX!.5XlXBXxX7X",
"8X@Xx.v.z.v.m.(.M.d.(.<X(.m.2XdX2Xm.`.GX&XGX&   . % ] } n o.[ 0.) ! ! X.h.0.h.0.~ U kXjXwX[.(.'.aX2Xm.(.wXN.d.N.'.c.c.l.a.c.@X0X",
"8X/.!.z.l.k.l.j.M.,XwXwXB.j.N.Z.Z.'.&XT.:X>X# @ % &.] ` q.! n o.) ! ! ! X.!  .! ~ L D.LXpX9X~.~.F.A.l.B.<XdX,XN.l.l.k.l.c.!.).8X",
").M.(.2Xz.j.n.a.<XwXKXdX'.C.Z.m.M.8XvX+XGXGXi $ $ =X8.` 0.o.E X...! ! ! X.!  .!  .W ] gXdXfX8X[.m.Z.A.(.dXKXwX'.k.j.j.m.'.(.!.).",
"(.d.2XaXN.m.C.n.<X<XpXdXpXpX].m. X5XoXPXNX>Xt.# I R.&.U q.Q ) ....( ^ K ..) ) ! / n U sXLXLX8X_.m.].1XwXdXwX<X<Xn.Z.m.A.dX2XB.N.",
"(.d.<XhXC.m.2XZ.(.l.`.aX1X'.'.'.mXzXXXPX:XGXy.# &X%XgXsXS.c E ) ..) z E E  .Q R E R P 9.hXfXcXqX'.[.'.1XpX'.x.(.A.2Xm.C.hX<XM.~.",
"(.!.wXhX(.l.C.Z.c.v.'.aX'.l.).bXmXzXAXcXGXUXi + %X%X=X=X*X8.' W ~ R k K K ) z K z ! | :.wXeXcXmXrX_.d.'.9X'.l.l.Z.C.B.N.dXwX!.(.",
"(.).9XrX/.v.l.].`.V.].].`._.6XBX{.zXAXbXPXGX$ m i.UXw.i % . % 9 9 l k z K ^ k k x ! S.gXKXKXK.U.bX5X).'.2X].b.C.Z.m.d.(.qX8X).!.",
"^..X8XeX).d.a.].pXV.b.V.(.eXmXxXlXMX XnXGXY.j i.*Xe.$ $ # # % % % l k K E ! z k ! ' G.LX@XmXXXmX4XZXnX).b.b.Z.pX'.a.d.).9XqX.X!.",
"8X^.^.$XR.R.].pX(./.)..X0XlXlXzX;XFXOXPXUXt u &X%X$   $.  *Xu . % c n / E ( Q k h.~ S.LXx.cX-X-XbX4XlXcX5X!.!.[.pX].`.R.$X/.}.qX",
"bX.X@X$XR.~.`.`.!./.).0XcXcXcXlXK.;XGXGXe $ @ &X&.  g >Xy w.b &.S.}  .E Q ) E ^ ..} 9.gX[.}.NXOXbXzXbXbXeX.X~.'.[.`.~.R.$X@XoX0X",
"bX4X3X^.Y.Y.R.~.).@XqXnXMXNXcXlXGXIXGXg $ y # . %Xv &.7.$ v r.gXS.} ) / ^ x Q ^  .0.] S.gX$XPXvXcXlXbXmXnXrX@X).[./.Y.Y.^.oX5X4X",
"ZXCXmXbX}.}.}.!.$XqXvXnXMXcX-X|.5.GXg @ w.I j $ $ u.>XUX*Xi.*XS.q.0.( ^ z k ....) 0.` 9.sXgX&XfX}.:XcXbXnXnXrX@X}./.^.}.0XZXSXZX",
"P.P.BXZXbXbXcX#XNXvXvXnXnXcX;XW.w.>Xg @ T.R.v $ j >X%Xu.*Xi.*Xr.] ] n x x ( R ) ) X.o.| D.gX9.R.W.#XcXbXbXnXvXvXoX:XbXbXCXBX7XP.",
"FXVXVXVX6XzXMXmXNX:XcXcXvX:X:XW.y.Q.%Xy @ =X>X%Xi.>X%X>X*X*Xr.m c n x x E ) K / ) ..h.` 8.sXY b.:X#XcXcXbXvXNXvXNXcXzXzXBXVXVXSX",
"I.P.yXDXBX4XoX;X;X:XvXnXvX#XQ.Q.+Xy.+X>Xm %X%X&X*Xu.>X>Xi.%Xi.*X=Xh.n _ ) K ....^ ( ..! ` 8.U D.&XQ.OXcXbXcX-X:X;X;X4XCXVXVXI.I.",
"q w @.P.ZXbXlXOXE.;XNXcX XT.E.u.+XGXy.y.GXy %X%X%X>Xi.%X%X>X*X*XS.8.{ n ^ ) ) K ( _ E [ U c 9.sXQ.T.H.}.AXcX|.W.|.OXzXVXP.@.w 6 ",
"= : D 6X4X4XXXK.zXoX;X:X|.E.^.0XGXQ.Q.w.HX# m b r.i.i.*Xi.>X*Xi.8.[ n n { { _ _ ( ^ ^  .} D.gXKX#X^.E.|.:XoXlXbX;X4XlX4X6Xs - = ",
"2 > F SXAX3XJ.xXlX;X{.K.E.{.0XAX:XGXW.R.>Xr.v b v m m i.%Xi.*X*X8.' n n n ..{ n ^ ^ E ! h.kXgXhXAX#X}.E.K.{.5X5XK.J. XAXJXF 2 3 ",
"4 3 C ,XtX4X XlXlX5X{.H.{.#XeX5XMX.X<./.R.fXu I v i.*X*X%X>X=Xb ` n k x n { ..( ( E Q L sXjX[.GX0XqX#X{.H.}.5X0XxX X5XeX,XC 2 4 ",
"Z V H uXSX3X XMXMXXXH.H.J.5XCXAX0XPX}.E.5.HX7.f &Xi.>X%Xu.&X=X=X' k k n ( _ { _ _ E ' Y jXfX[.PXAXnX.XJ.H.H.oXAXAXXX3XDXuXH V Z ",
"4 2 S uXJX,X^.cX|..X4XtX4X_.L.6XAXCX^._.H.).LXIXf i e.&X&XHXsXsX' k z ( ( _ _ ^ ^ E X.| S.hXKX_.6X^.J.3XCX5X3X.XnX_.,XJXuXS 4 4 ",
"5 5 3 ;.,XJXAX{.cXnXeXJ.*.s a s F d.SXeXDXIX).8XKX<.h u $ $ &.D.! Q ( ( n _ ) x ^ _ h.` 9.gXGX%.s a s *.d.nXnXqX XAXSX,X;.3 3 1 ",
"J G B Z -.L.6XK.}. Xs.*.O.-.f.L.>.-.f. XtXf.*.s.@XLXLXHXLXgXLXY W ) ) ( ^ ! Q x E ..o.} 9.D.gX,.P.f.-.O.*.f. X.XJ.zXJ.-.Z B G G ",
"4 M M B p > F OX#X.X4.=.p.yXFXyXiX-.H -.3.f.<XeX.X5.v.R.aXgXgX] R Q ^ ^ ) Q R z z ! ^ X.h.D.LXKX7XFXuXp.*.s..X#X X+.> w B 4 M M ",
"4 M M B p > F E.#X.Xs.*.p.VXSX7XxX-.H ;.p.f.3XrXR.~.R.LXgXsX} L / ) E E _ K k z K K  .o.9.j.sXgX7XSXyX>.=.4. X+XXX+., p B 4 M 4 ",
"J G B Z -.J.cXK.}.^.s.*.O.-.f.J.@.@.>.uXwXs.-.3.^./.KXgXA.8.~  .X.....Q K Q K l c R ' } h.9.LXfXJ.f.-.H *.s..X.XK.cXg.-.Z V G A ",
"1 5 4 ;.iXSXAX{.cXnXbXJ.@.D a s O.J.CXrXuXhX8X^.d.d.LXhXb.8.q.q. . .' ~ P P ! ~ ' c P 8.gXb.aX#.a a s *.H.CXMXcX{.AXSX,X-.4 3 5 ",
"4 4 S uXJX,XK.nXoX|.5X6X7XK.,X6XmXAX8X_.).).).nX5XnXLXfXLXsX9.U } q.| U L Y h.kXD.] q.e.gXfXGXvX5X3X3X X.X0XoX{.cXJ.,XKXiXS 4 7 ",
"Z V H uXSX3X3XMXMX.XH.H.J.5XnXAXMX0XY.Y.W.t.1.H.5XcX^.fXIXsXY 8.] 9.S.jXF.jXLXZ.:.9.=XsX[.[.Y.MXnXKXbXH.4.H.XXcXbX.X9XDXuXH V Z ",
"4 2 C ,XtX4X X4XlX5XK.H.{.lXqX5X}.#XQ.y.t.u.t.5.4.F ,.IX&X:.9.*XLXgXLXLXjXgXjXLX*X*Xw.=Xu.R.#XGX.XcX:XE.H.XX:XlX5X4X6X6X,XV 2 4 ",
"2 2 S PXAX XJ.XXlXoXOXK.H.|.cXMXUX+XT.R.y.2.t.H.s.f 5.IXv.6.=XLXLXfXN.[.].#.g 6.5.R.T.R.T.T.+XvXKXqXW.T.E.|.lXlXXXJ. XAXSXF 2 2 ",
"= : D 6XP.xX;X4XlX-XOX:X|.E.}.lX:X+XQ.y.y.Q.:Xy.5.4.$X$XLXLXhXLXKXH.d.qXwX5.3.d.+XE.>X2.w.$X+XGXnX/.^.;X:X;XXX-XXXK.4XP.6XD : - ",
"6 w @.P.VXZX-XOXH.;XNXcX|.T.y.u.&X&Xt.1.t.W.t.t.u.t.t.Q.GXfX(.uXeX>.8XGX5.w.y.Q.y.E.W.t.2.y.%X&Xu.T.Y..XcXcX;XW.K.;XbXSXL.@.w q ",
"xXU.BXFXBX4X-XoX:XNXNXMXcX#X+XQ.&XR.1.1.W.;XW.W.+Xt.y.t.R.rX3.J.J.>._.@X5.5.w.W.t.W.:XW.<.<.R.&XW.+X#XqXnXmXNX:X-X;X4XCXVXVXI.xX",
"VXVXVXVX6XzXmXMX:X:XcXnXnXvX+X|.y.<.7.1.;X:X|.+XQ.2.W.4./.KX3.f.s.s.vX@Xy.T.y.Q.W.+XNX:X1.7.6.y.|.:XvXnXnXcXcXNXmXmXbX6XxXVXVXZX",
"P.P.VXZXzXbXvXoXvXvX0XbXvXcX+XE.<.<.1.T.:X+Xt.y.y.y.t.H.0XvX_.>.>.H.vX}.y.T.w.Q.W.E.W.Q.T.5.<.7.E.|.cXnXnXeXvXvXoXcXbXzXBXBXU.P.",
"ZXCXbXeX}./.@X^.#XrXvXGXMXNX;X;Xt.t.W.+Xy.1.<.2.y.y.t.t.4.3.,.F +.%.1.,.,.<.2.y.1.<.1.t.;XW.H.t.OX;XnXMXAXnXrXqX/.}..X|.5XmXAXZX",
"CX4XoX XH.Y.~.~./.@XrXnXMXNX-XNX;X:X:Xu.2.7.2.2.t.#.m d d s ; ; + 0 r 0 r d g #.%.%.7.1.Q.;X;X;X-XcXbXnXnXrX@X/.[./.Y.Y.^. X4XzX",
"rX.X@X$XR.R.R.V.!.~.).0XcXcXxXxX;XNX:Xy.7.2.2.7.g t d t 0 + o o O   O O @ & r i g m m ,.t.;X;X;XzXlXbXcX0X)./.~.].`.R.`.@X.X3XeX",
"0X^.T.@XR.R.].pX).~./. XlXcXNXxXxX;X:Xu.2.2.2.i t r 0 d 0 O ; o O o O & 0 & e r u g +.m t.NXU.xXzXzXcX0X.X).(.[.pX`.`.R.R.E./.qX",
"!./.rXnX(.s.l.].1XV.b.N.~.rXZXU.U.xXlX{.H.5.#.i e 0 t d t ; e ; ; ; O ; r e r & e y g ,.K.lXxXxXU.mXcX/.`.b.`.1XV.v.a.!.nXqX!.^.",
"!.~.wXqXM.a.l.Z.C.V.].pX`./.lXzXxXmXmX:X|.H.%.f t e t t t + y p r ; O 0 t e e & e f %.H.|.cXxXlXxXlX/./.[.].N.C.Z.c.a.(.hXqX).).",
"M.~.8XwXN.d.m.Z.l.l.Z.aX[.l./.eXlXbXmXbXvX+X1.#.g d r t e O ; r e : O ; y 0 r r i #.t.oXcXcXbXzXcX/.x.`.pX'.l.B.Z.A.l.'.dX9XN.(.",
"M.(.<XdX2XA.Z.F.(.B.C.pXpX'.[.(.0XbXnXnXMXvX}.5.,.O.g g a ; ; 0 ; + 0 t d f g #.,.t.#XNXvXbXbXzX).`.[.1XpX(.l.N.F.A.m.].dX1XM.N.",
"B.B.2X1XC.m.A.m.wX<XdXdXpXpX].m..XqXqXvXvXNXNXNX;XH.1.,.,.,.+.f s F %.,.,.4.H.OXW.lXNXNXvXnXqX3Xc.].pX[.fXdX<XwXA.A.m.F.wX2XN.(.",
"(.!.(.'.m.j.j.a.,XwXhXdX'.N.C.z.~.).0XnXnXcXcX-X;X;XK.K. XcXs.3.>.H.lX;XH.{.|.NX-XNXNXnXnXrX[.!.c.V.V.(.dXhXwX,Xj.j.j.m.F.(.(.).",
"tX/.c.z.k.j.l.a.B.,XwX9XB.v.V.].(.~.).qXMXcX;XXXOX;XOX;XlXAXK. XJ.XXAXlXOXXXOX-X-X-XcXnXrX@X).~.].b.d.B.9XwX(.B.a.j.e.k.c.c.~.tX",
"cX).Y.v.v.c.`.N.B.l.(.1X(.z.].aX[.~.~.0XnXcX;XU.;XNXxX-XXXmXH.bXlX XlXlX-XlXOXlX;XoXcXMXqX~.`.1XpX[.m.~.wX~.d.J.C.C.z.v.c.~.).rX",
"7XBXlXXX0X_.KX'.B.l.a.n.F.F.Z.C.[.`.[. X#XmXxXXXXXxX5XbXAX3XJ.VXzXJ.).JXcX5XcXXXOX-XmXoX.X@XR.[.pXZ.A.A.n.j.z.N.M.KX~.#X#X5XzXBX",
"BXZX4XzX0XqXrXfXV.l.k.n.A.m.v.d.[.[.T.}.lXlX;X-XK.H. X4XJ.DXBXO.O.uXDXJ.3X XH.K.lXoXcXlXE.!.`.[.k.j.A.Z.Z.z.j.z.fXKXrX0XcX4XZXZX",
"7XyX7XPX5X0X).9Xm.j.j.z.m.l.d.a.c.!.Y..XmXlX;XxXZX4XeXuX,XSXg.: , ,XDX,XDXbX4XZXlXXXcXmX.Xd.Y.c.a.a.j.m.n.j.j.c.@X0X0XoXPX7XyXyX",
"F JXyX7XAXcX.XqXv.l.m.C.C.(.~./.Y.~.!.5XAXzXzXzX7XCXtXJXJX,Xp.w p -.iXJXJXtXCX7XbXzXzXZX0X!./.`./._.(.C.A.j.v.c.5X|.cXMX7XyXSXF ",
"- g.p 6 6XJX0XoXl.z.Z.wXwXwXrXrX$XqX).5XxXBXFXxXVXJX,XuXiXT V w p V T iXuXiXJXuX4XFXzX6X0X_.qX8XqXrXKXhXdX'.B.l.XXlXSX6X, p L.: ",
"* B X w yX7XZXK.Y.x.(.1XwXwX9XqX).3X4XCXP.xXxX@.C C a H A 7 Z M M A 4 V H p C s =.zXBX7XbX5X3X).0X8X9X<X<XM.x.c.K.FX6XVXw X B 1 ",
"* * B g.VXI.SXZX@X~.M.B.N.~._._.^..X6XFX7XVXP.w : > 2 V 7 5 G M M G 5 7 C 2 2 : w 7XZX4XFXeX XY..X(.d.d.d.d.!.8XzXAXL.uXg.V * < ",
"< < * = F VX7XzXnX8X!.M.M.M.~./.qX5XlXBXP.FXVX> X 7 2 A N 1 A N N A 3 7 V 4 8 X 6 VXSXL.ZX5XeXcX!.!.~.,X(._.3XbXxX7XVXF - * 3 1 "
};
