/* XPM */
static char *Sachiel[] = {
/* columns rows colors chars-per-pixel */
"64 64 166 2 ",
"   c #000407",
".  c #020609",
"X  c #0B0609",
"o  c #05090B",
"O  c #0A0D0D",
"+  c #120F0D",
"@  c #0E100F",
"#  c #15110E",
"$  c #19150F",
"%  c #0A0E11",
"&  c #0D1213",
"*  c #141513",
"=  c #191612",
"-  c #161A16",
";  c #1C1A15",
":  c #131619",
">  c #161A1B",
",  c #1C1E1A",
"<  c #211F16",
"1  c #211F1A",
"2  c #1E221C",
"3  c #22241D",
"4  c #26281E",
"5  c #29291E",
"6  c #191C20",
"7  c #1D2122",
"8  c #232621",
"9  c #262A23",
"0  c #292D25",
"q  c #232629",
"w  c #26292C",
"e  c #292D2C",
"r  c #2C3226",
"t  c #2C332A",
"y  c #343325",
"u  c #31372B",
"i  c #343C2D",
"p  c #3C3A2B",
"a  c #2A2D30",
"s  c #2F3231",
"d  c #303433",
"f  c #363D32",
"g  c #393F35",
"h  c #36393C",
"j  c #393C3F",
"k  c #450C0F",
"l  c #621312",
"z  c #422727",
"x  c #413E2D",
"c  c #3B412F",
"v  c #3C4432",
"b  c #3F4836",
"n  c #3E443A",
"m  c #47422E",
"M  c #454736",
"N  c #424935",
"B  c #4C4C34",
"V  c #444C3D",
"C  c #524D34",
"Z  c #495038",
"A  c #5A553B",
"S  c #5C553B",
"D  c #655D3E",
"F  c #3C3F42",
"G  c #3F4244",
"H  c #474E41",
"J  c #464848",
"K  c #475040",
"L  c #4B5344",
"P  c #4E5748",
"I  c #52534D",
"U  c #4B4E51",
"Y  c #4E5153",
"T  c #515355",
"R  c #535658",
"E  c #635C40",
"W  c #646144",
"Q  c #6C6443",
"!  c #6C674A",
"~  c #6B6B4A",
"^  c #736947",
"/  c #756C4B",
"(  c #7A6F4B",
")  c #7D734D",
"_  c #7C7652",
"`  c #606265",
"'  c #656769",
"]  c #67696B",
"[  c #6B6D6F",
"{  c #6D6F71",
"}  c #707274",
"|  c #7A7A7A",
" . c #A11C1A",
".. c #A91D1B",
"X. c #BB221E",
"o. c #C1241F",
"O. c #837A52",
"+. c #887D55",
"@. c #897F59",
"#. c #8B8057",
"$. c #8C835A",
"%. c #92865C",
"&. c #93895D",
"*. c #998D5F",
"=. c #958B60",
"-. c #9A8D61",
";. c #9B9164",
":. c #A39867",
">. c #A59A6A",
",. c #AA9C6B",
"<. c #ADA16F",
"1. c #ACA472",
"2. c #B4A672",
"3. c #B4A975",
"4. c #BCAD76",
"5. c #B5AD79",
"6. c #BCAF79",
"7. c #BCB37D",
"8. c #C2B27A",
"9. c #C9B87F",
"0. c #838587",
"q. c #87898A",
"w. c #909293",
"e. c #979797",
"r. c #9C9E9F",
"t. c #A19F9E",
"y. c #A5A6A8",
"u. c #AEAFB0",
"i. c #B5B3B2",
"p. c #BAB8B8",
"a. c #C4BC83",
"s. c #CCBD82",
"d. c #D1BF83",
"f. c #CEC085",
"g. c #CEC489",
"h. c #D5C286",
"j. c #D2C68A",
"k. c #D9C78A",
"l. c #D5CB8D",
"z. c #DCCB8D",
"x. c #DACE91",
"c. c #DCD193",
"v. c #DED39B",
"b. c #E1CE8E",
"n. c #E2D494",
"m. c #E9D594",
"M. c #ECD895",
"N. c #EBD999",
"B. c #F1DC9A",
"V. c #F4E09E",
"C. c #E0D6A1",
"Z. c #F7E3A1",
"A. c #FAE6A3",
"S. c #BEBFC0",
"D. c #C3C3C2",
"F. c #CCCCCB",
"G. c #D3D4D3",
"H. c #D8D7D7",
"J. c #D7D8D8",
"K. c #DCDCDC",
"L. c #DFE0E0",
"P. c #E3E3E4",
"I. c #E7E7E8",
"U. c #EDEDED",
"Y. c #F3F3F3",
"T. c #FFFFFF",
/* pixels */
"T.T.T.T.T.T.T.T.T.T.T.T.u.o           . G T.T.[ . G.T.T.T.T.T.T.T.T.T.T.U..     & T.T.T.T.T.T.q.          e T.T.T.T.T.T.T.T.T.T.",
"T.T.T.T.T.T.T.T.P.        5.c.c.c.x.x.7.@     & v %.r O   e.K.T.S.T       n v v 2   % U.    o   o : q q ,       & T.T.T.T.T.T.T.",
"T.T.T.T.T.T.T.    f.c.M.M.n.c.j.7.D D #.    t P ~ h.W c & & q     u v b N v V v v c 2     l.c.M.M.V.A.n.n.j.l.>.  T.T.T.T.T.T.T.",
"T.T.T.T.T.T.q 7 n.A.A.A.n.    :.D @     - 2 P b n.2.N L P Z u * > > c b V V m.2.v c c -   7.l.    M.m.m.l.j.7.;.  P.T.T.T.T.T.T.",
"T.T.T.T.T.T.  v.M.A.N.c.C.5.  E     ; 2 - 2 L r 8.^ v Z     o ) ,.p     v Z 8.,.N i ; - -     ;   l.l.a.l.=.&.5.o P.T.T.T.T.T.T.",
"T.T.T.T.T.T.  c.M.B.n.    a.E   $ $ $ < c v #.&.r B b   0 z.z.z.k.4.:.$.  V Z -.D 5 - 4 t - O O z.x.-     %.>.5.  P.T.T.T.T.T.T.",
"T.T.T.T.T.T.  c.M.M.      B O o 3 $ # # ; u <.<.S b v & z.B.A.Z.z.h.2.&.  i g O.Q u r 2 * ; y   1.3.      :.:.3.  T.T.T.T.T.T.T.",
"T.T.T.T.T.T.' > M.n.p     D   0 r $ $ # # # N W b b Z @ N.A.A.m.b.h.4.&.  u i u r r # $ - 3 5 .   ,.;   O <.;.%.  T.T.T.T.T.T.T.",
"T.T.T.T.T.T.T.  v.v.c.f.O.c   4 J O o $ = # 0 c N V Z % z.1 p b.z.  x =.  c u u _ 0 $ - ; ;   e % ~ <.<.>.;.&.C   T.T.T.T.T.T.T.",
"T.T.T.T.T.T.T.  f.n.v.1.W . # 5 T.t.  $ < 4 0 t v K V % h.  o z.z.    @.  i t &.;.4 3 ; = O . F.O   O.;.=.$.O.  K.T.T.T.T.T.T.T.",
"T.T.T.T.T.T.T.Y.  g.7.<.D   # O T.Y.|   3 5 3     v M - o k.b.k.4.,.D   r u 0 8.( 2 ; ; X   e.Y.>   O._ $.O.@.  T.T.T.T.T.T.T.T.",
"T.T.T.T.T.T.T.T.  $.3.g.D   # . T.T.Y.>   3 $ %.7.o f v     z.z.>.C   , u 0 4 ^ D ; ; #   i.T.T.    ^ Q $.+.  q.T.T.T.T.T.T.T.T.",
"T.T.T.T.T.T.T.T.K.  D >.D 2 +   T.T.T.T.p.  4 ; 4 # : v f c   k.-.  g u 0 9 4 y 2 $ =   D.T.T.T.    m D D D   T.T.T.T.T.T.T.T.T.",
"T.T.T.T.T.T.T.T.T.  m *.D 2 #   T.T.T.T.T.h   4 4 3 9 n v m   x.-.  u y 9 9 2 ; $ +   F.T.T.T.T.    o D D   J.T.T.T.T.T.T.T.T.T.",
"T.T.T.T.T.T.T.T.T.T.  B C * #   T.T.T.T.T.T.H.. . 4 9 r u r O     9 9 4 4 2 ; #     H.T.T.T.T.T.      D O   T.T.T.T.T.T.T.T.T.T.",
"T.T.T.T.T.T.T.T.T.T.T.    4 ;   T.T.T.T.T.T.%       u 4 ; 1 8 * 1 3 1 3 3 ;         P T.T.T.T.T.o & ,     U.T.T.T.T.T.T.T.T.T.T.",
"T.T.T.T.T.T.T.T.T.T.T.T.8 u 2 o T.T.T.T.T.T.  j..   7 r =     k     @ o 4 ;       4.  T.T.T.T.T.  0 t =   T.T.T.T.T.T.T.T.T.T.T.",
"T.T.T.T.T.T.T.T.T.T.T.T.2 v 3   T.T.T.T.T.T.  M.d.      o   X o...z   o o       s.3.  T.T.T.T.T.  u 2 #   T.T.T.T.T.T.T.T.T.T.T.",
"T.T.T.T.T.T.T.T.T.T.T.T.- 2 3   T.T.T.T.T.T.  A.k.s.9.B.N.. o.o.X. .  O   8.b.m.3.3.  T.T.T.T.T.  t =   K.T.T.T.T.T.T.T.T.T.T.T.",
"T.T.T.T.T.T.T.T.T.T.T.T.@ f t O e T.T.T.T.T.% , M.O.! > % : l .  .    0 + o / &.O.* 7 T.T.T.T.T.  t =   P.T.T.T.T.T.T.T.T.T.T.T.",
"T.T.T.T.T.T.T.T.T.T.T.T.  V i ;   T.T.T.T.T.>   x.O.> + 0   . o k       = + O +.D   F T.T.T.T.Y.  t # O T.T.T.T.T.T.T.T.T.T.T.T.",
"T.T.T.T.T.T.T.T.T.T.T.T.J o g ;   T.T.T.T.0.O   d.%.    o >.        s.2.  .   ( D   % 0.T.T.T.T.& t #   T.T.T.T.T.T.T.T.T.T.T.T.",
"T.T.T.T.T.T.T.T.T.T.T.T.T.  v 3   T.T.T.T.  f.( M d.,.s.d.(   ; 4 O   =.s.,.*.D y D Q   T.T.T.T.  8 *   T.T.T.T.T.T.T.T.T.T.T.T.",
"T.T.T.T.T.T.T.T.T.T.T.T.T.  N 3   T.T.T.O I x     %.s.      ; 0 r ; o     . ( S *   p 4 % T.T.T.  3 X j T.T.T.T.T.T.T.T.T.T.T.T.",
"T.T.T.T.T.T.T.T.T.T.T.T.T.U o ;   Y.T.T.    U Y.v . 6.% 8 ; u n t 9 3 3     / O U., J     T.T.T.  ,   U.T.T.T.T.T.T.T.T.T.T.T.T.",
"T.T.T.T.T.T.T.T.T.T.T.T.T.Y.  4   Y.T.T.T.T.T.T.Y.t   7   3 g H V 9 0 1 o     T T.T.T.T.T.T.T.T.  =   T.T.T.T.T.T.T.T.T.T.T.T.T.",
"T.T.T.T.T.T.T.T.T.T.T.T.T.T.  4   Y.T.T.T.T.T.]         ; 2 n Z V 9 0 , 2     X   T.T.T.T.T.T.U & ;   T.T.T.T.T.T.T.T.T.T.T.T.T.",
"T.T.T.T.T.T.T.T.T.T.T.T.T.T.  8   L.T.T.T.T.{   : 9 V t 8 2 ; d H e > ; 3 r 2 r >   T.T.T.T.T.  t ,   T.T.T.T.T.T.T.T.T.T.T.T.T.",
"T.T.T.T.T.T.T.T.T.T.T.T.T.T.  f % , T.T.T.T.    V P t 3 3 = 9 0 4 , 3 ; # t 0 t t   d T.T.T.T.  t   e.T.T.T.T.T.T.T.T.T.T.T.T.T.",
"T.T.T.T.T.T.T.T.T.T.T.T.T.T.  V ,   T.T.T.T.  o P t 3 # ; , 3 9 3 1   , # , t t t :   T.T.T.T.  0   T.T.T.T.T.T.T.T.T.T.T.T.T.T.",
"T.T.T.T.T.T.T.T.T.T.T.T.T.T.  L 3   T.T.T.T.  d f 8 ; # , 6             ; # 2 8 3 0   T.T.T.T.  t   T.T.T.T.T.T.T.T.T.T.T.T.T.T.",
"T.T.T.T.T.T.T.T.T.T.T.T.T.T.  n ,   T.T.T.T.  u t 2 ;   3   T.q   : Y.  ; o # , , 0   T.T.T.T.  0   T.T.T.T.T.T.T.T.T.T.T.T.T.T.",
"T.T.T.T.T.T.T.T.T.T.T.T.T.T.[ & ,   T.T.T.T.  t , ; > o 3   T.T.T.T.T.  = o O ; ; *   T.T.T.T.  8   T.T.T.T.T.T.T.T.T.T.T.T.T.T.",
"T.T.T.T.T.T.T.T.T.T.T.T.T.T.T.& 0 > T.T.T.T.6 * ; ;     2   T.T.T.T.T.  ;     * =     T.T.T.T.o 4   T.T.T.T.T.T.T.T.T.T.T.T.T.T.",
"T.T.T.T.T.T.T.T.T.T.T.T.T.T.T.  t   T.T.T.T.K.  = 9     ;   T.T.T.T.T.  =     9 0 o 0.T.T.T.T.o ,   T.T.T.T.T.T.T.T.T.T.T.T.T.T.",
"T.T.T.T.T.T.T.T.T.T.T.T.T.T.T.  g   T.T.T.T.T.  t   s.  ;   T.T.T.T.T.  =   %.  : U.T.T.T.T.Y.  >   T.T.T.T.T.T.T.T.T.T.T.T.T.T.",
"T.T.T.T.T.T.T.T.T.T.T.T.T.T.T.  v   Y.T.T.T.T.o   @.d.  ;   T.T.T.T.T.  ;   $.(   T.T.T.T.T.T.  ,   T.T.T.T.T.T.T.T.T.T.T.T.T.T.",
"T.T.T.T.T.T.T.T.T.T.T.T.T.T.T.  n   Y.T.T.T.T.o o s.:.  ;   T.T.T.T.T.  =   @.-.o o T.T.T.T.T.  ,   T.T.T.T.T.T.T.T.T.T.T.T.T.T.",
"T.T.T.T.T.T.T.T.T.T.T.T.T.T.T.  V   P.T.T.T.o   9.,.Q   ;   T.T.T.T.T.  = o @.( @.  o T.T.T.T.O 2 & T.T.T.T.T.T.T.T.T.T.T.T.T.T.",
"T.T.T.T.T.T.T.T.T.T.T.T.T.T.T.  V   K.T.T.T.  8.,.Q     ,   T.T.T.T.T.  3 X   ^ ) )   T.T.T.T.G 3   T.T.T.T.T.T.T.T.T.T.T.T.T.T.",
"T.T.T.T.T.T.T.T.T.T.T.T.T.T.T.  V   F.T.T.G.- 2.D   p   o ` T.T.T.T.T.` o X o   ^ ) * F.T.T.U.> 8   T.T.T.T.T.T.T.T.T.T.T.T.T.T.",
"T.T.T.T.T.T.T.T.T.T.T.T.T.T.T.  t , 6 P.T.j S m   ^   %   T.T.T.T.T.T.T.  *   ^   x p d T.T.] 2 9   T.T.T.T.T.T.T.T.T.T.T.T.T.T.",
"T.T.T.T.T.T.T.T.T.T.T.T.T.T.T.6 t t & Y T.q Q   E   o =   T.T.T.T.T.T.T.  = X   0   A > T.T   , ;   T.T.T.T.T.T.T.T.T.T.T.T.T.T.",
"T.T.T.T.T.T.T.T.T.T.T.T.T.Y.o o e , , o T.w & x   : =   } T.T.T.T.T.T.T.} & #   . x o , T.o # = , o   Y.T.T.T.T.T.T.T.T.T.T.T.T.",
"T.T.T.T.T.T.T.T.T.T.T.T.T.  L # # # #   T.r.    2 , #   T.T.T.T.T.T.T.T.T.  = *       r.T.  * = 3 ; ,   T.T.T.T.T.T.T.T.T.T.T.T.",
"T.T.T.T.T.T.T.T.T.T.T.T.R   g o     O   T.T.|   t + s > T.T.T.T.T.T.T.T.T.> ; O #     T.T.  *     o ;   R T.T.T.T.T.T.T.T.T.T.T.",
"T.T.T.T.T.T.T.T.T.T.T.T.  P +   T.T.    T.T.  7 #   T.T.T.T.T.T.T.T.T.T.T.T.i.  # . K.T.U.&   D.T.  + 1   T.T.T.T.T.T.T.T.T.T.T.",
"T.T.T.T.T.T.T.T.T.T.T.T.  g   Y.T.T.    T.T.  t #   T.T.T.T.T.T.T.T.T.T.T.T.Y.  # # . T.H.a   T.T.P.  ;   T.T.T.T.T.T.T.T.T.T.T.",
"T.T.T.T.T.T.T.T.T.T.T.T.  #   T.T.T.T.T.T.T.  0 #   T.T.T.T.T.T.T.T.T.T.T.T.T.  # #   T.T.T.T.T.T.T.  =   T.T.T.T.T.T.T.T.T.T.T.",
"T.T.T.T.T.T.T.T.T.T.T.T.  ,   T.T.T.T.T.T.T.  0 #   T.T.T.T.T.T.T.T.T.T.T.T.T.  , #   T.T.T.T.T.T.T.  #   T.T.T.T.T.T.T.T.T.T.T.",
"T.T.T.T.T.T.T.T.T.T.T.T.y.  T.T.T.T.T.T.T.T.  0 #   T.T.T.T.T.T.T.T.T.T.T.T.T.  ; #   T.T.T.T.T.T.T.T.  r.T.T.T.T.T.T.T.T.T.T.T.",
"T.T.T.T.T.T.T.T.T.T.T.T.T.T.T.T.T.T.T.T.T.T.  9 #   T.T.T.T.T.T.T.T.T.T.T.T.T.  , #   T.T.T.T.T.T.T.T.T.T.T.T.T.T.T.T.T.T.T.T.T.",
"T.T.T.T.T.T.T.T.T.T.T.T.T.T.T.T.T.T.T.T.T.T.  9 + o T.T.T.T.T.T.T.T.T.T.T.T.T.o ; #   T.T.T.T.T.T.T.T.T.T.T.T.T.T.T.T.T.T.T.T.T.",
"T.T.T.T.T.T.T.T.T.T.T.T.T.T.T.T.T.T.T.T.T.T.  0 * o T.T.T.T.T.T.T.T.T.T.T.T.T.o ; #   T.T.T.T.T.T.T.T.T.T.T.T.T.T.T.T.T.T.T.T.T.",
"T.T.T.T.T.T.T.T.T.T.T.T.T.T.T.T.T.T.T.T.T.T.  9 +   T.T.T.T.T.T.T.T.T.T.T.T.T.  , #   T.T.T.T.T.T.T.T.T.T.T.T.T.T.T.T.T.T.T.T.T.",
"T.T.T.T.T.T.T.T.T.T.T.T.T.T.T.T.T.T.T.T.T.T.  0 #   T.T.T.T.T.T.T.T.T.T.T.T.T.  3 #   T.T.T.T.T.T.T.T.T.T.T.T.T.T.T.T.T.T.T.T.T.",
"T.T.T.T.T.T.T.T.T.T.T.T.T.T.T.T.T.T.T.T.T.T.  9 #   T.T.T.T.T.T.T.T.T.T.T.T.T.  3 +   T.T.T.T.T.T.T.T.T.T.T.T.T.T.T.T.T.T.T.T.T.",
"T.T.T.T.T.T.T.T.T.T.T.T.T.T.T.T.T.T.T.T.T.T.  9 #   T.T.T.T.T.T.T.T.T.T.T.T.T.  3 #   T.T.T.T.T.T.T.T.T.T.T.T.T.T.T.T.T.T.T.T.T.",
"T.T.T.T.T.T.T.T.T.T.T.T.T.T.T.T.T.T.T.T.T.T.  0 #   T.T.T.T.T.T.T.T.T.T.T.T.T.  3 +   T.T.T.T.T.T.T.T.T.T.T.T.T.T.T.T.T.T.T.T.T.",
"T.T.T.T.T.T.T.T.T.T.T.T.T.T.T.T.T.T.T.T.T.w % 3 # % T.T.T.T.T.T.T.T.T.T.T.T.T.% , 2   w T.T.T.T.T.T.T.T.T.T.T.T.T.T.T.T.T.T.T.T.",
"T.T.T.T.T.T.T.T.T.T.T.T.T.T.T.T.T.T.T.T.I.  8 =   J.T.T.T.T.T.T.T.T.T.T.T.T.T.J.  , #   P.T.T.T.T.T.T.T.T.T.T.T.T.T.T.T.T.T.T.T.",
"T.T.T.T.T.T.T.T.T.T.T.T.T.T.T.T.T.T.T.T.  8 #   > T.T.T.T.T.T.T.T.T.T.T.T.T.T.T.>   , #   T.T.T.T.T.T.T.T.T.T.T.T.T.T.T.T.T.T.T.",
"T.T.T.T.T.T.T.T.T.T.T.T.T.T.T.T.T.T.T.  3 o o w.T.T.T.T.T.T.T.T.T.T.T.T.T.T.T.T.T.w.  % #   T.T.T.T.T.T.T.T.T.T.T.T.T.T.T.T.T.T.",
"T.T.T.T.T.T.T.T.T.T.T.T.T.T.T.T.T.T.T.    o Y.T.T.T.T.T.T.T.T.T.T.T.T.T.T.T.T.T.T.T.T.o     T.T.T.T.T.T.T.T.T.T.T.T.T.T.T.T.T.T."
};
