/* XPM */
static char *a9eef34c6ecd439dce121563e228da7cndapEs7atdc1OY95[] = {
/* columns rows colors chars-per-pixel */
"64 64 256 2 ",
"   c #080208",
".  c #0C0A15",
"X  c #140C17",
"o  c #191319",
"O  c #13060D",
"+  c #211A1B",
"@  c #181726",
"#  c #161C3A",
"$  c #070C33",
"%  c #221C27",
"&  c #1D2335",
"*  c #28242B",
"=  c #332927",
"-  c #262637",
";  c #373639",
":  c #332E35",
">  c #27221F",
",  c #423B3A",
"<  c #48403B",
"1  c #1A1756",
"2  c #100D4E",
"3  c #1B2747",
"4  c #1B2A57",
"5  c #182C5A",
"6  c #242A47",
"7  c #3A3A45",
"8  c #252A56",
"9  c #273557",
"0  c #333957",
"q  c #2A334E",
"w  c #171266",
"e  c #241469",
"r  c #372C6A",
"t  c #283865",
"y  c #363666",
"u  c #382A76",
"i  c #333471",
"p  c #23265B",
"a  c #423779",
"s  c #423C6C",
"d  c #463E52",
"f  c #3A4559",
"g  c #374367",
"h  c #3A4974",
"j  c #2C4170",
"k  c #484548",
"l  c #544C4D",
"z  c #5A5356",
"x  c #4D4B56",
"c  c #635B5B",
"v  c #69635E",
"b  c #465469",
"n  c #4A487A",
"m  c #465577",
"M  c #505173",
"N  c #625C64",
"B  c #5C6271",
"V  c #686368",
"C  c #696A76",
"Z  c #736D74",
"A  c #777478",
"S  c #726A66",
"D  c #877D7C",
"F  c #7D837F",
"G  c #443883",
"H  c #4B488A",
"J  c #5A5687",
"K  c #525289",
"L  c #635896",
"P  c #58688B",
"I  c #5D6C92",
"U  c #646888",
"Y  c #777782",
"T  c #666895",
"R  c #6B7592",
"E  c #6555A4",
"W  c #644CA2",
"Q  c #7171A4",
"!  c #5F52A1",
"~  c #3C2A80",
"^  c #847E90",
"/  c #7A8798",
"(  c #7782A5",
")  c #87848A",
"_  c #8A8A96",
"`  c #97959B",
"'  c #928F93",
"]  c #A39B9B",
"[  c #999AA3",
"{  c #8D90B3",
"}  c #A29EAB",
"|  c #98A2AF",
" . c #A6A7A9",
".. c #ACABB4",
"X. c #B6B5B9",
"o. c #B6B0AC",
"O. c #B0B19F",
"+. c #C6B7BB",
"@. c #C3B1B5",
"#. c #C9C6BA",
"$. c #D3CCBD",
"%. c #D6CCB8",
"&. c #D9D3BC",
"*. c #C9D6BD",
"=. c #E4D9BE",
"-. c #999AC2",
";. c #BBBBC5",
":. c #B9B9D5",
">. c #AAB1CB",
",. c #B8BAEB",
"<. c #92A2C4",
"1. c #C4ACC7",
"2. c #C6B2CA",
"3. c #C4BCCC",
"4. c #CBBBCC",
"5. c #C8B7C6",
"6. c #D6BCC9",
"7. c #C4BCD3",
"8. c #CCBAD3",
"9. c #D3BBD7",
"0. c #CDAFD1",
"q. c #BBCAD8",
"w. c #BDCDD0",
"e. c #BDC9E7",
"r. c #CBC4C4",
"t. c #C5C4CB",
"y. c #CBC4CC",
"u. c #CBCBCC",
"i. c #C7C9C6",
"p. c #D3CCC4",
"a. c #D3C4CB",
"s. c #D9C4CC",
"d. c #D4CBCC",
"f. c #DACDCC",
"g. c #D6C7C4",
"h. c #CAD5C9",
"j. c #D5D2C3",
"k. c #DBD5C4",
"l. c #DDDAC5",
"z. c #D4D3CC",
"x. c #DBD3CC",
"c. c #D3DBCC",
"v. c #DCDBCC",
"b. c #D6DCC6",
"n. c #C5C3D3",
"m. c #CCC4D3",
"M. c #C5CBD4",
"N. c #CCCCD4",
"B. c #CCCCDA",
"V. c #C9C7DA",
"C. c #DBC4D3",
"Z. c #D3CBD4",
"A. c #DBCDD3",
"S. c #D3CBDC",
"D. c #D7C6D9",
"F. c #C5D4D4",
"G. c #CDD2D5",
"H. c #CCD4DB",
"J. c #CCDBDD",
"K. c #C6D9D7",
"L. c #D4D4D4",
"P. c #DBD4D3",
"I. c #D3DCD4",
"U. c #DCDBD4",
"Y. c #D3D4DB",
"T. c #DBD4DD",
"R. c #D4DBDB",
"E. c #DADBDB",
"W. c #E3CBCC",
"Q. c #E3DCC4",
"!. c #E3DCCC",
"~. c #E7D9C9",
"^. c #E4CDD5",
"/. c #E2D3D3",
"(. c #E3DCD3",
"). c #EADCD3",
"_. c #E4DDDB",
"`. c #E8D7DA",
"'. c #F3D9D3",
"]. c #DAE2CC",
"[. c #CEE2D8",
"{. c #DCE2D4",
"}. c #D5E2DC",
"|. c #DCE3DC",
" X c #D9E5D8",
".X c #E5E2CC",
"XX c #EAE3CC",
"oX c #EAE5C9",
"OX c #F3E8CD",
"+X c #E4E2D4",
"@X c #EBE4D4",
"#X c #EDEAD5",
"$X c #E3E3DB",
"%X c #ECE4DB",
"&X c #E5EBDC",
"*X c #ECEBDC",
"=X c #E5E9D4",
"-X c #F2EBD4",
";X c #F3ECDB",
":X c #F6E8D7",
">X c #F6F1DD",
",X c #FBF2DA",
"<X c #E9F0DF",
"1X c #C9CBE5",
"2X c #D6CCE3",
"3X c #CBDBE4",
"4X c #CBDBEB",
"5X c #C8D7E6",
"6X c #D4D5E2",
"7X c #DBD4E3",
"8X c #D3DBE3",
"9X c #DBDCE3",
"0X c #D3DDEA",
"qX c #DCDBEA",
"wX c #D9D5EB",
"eX c #CBDBF4",
"rX c #D5DAF6",
"tX c #CBCCF2",
"yX c #E2DCE3",
"uX c #E4D8E8",
"iX c #EBD8EA",
"pX c #CEE3EB",
"aX c #CAE1E6",
"sX c #D5E3E4",
"dX c #DCE3E4",
"fX c #D4E3EB",
"gX c #DAE3ED",
"hX c #DDECEB",
"jX c #D9EAE7",
"kX c #D4E4F3",
"lX c #DCE4FD",
"zX c #DCECFC",
"xX c #D8E8F5",
"cX c #DAF2F8",
"vX c #CAE0F5",
"bX c #E3E3E4",
"nX c #EBE4E3",
"mX c #ECEBE3",
"MX c #E3E4EA",
"NX c #EBEBEC",
"BX c #E5EAE7",
"VX c #F4ECE3",
"CX c #F8ECE8",
"ZX c #EAF0E6",
"AX c #FBF4E3",
"SX c #F8F4E6",
"DX c #ECEBF2",
"FX c #E5E9F7",
"GX c #ECF2F5",
"HX c #E9F5FD",
"JX c #F3F2F5",
"KX c #F4F5FB",
"LX c #FBFBFE",
"PX c #F6F7F9",
"IX c #F4EFF4",
"UX c #BDCEBC",
/* pixels */
"e w 2 1 R vXaXaX4X5X1X7.7.7.m.N.5X5XeXcX3XcXpX- 2 s a L r 0 { { { Q K a J a a 2 q kXxX4XfXjXG.R.V.V.y.3.n.N.Y.E.aXvXeXI 5 2 w w ",
"2 2 G ,.vXe.cXcXB.n.7.8.V.V.B.N.5X5X3XpXq.vXaXh 9 y 8 a a { -.-._ >.:.-.L p r r h 5X0XH.fX8XG.G.B.S.S.m.4.y.N.N.kXcXeXvX,.H 2 2 ",
"2 H $ i lXeXkXH.m.7.7.D.wXqX9XY.H.8XH.pXaX4XkX{ ^ T M ^ -.tXg # 3 6 r -.-.Q L K [ 5XaXe.xXH.3XB.9X9XyX`.Z.4.4.4.q.xXvXvXj 2 G 2 ",
"1 ,.n 9 vXzXH.H.4.2.8.2XiXqXwXR.G.L.F.3XaXfXlX1XtXwXlXIXtXe.& 3 6 3 6 7.rXeXtXlXK.fXpX3XxXM.6XB.9XE.yXuX`.C.6.4.4X4XzXeX3 n ,.e ",
"T FXvXeXzXkXH.8X5.1.2.D.D.V.V.N.d.u.w.G.fX0XrXgXqXgXFXgX1X{ # 9 8 3 6 :.wXKXkX3XhX[.aX3X4X;.B.N.c.z.f./.`.C.5.@.0X0XvXxXeXeXlXR ",
"4XeXpXcX5X8X8X6X5.1.2.0.0.2.3.3.f.d.#.N.0X8XR.0XdXR.h.R.HX..3 q g # & 8X6XG.w.}.}.K.3X3XB.;.Z.A.j.g.W.W.^.6.5.5.2X0X4X5XHXeXe.e.",
"xXcXe.aX3X9XMXuX4.2.0.0.9.9.4.a./.f.Z.Y.9XdXR.R.h.b.c.P.R.;.0 m >.0 $ M.jX XUXh.c.h.R.sXG.Y.x.).Q.&.W.^.W.6.2.4.9XFXaXaXaXaXcXpX",
"4XpXaXK.jXM.uXS.8.2.2.0.9.9.C.C./.A.A.S.6XdXI.h.*.].=X&XE.Y.& q 9 # 6 M.h. X].*.h.}.R.MXY._.W.~.~.~.'.~.W.@.1.6.D.DXq.aXK.aXpXaX",
"FXN.3.2.1.0.9.9.:.7.B.6XS.y.s.`.g.d.U.|.|. X[.h.].<XU.%XyX6X& _ _ 0 % F.L.|.[.{. XU.$X&X=XQ.k.=.=.~.~.U.L.M.n.7.0.9.0.1.1.y.Y.qX",
"Y.7.4.8.1.;.0.0.7.B.qXS.4.5.6.W.f.Z.T.|.&X X].c.].+XVX$XbXX.X n.4X7 .  .E.I.z.{.{.$X%X*XXXQ.Q.Q.'.~.k.r.N.wX2X7.0.7.0.1.4.3.y.9X",
"n.7.9.9.0.1.0.1.V.qXMX7Xa.8.6.6.A.T.E.$XZX<X X].@X.XVX/.CXz   qXDX7   Y bX_.v.@X!.%X>X-X~.~.~.oX:X'.d.r.Y.uXqXB.;.1.@.9.D.4.3.B.",
"m.8.2XiX2X0.0.0.B.2XwX2X7X`.A.6.Y.T.R.|.&X<X=XoXVX;X'.iXIXo : Y.7Xf . k E.%X@X:X-X,X:XXXoXoXXXXX^.'./.`.yX9XS.V.0.0.0.9.7XD.3.m.",
"m.8.2XuX2X9.9.9.7.3.m.2X`.D.Z.a.Y.E.|.|.{.=X#X-X).).).CXo.o l N.yXC X : z.@X@X:X,X:XOX=.oXOX#XXX/.a.d.`.`.y.;.y.6.C.C.D.uX2XD.3.",
"m.V.2XwXS.9.9.^.5.5.s.^.Z.t.y.E.I.E.|. X{.].#X;X~.).:X%Xz , k  XGX` . : _.*XOXOX,X:XoX=.oXOX=X.XbXu.+.y.A.a.5.4.W.^.f.y.T.uXS.7.",
"N.N.yX9Xm.3.9.D.C.C.C.s.Z.Z.H.sXK.[.].c.c.b.!.@XCXCXCXo.= v N PXNXi.o * a.;X:XOX:XOX~.oXOX=X=X}.jXI.N.d.A.W.W.W.^.f.r.u.Y.wXV.8.",
"t.N.9X9Xt.5.9.^.iX^.6.5.Z.dXsXK.c.h.h.i.h.j./.~.AX:X+.z : l F GXZXPX% . ` ).AX,X:X~.oXOXoX].].[.F.sXbXP.W.^.'.'.).g.+.u.9X6XV.B.",
"5X1XB.u.d.P.A./.A./.P.U.|. XsXsXsXG.h.c.o.#.x.U.iXCXl ; k S DXLXPXdXt.V : ] nXSX%X@XXX.X%.XX$..X{.].+X+X#X(.!.k./.p.p.L.H.M.F.3X",
"4X8XJ.L.L.d.a.a.Z.d.x.P.U.R.}.dX}.I.b.h.O.#.z.@.`.k < < z t.DXFXI.i.u.` Z = c -X/.AXXXl.&..Xb.#X$X$X+X+X(.v.p.$.P.p.u.G.G.H.3X8X",
"3X3XF.F.t.N.Z.L.a.f.U.U.$X XBXjX}.dX=X&.o.#.x.) k = = V ` X.X.;... .) z ] l l c ' ~.k.k.&..X@X>X=X=X$X$X_.P.L.Z.T.Z.n.t.M.H.3X0X",
"cXhXaXJ.H.G.B.H.L.P.E._.$XdX|.|.I.$X&X].&.$.+.l % k Z ' ' ' ] X.;.}.u.C ^ z S , , &.$..X#XoX+X+X+X.X=X$X$XyXyX9XM.B.H.6X0XgXxXgX",
"q.[.aXfXsX8XJ.H.L.L.U.E.U.c.c.z.i.*.].oX>Xx.] + X 7 V X.X.Y.LXLXGXPXPXE.yX^ c , = ~.!.;X>X!.l.$.].b.{.{.$X9XbXyX8X0XgXfXfXfX5Xq.",
"cXpXpXpXpXsXsXsXL.I.I.P.L.z.j.j.$.#.$.oXAX#XD   x z C iXP.NXLXGXBXGXKX7XLX+.k c = ~.;X:XXX&.j.j..X].b.].|.dXdXdXFXfXfXaX4XfXkXxX",
"pXpXkXxXfXsX}.}. XE.E.R.P.v.v.j.j.#.&.%.:XCXS O Y - } KXA E.Y.dXPXMXR.C X.iXZ v = $.%X!.j.j.U.#XoX].b.].{.|. XK.aXJ.[.pXpXpX5X5X",
"b / | q.kXhXJ.h.I.R.I.R.U.P.!.!./.k.%.@.k.CXS + - C  .PXA  .} X. .Y n.V ` T.D c = +.%XXX$.k.#XCX].].&.*.].}.I.h.K.K.jXcXq./ g q ",
"4 8 Q 3XsXw.[.K.[.[.[.c.h.c.$XmX%X%X!.&.l.d.z X % Y D.yX..y.Y.MXFX8XyXn. .NX_ z * U.%X(.;X:X).%X%Xx.u.u.R.|. X[.F.R.0XlXtXU 8 1 ",
"t r R fXGXK.[.h.K.h.[.c.c.c.E.bX@X@X@X!.:X_.N o @ Y Y.DXL.MXMXLXNXLXKXDXY.MX) l = _.AX@X*X@X!.).(.(.P.L.Y.I.[.c.}.G.Y.xXlXT t r ",
"u r n 5X8Xh.h. X X[.h.h.h.u.L.E.(.(.!.!.%X_.N O X Y S.JXNXLXJXKXLXFXNXLXIXMX` * + v.VX#X!.k.k.(./._._.L.h.i.h.c.].i.H.rXrXK r i ",
"W W Q lXgXsXc.jX X[.i.UXz.bXNXNXnX(.!.k.v.P.c . X Y 9XDXIXLXDXJXKX[  .H.DXuX .; * p.$X!.~.Q.!.!.(.@X+Xz.p.j.b.].].UX|.gXFXT K E ",
"~ G L tXiXDXL.c.I.}.}.L.L.I.L.z.mX_.+X+Xv.P.V X @ ) DXIXJXKXJXLX0XX..._ bXMX` Z < +X#XXX#X#X@X!.(.(._.v.{.$X=X=X=Xz.bXwXrXL H u ",
"u u a -.,.FXdXG.R.jXdXM... .o.X.Z.d.+X%XU.P.V O @ Y IXKXJXKXKXLXY.N.MX` X.9X..' v VX*X*X-X;X:XQ.l.!.+X_.nXCX*X$XmX$XPXwX,.a r e ",
"W E H Q } :.B.sXG.H.t... .o.#.j.r.+.z.+Xv.P.V   @ Y FXKXJXKXPXyX;.` t.n.' _.d.' v VXSX>X-X-X>X!..X+Xv.r.#.d._.bX$Xu.D.>.-.K L E ",
"u G a a J U | G.8XG.;...X.P.].j.T.i.z.U.v._.A o - Y DXKXKXPXIXy.n.[ [ KXX.NXX.^ z *XSXAX-X-XAX-X-X#Xj.o.`  .y.bXU.) x d a r G u ",
"u G a a b f / w.Y.N.X...X.L.=Xv.'.XX~.~.OX'.D O * Y BXPXPXmXX.t.B.X...MXLXhX;.' c PX;X>X,X>X%XCXnXIXyX} _ >.H.3XfX/ 0 g n a a u ",
"W E W T { q.aX[.8XK.;.[ ] #.#XAX).:X:X:X>X:X] O - ) MXNXr...` X.DX..X.NXDXPXi...z SXAXAXAXAXCXCXPX_.X.' ' >.H.8Xw.H.q.{ T H W W ",
"u u r { 7.lXaXF.H.dXMXY.i.p.k.l.:X:X>X,XAXCXo.o - ) G.u. . .X.DXKX[ dXPXGXPX..` : *XVX>X;XAX%XVXz.X.X.;.H.gXfXaXaXhXzX1X{ a r u ",
"r a L tXlXgXK. XL.dXbXE.L.U.&XAX;X:X:XOX-X@Xo.X @ A o.X.X.L.NXLXM.' LXGXLXBX| z o U.;X#X.X-X).nX*X+XU.E.R.R.sXhXhXaX4XzXtXQ H H ",
"H L ^ IX0XsXK. X XI.u.u.p.U.*XAXCX).OX!.!.@Xr.o X ` t.E.$XJXbXt.[  .GXGXGXhX .q + _.CX;X.X:X@X;XVXZX=Xz.i.w.I.hXK.aXgXzXrX{ Q E ",
"s d L 2XJ.h.h.h.|. XL.|.|.+Xl.k.@XQ.XXQ.k.(.P.o - N.NXPXIXBXt...[ hXKXLXKXFX[ - * nXSXAX@X:X%XVXl..X.X].c.].}.}.}.h.J.9X4XJ i H ",
"s 0 U uXGX[.[.].{.c.c.U.E.+X#X;X%Xk.OXXX.X=XnXo : NXMXJXdXu.X.t.F.LXKXFXHX>.B & * _.SX>X-X,X%X;X,X-XXX].].{.}.I.BXi.G.hXFXJ y i ",
"B R >.qXsXh. X*. X{.{.$Xv.j.j.!.>X@XAX>X-XVXIX% 7 KXMXPXPXL.u.PXHXKXFX .rXC 0 6 % T.%X>X>XAX:XAXOX~..XoXoX].{.$XI.[.E.R.yXU 8 1 ",
"U R | F.hXsX[.[.c. X|. Xj.#.z.*X,X,X,XOX,XAXnX+ ; mXDXIXKXLXFXGXHX>.R b f q q 6 & [ GXVX>X-X>X*X;X+X.X=X#X+XU.$Xv.=X&XBXH.[ M 8 ",
"rX0X0XxXxX}.h.h.}.}.|.$X|.{.$XmX:X,X,XOX,X:X%X+ k JXbXLXFXFXFXHX| P f q 3 9 0 6 & _ NX&X.X.X<XSXmX<X=X<XmX=X|.|.|. X}.dXhXkXeXeX",
"xXkX0X8X8X}. X|. XR.E.&XmXmX&X#X-X,X,XOX:X@X`.+ 7 HXK.HXHXHXH.Y h j 5 9 g m h 9 & Y nX+Xk.$.k.=X|.BX<XjXBXBXjX|.BX}.sXjXaXpXlXzX",
"gXgX8X8XR.8X|.}.dX|.|.&X*X=X+X!.-X:XOXXXOX/.P.o - ;.{ HXFX{ P 3 f 3 5 t h P g 3 # C nX*XQ.%.#.#.[. X<XjXhXZXNXdXsXH.sXhXaXaXaXq.",
"gXgXgX8XY.Y.N.y.dXbXmXnX{.(..X=XOXoXoX=.~.x.d.X @ / / q.( 5 5 j 5 5 t t j h 9 2 & C nXSX>X.Xj.p.K. XhXhXDXGXGXhX0XF.G.3XK.pXhXpX",
"J.H.N.N.n.y.Z.Z.G.R.|.E.v.v..XXX-XoX=.&.~.p.Z.X $ B f b 3 5 t 5 5 t t 5 5 5 3 4 & B bXVX-X>X&X*X[. X<XhXdXMXdX|.DXY.M.M.w.M.3X[.",
"dX8XY.G.Z.m.D.S.M.u.L.z.v.+XXX.XoX=.=.%.j.p.Z.@ 9 3 5 5 5 j 5 5 5 5 5 5 j 5 # 3 - N dX#X.X>X>XSX|.|.jXdXR.L.z.P.yXyXT.S.6XY.Y.dX",
"L.F.G.7XS.8.D.uXN.u.i.z.$XVX#X.XoX=.&.%.$.p.T.- # q P t 5 m 5 j t i i m I P 9 3 & B BX&Xl.;X*X*XZX&X$XbX`.Z.d././.iXuX7XwX2XM.9X",
"u.r.6XdXd.;.5.r.d.x.).%X:X:X@X!.z.j.#.&.&.@X9X* 3 3 <.P ( ,.P ( I q.I | P >.9 8 & x BXVX>X*X$XmX<X<X*X%X'.).).(.k.z.z.Y.MXMXS.9.",
"y.S.MXyX5.o.+.f.+X(.).@X).~.l.k.j.k.%.Q.XXnXqX* 4 0 <.I m R j I P | K P j T 4 3 3 x NXSX>X;X*XVX<X X_.@X)././.).~./.z.E.MXiX2X2X",
"8.V.qXyX+.@.6.'.%X@X)././.p.p.p.p.j.&.XX;XCX9X% $ 3 y 4 3 t 9 h 5 j 3 4 3 9 8 # - x NXSX-X>X>X<XVXU.z.(.(.f.a.f.W.W.C.A.uXuXS.S.",
"n.7.V.`.^.W.'.'.XX@X).!.p.g.a.Z.j.!.&.-X#X*XE.% 8 9 3 9 9 K I R P K t 5 5 4 y 6 & f BXAXoX,XAX;XCX$X(.`.`.d.y.a.s.W.s.C.T.T.V.V.",
"7.:.S.uX`.'.'.%./.!.(./.f.d.f.A.x..X.XOXXX+XY.* 0 b 3 9 3 4 g t j t 4 9 4 9 g 8 - 7 DXSXXX,X,X#X_.nXnXuXuXyXA.S.+.6.9.C.7XD.m.n.",
"y.N.`.yXW.s.6.+.g.P./.P.p.r.r.s.U.#XoXOX.X_.E.* 6 0 3 3 3 3 9 q 4 4 9 9 3 9 8 6 6 k nX;XoX-X-X!.s./.`.yXiXMXwX2X@.0.5.6.9.m.t.n.",
"L.P._.A.6.+.5.+.4.a.Z.d.#.#.$.W.#X#XQ.oXoX(._.- # q b f f 9 q 3 q 3 3 & 3 f 3 # - x bX(.~.XX/.f.W.s.m.T.MXuX2XV.1.0.1.1.3.8.t.B.",
"=Xv.f.g.@.5.4.5.2.8.Z.d.a.$.Q.-X#XXX&.oXQ.%XE.@ @ B HXHXcXcXcXHXHXxXcXcXlXrXB 8 - z yX(.XX%X/./.iXW.6.7XFXwXV.7.0.9.2.1.4.m.Y.MX",
"I. X[.K.5Xq.FXtX7.7.4.6.+.~.'.:X~.~.=.=.OX:X`.= . B w.GXGXFXFXHXGXHXKXjXHXjXB % @ V uXIXf./._.nX`.^.^.C.C.D.S.7X^.uX;.0X0XJ.aXaX",
"BXfXK.aXpXlXrX0XD.8.4.6.W.'.~.~.W.%.=.AXk./.P.+ . Y Y.NXNXDXLXKXLXHXKXBXLXdXB 7 O N CX_.CX_.A./.^.C.9.6.9.D.`.yXwXDXMXgXgX5XpXcX",
"wX1X5XHX5XpXpXM.4.5.5.s.`._.!.%.Q.~.Q.%.~.!.l o _ } u.nXJXDXDXDXKXDXKXDXJXL./ S % X g.IXCXr.d.(.d.a.a.g.s.s.C.C.Y.xXhXH.zX4X4XeX",
"T FXrXeXkX3XaXpX@.1.6.x.`.@Xv.p.g.Q.=.&.SXS o ..` ) ) X.$XJXPXLXPXKXLXJXbXw._ '  .o c bX%X(.(.d.Y.P.A.A.s.s.a.4.cXfX4XkXeXrXzXT ",
"p ,.K 8 tXkXK.[.@.g./._.@X_._.U.W.;X&.XX].  Z ..9XuX_.L.P._.MXbXLXJXPXLXPXnXY.9X5.Z , nXnXnXi.T.dXyXyX_./.^.a.g.cXaXxXeX9 n ,.4 ",
"w G $ n lX0XkXw.#.f._.+XP.z.P._.k.@X@X#Xl.=  .B N.E.nXE.u.;.5.y.;.X.X.#.v.T.L.m.uX_ * T.L.mXI.E.R.E.T.T.P.C.s.a.w.kXvXzXn $ u 1 ",
"2 2 H ,.lX4XFXfXk.v.z.z.p.y.Z./.%Xl.;X#X#.; 7 ; 7 ; 7 x 7 = - : k ; ; ; , k 7 @ @ # 7 bX9XY.R.9XB.N.m.a.a.a.Z.P.xXcXtXlX,.G 2 2 ",
"w w 2 1 T 4X0X8X#Xv.h.#.i.u.A.^.j.AXl.v.=X=X9X[ ..n.S.i.;.t.n.w.H.MXBX|.}.dXbXi.} wXS.B.DXdXH.8X6XB.m.4.y.Z.T.bXfXpXeXT p w e w "
};
