/* XPM */
static char *_cdf4d3d3ace4ff0811928377cf6aa70qnVOMkfZdDrZcRet[] = {
/* columns rows colors chars-per-pixel */
"64 64 256 2 ",
"   c #030337",
".  c #130C51",
"X  c #29176E",
"o  c #282260",
"O  c #581876",
"+  c #6B1878",
"@  c #5A3677",
"#  c #56296E",
"$  c #652779",
"%  c #683579",
"&  c #75357D",
"*  c #481C5E",
"=  c #324867",
"-  c #4B4571",
";  c #6C4776",
":  c #8E387B",
">  c #904878",
",  c #8E5A7D",
"<  c #5C1A88",
"1  c #681A8A",
"2  c #731C8C",
"3  c #6C1C95",
"4  c #6C1B9A",
"5  c #691795",
"6  c #731C94",
"7  c #731C9C",
"8  c #7B1C9C",
"9  c #781896",
"0  c #670E92",
"q  c #5A2588",
"w  c #55338B",
"e  c #6B248C",
"r  c #682887",
"t  c #75268B",
"y  c #693789",
"u  c #773989",
"i  c #6C2393",
"p  c #6A2797",
"a  c #732394",
"s  c #7B2394",
"d  c #732B94",
"f  c #74229C",
"g  c #7B239C",
"h  c #742B9B",
"j  c #7A2A9C",
"k  c #792C94",
"l  c #6B3793",
"z  c #783898",
"x  c #771CA3",
"c  c #6E1CA2",
"v  c #7422A2",
"b  c #7B23A3",
"n  c #7B2BA4",
"m  c #7927A6",
"M  c #7A35A5",
"N  c #6F24A7",
"B  c #3F4380",
"V  c #78498A",
"C  c #784898",
"Z  c #714F8D",
"A  c #676D92",
"S  c #7C47A7",
"D  c #515B85",
"F  c #821E98",
"G  c #85258A",
"H  c #88378A",
"J  c #993887",
"K  c #882899",
"L  c #952C97",
"P  c #863698",
"I  c #993799",
"U  c #982C8C",
"Y  c #A6388B",
"T  c #A73897",
"R  c #AF3693",
"E  c #811DA2",
"W  c #8428A6",
"Q  c #8637A6",
"!  c #9636A7",
"~  c #912CA5",
"^  c #A437A1",
"/  c #8A4B87",
"(  c #9B438B",
")  c #984788",
"_  c #98568B",
"`  c #854A98",
"'  c #9A4A93",
"]  c #994696",
"[  c #87559B",
"{  c #9C5494",
"}  c #875988",
"|  c #A4458E",
" . c #A6448B",
".. c #A44493",
"X. c #A84997",
"o. c #B44699",
"O. c #A55897",
"+. c #AE5697",
"@. c #876698",
"#. c #956798",
"$. c #8F718F",
"%. c #A66599",
"&. c #A7749A",
"*. c #8947A6",
"=. c #9946A2",
"-. c #8757A6",
";. c #9758B5",
":. c #9052B0",
">. c #AA58A4",
",. c #AC50AD",
"<. c #9368AA",
"1. c #9A76A8",
"2. c #9767B5",
"3. c #9A76B5",
"4. c #8B66AF",
"5. c #A968A5",
"6. c #B566A7",
"7. c #AA79A9",
"8. c #B67AAB",
"9. c #A468B9",
"0. c #B96BB8",
"q. c #A875BB",
"w. c #B975B8",
"e. c #C56EB8",
"r. c #9F72C7",
"t. c #A87BC6",
"y. c #B878C7",
"u. c #B26CC9",
"i. c #B85EC0",
"p. c #C877CA",
"a. c #8E8A8B",
"s. c #92938D",
"d. c #958998",
"f. c #999898",
"g. c #8F868F",
"h. c #A49C9C",
"j. c #A59298",
"k. c #9FA09B",
"l. c #A2A29E",
"z. c #9B8AA8",
"x. c #9B97A3",
"c. c #9B8AB4",
"v. c #A789A7",
"b. c #A897A6",
"n. c #A889B6",
"m. c #B688B8",
"M. c #AC9AB6",
"N. c #B698B8",
"B. c #B491AB",
"V. c #A5A4A3",
"C. c #ACABAB",
"Z. c #A9A6A6",
"A. c #B1A9AC",
"S. c #B3B1AE",
"D. c #ACA7B3",
"F. c #B5A9B9",
"G. c #B5B4B3",
"H. c #B9B6B5",
"J. c #BBBAB6",
"K. c #BBB8BA",
"L. c #ACB1B1",
"P. c #9DA2A5",
"I. c #C39AB8",
"U. c #C288BC",
"Y. c #C1BCBD",
"T. c #C1AABB",
"R. c #C2C2BC",
"E. c #AA87C9",
"W. c #B78AC8",
"Q. c #BA98C8",
"!. c #B987D5",
"~. c #B897D4",
"^. c #AC8BD2",
"/. c #BBA7C5",
"(. c #B9B8C1",
"). c #BEA5D2",
"_. c #BAB5EA",
"`. c #BC8CE6",
"'. c #C787C5",
"]. c #C898C6",
"[. c #C89AD8",
"{. c #D998D3",
"}. c #D08DCF",
"|. c #C6A7C8",
" X c #C7B9C9",
".X c #CAAAD5",
"XX c #D7A7D9",
"oX c #CAB7D5",
"OX c #D6B7D9",
"+X c #D4AECC",
"@X c #E3B0DC",
"#X c #C99AE3",
"$X c #D39BE6",
"%X c #C78AE6",
"&X c #CCA8E6",
"*X c #D9A9E6",
"=X c #D8B7E8",
"-X c #D8BBF7",
";X c #D3B0F1",
":X c #E5A9E9",
">X c #E5B9E8",
",X c #E7B9F7",
"<X c #F3BBF5",
"1X c #E69CDC",
"2X c #BCC5CF",
"3X c #BCCDE5",
"4X c #CCCCCA",
"5X c #C8C4C6",
"6X c #D2CBCB",
"7X c #CDC7D2",
"8X c #D8C7D8",
"9X c #D9D5D4",
"0X c #DCDCDB",
"qX c #D7D5D7",
"wX c #CFD1D0",
"eX c #E1DEDC",
"rX c #E4D4DA",
"tX c #E3CBDA",
"yX c #DCE3D8",
"uX c #E3E2DD",
"iX c #E9E6DD",
"pX c #DAC7E7",
"aX c #D9D7E7",
"sX c #DAC8F9",
"dX c #D8D6F7",
"fX c #C8D1EE",
"gX c #E5C7EA",
"hX c #E6DAE6",
"jX c #E8C8F9",
"kX c #F5CBFB",
"lX c #E8D8F8",
"zX c #F6D7FE",
"xX c #F2D3EB",
"cX c #D8E5E9",
"vX c #D8E3FB",
"bX c #CCE3EE",
"nX c #E5E4E4",
"mX c #EAEAE5",
"MX c #ECE5EB",
"NX c #EDECEB",
"BX c #E7E7E6",
"VX c #F1EEED",
"CX c #F5EAEA",
"ZX c #F3F2ED",
"AX c #F5F7E9",
"SX c #EAEBF7",
"DX c #F4EDF4",
"FX c #F7E9FA",
"GX c #F5F4F3",
"HX c #FAF6F5",
"JX c #FBFBF6",
"KX c #FCF4FB",
"LX c #F6FDFD",
"PX c #FEFDFC",
"IX c #F6F7F6",
"UX c #ECF3F2",
/* pixels */
"X X . . D bXbXcXgX'.{ X.J ) _ 7.wXfXcXvXdXjX!.l + 1 f b x x x x c 4 x v v v N 0 d *.u.y.-XkXlX_.+XT.N.N.|.oXgXkXn._ _ >.G O * . ",
". . B _.dXSXlX8X[.{ / X.: O.]..XfXdXdX=Xn.2.*.r i h i 4 5 v 7 i p i i 3 5 5 p c a h Q *.*.<.~.sX=X=X.X/.N.N..XgXOX].O.] =.u * * ",
"X B . o FXpX>X&.O.J ( ..0.}.gXFXsX;X.X2.y < e i 3 d a h t C y $ y r y z d i p p m n i h q l y C ~.;XjXlX.XB.B.B.7XlX].) I I : + ",
". _.- - zXgX8.: J ..X.6.:XjXjXdX%X;.l r l M n f M S *.l V V @.@.3.-.[ -.C l l q 0 v m m i M M M l 4.&XkXkXOXF.v.F.OXkX'.) I ^ : ",
"A vXfXdXpXW.O.I R Y e.'.*X=X=Xc.*.z d e e e h z y -.~.[.pXoXpX7Xn.n.Q..X&X.Xt.[ *.c 3 i M 4 v n w l -.!.*XOX+XT./.M.OX<X'.| ..X.",
"vX3XvXpXn./ ] X.Y 6.'.1X,X[.4.y O d z r r y [ q.).~.=XoX8X7XnXSXCX XD.n.N.=XkXjX'.;.z q M n Q m S p r P 9.W..XoXoX|.|.>X<XU.) ] ",
"bXbXlX@XO.6.H =.+.{.1XXX*Xq.$ r r l r y <.W.)./.M.D.7XGXPXPXLXLXrXH.Z.Z.x.d.n.N.>XkX,X3.r r P ! n 7 2 2 P 9.'.*XsXpX|.N.OX@X8./ ",
"bX0XxX%.) ..,.,.e.{.XX.X[ ` + t y y.;X#XQ.N.F.K.a.f.V.ZXGXZXL.P.k.s.R.mX7Xd.; , $.+XjX,Xq.` k K Q ! ~ 9 1 $ -.t.kXjXOX].N.OXXX7.",
"hX X8.(  .o.+.p.XX>X=X<.` # y & F.N.F.F.7XKXPX0Xf.s.l.S.k.k.L.J.9XyXl.C.+X&.+.> >  .e.>XkX*X9.H *.Q Q m 7 5 h *.^.*X*Xm.7.|.[.m.",
"tX7.O.X.Y  .e.{.*X>X[.C r [ W.'.M.8XFXKXHXDXIXmXJ.k.f.Z.5XnX0XZ.l.R.4XiXCXv._  .o.o.) O.p.:X%X9.*.*.W m v 4 3 f C t.*X.Xm.7.m.XX",
"{.' I X.J 6.].XXgX[.[ z u !.|.M.H.T.T.CXVXH.S.G.l.9XPXJX5XV.Z.b.J.mXJXPXKX7._ > Y  .Y J X.w.[.#Xt.;.*.W W m c 4 t ` W.*XOXn.8.XX",
"i.o.X.X.X.U.@X+XpX3.r i r ].pXyX X5XZ.H. XZ.4XmXJX9XS.h.f.C.0XPXPXPXPXPXKXj.$.%. . .o.o.Y ] >.'.{.%Xi.*.n m x x g d C ~.jXXXv.e.",
"^ ,.R R 0.XX=X=XE.` $ t z n.8XyXeXnXH.H.mXPXHXR.R.l.s.Y.HXPXPXKXPXPXIXJXPXT.v.B.U.%.> :  .o. .X.}.}.u.,.Q x c c 8 3 r 4.&X-X'.&.",
"o.o.U 6.{.XX*XpX-.y 1 1 =.Q.wXG.x.Z.C.V.Z.S.l.l.l.uXPXJXPXPXHXKXPXPXJXJXPXK.A. XoX|.e.+.> : Y Y >.0.p.y.u.Q m 5 x 4 < C E.,X*X8.",
" . .| '.:X*X[.~.d d k r [ W.lXPXSX(.C.f.h.4XuXJXPXPXJXZXIXPXPXPXPXPXPXJXGXS.V.qX5XtXxXI.6.> : o.] >.p.%X'.u.Q 2 x 9 1 i :.&X,Xm.",
"> > 6.:X:X*X#X[ j 1 1 u 2.Q.pXKXPXSXKXL.f.NXJXJXJXJXZXJXPXPXIXPXPXHXPXHXJXJ.C.qXrXtXtX@X{.o.o.o.J ..6.w.p.u.:.t c 4 n j y q.&X~.",
"R > 8. X8XjXy.M 7 3 r ; +XM.MXSXUXmXnXS.C.0XmXPXJXPXPXPXJXPXJXPXPXPXIXIXPXF.F.8XlXtX|.N.+XOX8.) ( X.Y e.}.W.W.` r g x 5 2 u t.<X",
"o.+.|.pXOX=X;.h 7 a u q.OXb.MXSXmXmXBXS.Z.9XmXPXPXPXPXPXPXPXPXPXKXPXPXPXPXD.$.$.#.1.&.v.+XgX{.>.) | o.+.0.$X$X<.d i c m 6 z r.;X",
": %.+XpXpX&X` a 9 a *.[.|.b.MXMXIXJXJX5XH.mXJXPXPXPXPXPXPXJXPXPXPXPXLXLXKX/.@.% $ u u u <.[.:X:X+.(  ...+.*X,X].` < 4 W 6 d Q !.",
"+.e.xXgXdX&Xz 1 8 2 u.'.7.j.hXnXNXGXKXK.H.NXIXPXPXPXJXPXPXPXPXPXLXJXLXLXSX).3.Z 6 a t $ w S t.#Xw.( J | +.U.<XkXt.< c x 7 5 p ;.",
"] '.zXlXdX~.l f W 2 %X7.$.j.hXMXNXZXNXG.G.NXGXGXPXPXJXPXPXPXPXPXJXIXLXPXFX/.3.y 6 6 g j p q l *.p.>.U ..| 6.kXzX;Xl h 5 W 0 h S ",
"` W.lXdXpX1.r n 9 6 }.' &.B.CXMXIXJXGXJ.R.PXPXPXPXPXPXPXPXJXPXPXGXJXJXJXDXD.1.@.:.P t a p r r i ,.0...X. .+.>XgXsX2.h 0 W 6 n M ",
";.W.sXSXfXZ < i 9 ~ 0./ #.B.CXCXNXJXGXG.H.JXPXIXPXPXPXPXPXPXPXPXPXPXJXAXiXb.b.Q.!.q.*.t e p j K Q ,.,.X.o.+.].gXsX~.i 3 g 6 m N ",
"u ; z.fXsXZ r f 9 ,.` / &.j.xXHXNXJXJXH.G.JXPXPXJXPXPXPXJXPXJXPXPXPXAXAXAXl.v. XQ.[.}.;.d 6 6 9 6 P ! I R : %.gXfX;Xr g 6 f N c ",
"u * Z lXsXw e f F ,.! ' &.I.rXJXmXPXGXh.G.BXGXPXPXPXPXPXJXPXPXPXPXPXHXJXeXa.k.S.(.oXN.].>.+ K 9 6 W Q I ..( O.+XjX=X4.q 1 9 x x ",
"` % Z lXsXy q 4 F ! ! ' &.I.rXCXNXJXZXf.H.eXmXJXPXPXPXPXPXPXPXPXPXPXNXPXiXl.J.R.5X X/.N.8.I 2 8 6 j s L T J _ U.jXpXE.w i b E 0 ",
"% % - zX-Xl i n F ! ] ' U.I.hXCXZXJXGXs.R.uXZXGXPXPXPXPXPXPXPXPXUXPXPXPX6Xa.G.nX2X X XN.W.9.t k 6 g s K ! ( { 7.gXjX&Xl 4 x 9 9 ",
"/ ` Z zXsXy r 8 E ~ =.] 8.I.hXVXGXIXIXf.6XNXPXPXPXPXJXPXPXJXPXPXLXLXIXJX6Xb.K.9X2X5X X].m.w.;.r x f 7 K I I ] 5.xXpX-Xl i 9 9 W ",
"P u Z -X,Xl p 1 F K ! ( 5.I.hXDXmXDXZXf.4XVXPXPXPXPXPXJXPXPXPXPXLXLXHXHXrXY.Y.6X0XqXqX8Xm.!.$Xl 8 b f g K U ' 5.gXsX-XZ e g 6 7 ",
": $ @ n.;X:.M 5 F F P ( _ I.tXDXNXGXNXf.4XZXPXJXPXJXPXPXPXPXJXPXPXPXPXZX9XT.A.H.2X3XaXaXN.~.;Xl v 7 f 9 s L ] >.OXzXlXS i 7 7 4 ",
"] ` y S r.S M x E F G ] } |.9XGXZXJXNXl.5XGXPXPXPXPXPXPXPXPXPXPXPXmXeXiXmXuXY.l.x.D././.1.1.t.C g 4 i 6 9 U ] ' Q.=X~.S i 4 x v ",
"H H $ y l M q m E F G ] > +XtXKXBXIXnXf.R.ZXIXPXPXPXJXPXPXJXPXPXqXqXiXAXJXJXVXnX(.L.D.d.$.<.3.`.b 3 a 6 G I =.' /.1.@ q h N 4 c ",
"U ' % # w l i x x 9 s ] _ I.rXCXZXPXJXC.K.mXPXPXGXPXPXPXGXuX4X5XuXVXAXPXJXJXPXPXJX6Xh.$.$.1.t.t.t h f 4 x ~ =.>..X<.w w p N 4 N ",
"T ( & Z E.!.:.v F 6 K P / ]. X XwXmXNXG.J.mXPXPXPXPXGXqXH.G.qXJXAXJXPXPXPXJXJXPXJXPXCXF.z.c.E.C a a v v F ~ X.X.|.>X^.S p c c v ",
"Y H & 1.sX,Xr.4 8 6 2 + / .XhX6XZ.5XZX0XG.4XeXNXuX5XG.R.nXPXPXPXPXPXPXPXPXJXJXJXHXJXKXDXpX|.c.V 2 a i x K L ] | I.FXkX4.p 6 f 6 ",
"R Y ) W.kXkX^.C g s a + & [.xXFXqXK.wXZX4X4XJ.J.G.wXGXPXJXGXJXPXPXPXPXPXJXJXPXPXPXKXPXKXFXpXc.- t e 1 g L I ..O.I.zX-XS h 5 6 f ",
"T J ( 8.>XkX#X2.h 6 k k y n.8XKXZXNXPXJXC.V.H.uXJXJXJXJXPXPXJXGXPXPXPXPXPXIXPXPXJXPXPXHXKXPXpX@.H % $ s I I ..O.OXgX^.l h 5 9 g ",
"T U : ) U.<X-X^.Q e 2 z $ 3.=XPXPXPXJX4Xf.Z.4XZXPXJXPXJXHXPXPXPXPXPXPXPXPXPXPXPXVXGXPXPXPXPXPXaX7.[ V ` ( ( | %.xXjXE.r 3 8 8 9 ",
"I J J ) &.>XjX=Xu.j 1 e q 1.oXFX4XuXPX0XV.a.G.GXGXHXPXPXPXPXJXJXPXPXPXPXPXPXPXIXPXJXJXPXPXDXKXKXgX|.m.7.{ ) _ 7.kX=X3.l 0 E 8 8 ",
"+ U ) > _ ].sX&X%X:.p i r 2.c.F.V.C.mXJXmXf.s.Y.PXPXIXJXPXPXPXJXJXLXLXPXPXPXPXPXKXPXPXJXZXPXPXKXKXlXOX].5./ _ v.>Xn.y p 9 E 9 x ",
"$ & ) > > +.].gX;XE.z O z *.#.oXV.H.mXIXGX0XC.f.0XZXPXPXPXPXPXJXZXJXJXJXJXPXPXPXPXPXPXPXPXPXPXPXPXKXMXOXB.} } kXjXn.y i f 4 4 f ",
"=X]._ ( +.( %.kXjX&X9.y $ V [ .XSXMXKXIXPXNXR.Z.l.4XGXPXGXZXJXPXJXJXJXJXPXJXGXPXPXPXPXPXPXPXPXPXGXPXHX9XN.$.v.-X*X9.d i v x 7 n ",
"SXgXn.) +. ._ {.jXzX<Xq.y @ V N.GXPXPXGXPXVXmXeXl.l.G.9XJXPXPXJXJXJXHXJXPXPXJXPXPXPXPXPXPXPXPXPXJXPXPXhXF.$.=XjXW.[ e 3 b x g W ",
"bXvX>X0... . .> '.kXFX,Xq.; ; @. XIXSXNXNXNXJXPXmXH.s.l.wXGXPXPXPXPXJXJXPXJXHXPXPXPXPXPXPXPXPXPXPXJXPXcXb.M.jXsX:.d 1 4 x 7 F ~ ",
"fXMXlX:X6.] (  ._ U.kXzXgXE.[ A G.JXNXGXhXZXZXuXPXNX4XC.f.h.R.VXmXPXPXPXPXPXGXZXPXPXPXPXPXPXPXLXPXJXIX4Xx..X~.3.k i 3 7 x 9 F ~ ",
"x.dXjXOX].{ : +._ | U.gXFXzX|.n.x.aXKXPX0XNXmXuXNXJXPXNX5XZ.l.Z.K.BXKXIXPXPXPXJXPXPXPXPXPXPXPXPXPXJXaXC.z.jX!.C i i 7 x 7 F K T ",
"Z pXlXoX+Xw.( J X.> #.B.OXzXlXpXx.H.IXPXBXnXZXZXwXeXZXPXPXVXR.f.x.(.qX0XBXNXJXJXPXPXPXPXPXPXPXPXGXaXG.b./.XX9.Q a 6 x x E F L R ",
"u n.pXaX8X>X{.,.R J ) } $.).lXlX5XV.BXDXPXBXNXnXwXqXeXNXPXPXmX6Xd.Z.L.G.K.5XqXZXLXIXLXJXPXPXPXIX7XH.d.F.pX[ d K s 7 7 8 E L L T ",
"+ [ *XzX=X|.XXXX>.| J ..' O.'.<XrXA.7XHXHXhXAXiX4XR.R.4XiXCXmXiXF./.x.f.h.s.h.A.l.G.S.V.Z.L.P.F.f.x.).=Xq.P 2 K 8 8 6 2 G I R R ",
"t t 9.*X=X].XXgX}.0.O.| ) : ( +.I.h.T.GXNXuXmXiXmXqXY.Y.9X0XeXAXPXPXMXBX9XS.l.f.s.f.k.k.f.f.d.x.D.oXlX.X[ e 9 9 x 9 6 K K U T R ",
"3 e d *.q.[.=X,XXX'.7.O.) ) | O., h.N.FXNXNXyXmXHXeXS.A.5XK. XnX0XIXAXPXPXKXNXcXyXwXR.H.P.P.F.5XpXgX~.4.r a b 0 b 7 6 K L T R o.",
"5 v s 2 P ,.!.[.>X=X:X].8.O.)  .> B.B.KXDXUXyXcXNXuX5XY.wX(.G.qXyXmXmXuXBXBXBXhX0XqXyXuXqXqXhXdX:Xq.C r i v m c b 8 K ~ T U o.p.",
"N p 4 g k 2 P 9.Q.*XkXkX<Xe.+.( , I.j.FXUXUX0XuXmXGXBX0XnXaX4XqXR.R.R.J.J.4XqXqXUXGXNXmX9X XoXn.-.` e d m 4 5 N 8 G K I U J 6.1X",
"p 5 3 N s 2 e P C 9.%X,X<X<X1X{.&.T.j.KXKXJXBXNXmXZXAXNXNXmXnXaXiXiXAXAXBXDXSXcXNXUX9X7XT.N.W.<.e k f 4 N 4 3 v F K I I H ) m.>X",
"S p w 4 3 W K + a z *.r.[.[.:X<X|.OXb.FXPXPXKXHXAXiXiXAXmXBXMXnXuXwXAXGXDXKXDXSXhXDXrXrX|.Z y O s W 7 0 c m 7 d G U T J { 8..XaX",
"`.M q N i 1 9 F 8 8 p z ` <.W.*XgX8Xv.FXKXDXKXHXHXyXiXJXZXBXUXSXPXnXPXPXDXFXMXMXMXCX6X8XN.y l M 2 x c x W m 6 K U T T ( 6.XXaXaX",
",X!.w < p c N N 6 g b g 6 d *.:.~.=XM.8XFXKXPXMXmXAXPXKXNXmXmXHXGXZXHXKXPXPXPXIXNXGX7XM..X% < c x 4 7 b 8 F G L R R : { @XpXbXbX",
"kXlX~.S q p 4 0 W b 8 6 7 h M z ; @.N.gXFXKXPXPXJXPXUXJXPXPXAXiXGXJXPXPXPXPXIXUXGXqXZ.B.v.y z 4 x x 8 9 F L L T Y T ) [.FXaXUXbX",
"dXsXsX^.S q i v 0 1 9 b n n f e u # 7.oXhXPXUXLXGXPXPXPXKXGXJXJXIXPXPXPXJXPXPXGXmXBX X7X7.y r 4 5 h W F L ^ T T X.) W.pXfXvX3XbX",
"A dXfX-X-X4.q i j g 7 7 4 4 4 p + y y.1.v.SXPXLXPXPXFXGXPXPXJXJXPXPXPXPXJXJXUXuXhXqXf.b.E.[ < j i K ~ ! L T Y Y > m.OXPX3XvXvXA ",
"o 3XB = dXjX4.y r e 3 3 7 4 7 f K O t q.n.M.2XBXKXKXKXPXPXPXJXGXPXKXHXCXJXPXPXKX(.(.z.n.m.V 1 n ! L ! ^ T U : ( n.pXdXdX= D 3X. ",
". B   = dXFXsX^.C y r e i g a 3 W K 1 t C 1.M.g./.8XFXPXKXGXPXPXKXPXPXPXKXrX|.z.Q.n.|.Q.[ $ P ,.,.,.T T Y : ) 7.gXSXvX3X=   o o ",
". . D _.vXfXdXfXsX~.r.z d a s s 0 x 4 e q & #.1.g.f.b.Y.qXcXaXwXaX(.A.j.j.j.v.Q.3.A @.[ % =.0.i.,.R R Y J O.m.OXfXSXfXSXdXX . . ",
"X . . . A vXvXdXdXdX,X$Xy.;.! K E W n f d % $ ; $.$.$.g.a.d.d.z.z.g.a., , - - # ; 4.@.2.[ y.! I R U R Y Y 8.OXSXvX3XvXA . . X . "
};
