/* XPM */
static char *Floor[] = {
/* columns rows colors chars-per-pixel */
"64 64 43 1 ",
"  c #071C24",
". c #081D26",
"X c #071E28",
"o c #091F28",
"O c #05212C",
"+ c #0A232C",
"@ c #052635",
"# c #0C2630",
"$ c #052837",
"% c #0E2933",
"& c #022C3D",
"* c #082A3D",
"= c #102C36",
"- c #102D38",
"; c #12323E",
": c #042F40",
"> c #063143",
", c #083546",
"< c #093749",
"1 c #0B394B",
"2 c #123440",
"3 c #103D4D",
"4 c #0D3F51",
"5 c #0E4153",
"6 c #104052",
"7 c #264956",
"8 c #254E5C",
"9 c #294E5E",
"0 c #26505E",
"q c #28515E",
"w c #255262",
"e c #2A5462",
"r c #2C5866",
"t c #235768",
"y c #25596A",
"u c #2D5C6A",
"i c #305F6E",
"p c #2E5F70",
"a c #305F70",
"s c #2E606F",
"d c #30606F",
"f c #2C6173",
"g c #316070",
/* pixels */
"&&$$$$&&$&$&$$&$*:::,>:::>>:::::::,:::::&$$&&$&&$&&&&$$&$&$$&$&$",
":>>>,&>>>>,,<<<<32444443444334434454,24355,,,&,&&&&&&$&>&&&&&&&&",
">>O+++OO++++###%%%%222222222<22222222--2=##O##++.O+OO   O    O&&",
":#=687880808000eerruaaaaaaaapppppfppfpppsrtssqqrqqqqqq0q00087X &",
"&o788800880800qqerrrraaaaaaaaaauuspspffustyyttyeqt000078870q80 &",
"&o O++++++++++######%%%222222222;;;;2*%%%#++++OO.+OO O+O OOOX  &",
"&&*>&;>>>>,>,,,,,,<<<<111444344455551<<<,,,>&;&&$&;&&&;&&&&&&*&&",
"&>*>&&&>>>>>,,,,,,<<<<,1<11434445111<<<,,,,>>&>>&&&>&&&>&&>&&&&&",
"&::::>:>>>>>,,,,,,,,,<<1,1<11111<<1<<<<,><>>&>>>>>>&>>>&&&>&&>&&",
"&&::::::>>>>>>>>,,,,,,,<<<<<<<<<<<<<<,<,>>>>>>>&&&>>&&>>&>>&&&&&",
":::&::::>>>>,>>,,>,>,,,,,,<<<<<<<<<,<,,,>>>>>>>>>>>>>>&>&&&&&&&>",
"*&&:::::>:>>>>>>>,>,,>,>,,,,,,,,,<,,>,>>>>>>&>>>&>&>>&>&>&&&&&&&",
"&&:&:::::::>>>>>,>>,>>>,>>,,>,>,>,>,>>>>>>>>>>&>>>>&&>&>&&&&&&&&",
"&&:&&::::>:>>>>>>>>>,,>>,,,>,>,>,>,>>>>>>>>>>>>>>&&>>&&&>&&&&&&&",
"*&&&:::::::>>:,>>>>>>>,>>>>>>,>,>>>>>>>,>,>>>>>>>&>&&>&&&&&&&&&&",
"&&:&:::::::>:>>>>>,>>,>>>,>,>,>>,>,>,>>>>>>>>>>>>>&&&&>>&&&&&&&&",
"&&&&&:&::::::::>>>>>,>>,>,>>>,>,:,,,>>>>>>>>::::&&>&::&:&&&&&&&&",
"&&&&&&&::::::::,>:>::>>>>>>,,>,>,,:>,,>>>>>>:::*&&>&&::&&:&&&&&&",
"&&$&&::&:::::::::>>>>::>>>>>>>>>:,>>>>>>>>::::::&>&&:&:&&:&&&&&&",
"$&&&&&&:&::&::::>:>>>>>>>>:>>>>>>:>>>>>>>::::::*&&&>:&::&&&&&&&@",
"@&&&&&&&::&:::::::>:>>>>>>>>>>>:>:>>::>:::::::*:&>:&:::&:&@&@&&@",
"&&@&&&:&&:::*::::::::::>>>:>>>:>>>>:>::::::::::*&&&::&&:&::&&&&:",
"&@&@&&&&:&&::::::::::::>>::>::::>::::::::::::*::>:&:&::&&&&&@:@:",
"@:&@&@&&&:*&:::*:::::::::::::::::::::::::::*::**&&:&:&&&:@:@::@&",
":@:@&&*&*&&&::::::::::::::*::::::::::::::::::&*:*:*&&&&&&&@&&&&@",
"@:&&@&@&*&*&*::::::::::::::::::::::::::::::&:*:::**&&&&&@&&&&@&&",
"&&@&@&&&@&&*****::::::::::::::::::::::::::&:::&*:*&&&&&@&&&&&&&@",
"@@&&&&@@&&&@:**&::::::::::::::::>>:::::::::::&:&:*&&@&&&&&@&@@&&",
"&@&@&&&&&*&&*&&&::&&::::::::::::::::::::::*::&&&*&&&&&&&&&@&&&@&",
"@&&@@&@&&@*&@&&&&&:&&&:::::::::::::::::::*:*&&&&:&&&&&&@@&&&&@&@",
"&@&&&@&&***&&&&&&:@::&&&&::&*:::::::&:::::&:&&&&&&&&&@&&&&@&&@@&",
"@&@&&&&@**&@&&@&@:::&&&:&&&::&&:&:&:&:::*&&&&&&&&&&&&&&&&@&@&&@&",
"&&&&&&&&&&&&&&&&&&*:&&>*>>>>>>>>::::,:::>>&&&*:&&:::::::::&&&*&&",
">&&&&>*&>>>&>>>>>&&&&>>>>>>>>>>>,:>,>,>>>>>&&:&:::>>::::::::::::",
"&&&&>&&&&&&&&*&>&&*&&:>>>>>,>>>:::,::>:::::&&&&::::>&:::*&&:&&&&",
"&&$&&&&$&&&&&&&&&&&&:&:*::::::>:::::::::&:&&:&&&::*:&&&@&&&@&$&$",
"&$&&&$&&&&$&&&&&&:&:*:::::::::::::>:::::&:&:&:&&&&&&&&&&&&&&$$$&",
"&$&$&$$&&&&&&&&&:&:&::::::::::>::::::::::::&&&:::&:@&@&&&@&@&&$&",
"&&$&&&$&&$$&>&&>:&>&::::::::::>:>::::::::::&::&&&&&&&&&&&&&&&&&@",
"$$&$$&&$&&&&&&&&:>&>::::::::::::::>::::::::::&:&&:&:&&&@&@&&@*@*",
"&&&$&&$&&&&&&&>&::>&>>&>:::::::::::::::::::::&&&::*:&&&&&&&@*&@*",
"&$$&&$$&&&&>&>&&&:&:*>>&::::>::::::::::::::::&&:**:::&&&&&&&&&@&",
"$$&&&&&&&&&>&&>>:>&:&>&>::>:::::>:>::::::::::::@:*&*&&&:&&&@@:*@",
"&&&$$&&&>&&&>>&&>&>:>&>>>:>>>>>>:>:>:>:::::::::::::&&:&:&&&&:@::",
"@&@&&&&:&>&&>&>&&>&>>>>>>:>>>:>:>>>>::>:::::::::*::*:&&&&&&&:&@:",
"&&&&&:&:&>&>&>&>>>>>>>&>>>>>>:,:>>>:>>:>:::::::::**:&&:&:&&&@:&&",
"&&&&&&&:&&>&>>&>>>&>>>>>>>:>,::,>>>>>>>>::>:::::*::*::&:&&&&&&@:",
"@&&&&:&:&>&>&>>>&>>>>>>>>>,,:,,>,>,,>>,>>>>>:::::*::**&&&:&&&&&&",
"&&&::&:::::>>>:>>>>>>>>,::,>>,>,>>>,>>>,>>>>>>>&:*:*&**&&:&&&&&&",
"&&&&:&&:::::>:>>>>>>>,:,,,>,,>,>>,>,>>,&,>>>>>>&::::&:::&&:&&&&&",
"&&&::&::::::>>>>>>>>,,>>>>>,>,>>>,>>>,>,>>>>>>>>::::::::::&&&&&&",
"&&&&::::::::>>>>:,>,>>>,,>,>>>,>,>,>>>>>>>>>>>>&::::::::&&&&&&&&",
"&:&:::::::::>>>>,>>:,:,>>,,,>,,,,>>,>>,>>>>>>>>>::>:::::&:&&&&&&",
"&&&:*:::>:,:,>:,>>,,,,>,,,,,,,<<,,,>,,>>>,>>>&>>>::::::::&&&&&&&",
"&::&:::::,:,:,,>:,,>,,,<,,<,<<<<1,<<,,,,>>>>>>>>:>:>>:::::&&&&&&",
":&::::::::,:,>>,,,,,,,<1,111<<111<1,,,,,,,>&>>&>:>:::>:::::&:&&&",
"::*:>:>:,:>,>>,,,,<,<<1<111,1,5511,1,,,,>>>>>>>&::::::::::&::::&",
"&&::::>>>,>,,,,,,<,<<<11115555555551111,,,<>>>>*:::::::::::::&::",
"&::::>,:>,,,,,,,2<<2<<11555555555555511,,,,,>>>&:::::::::::&&&&:",
"&o..oooXo+X++#+++##%==---;;;;;;;;;;;;;=$%%++O+OOXXXXXXXX       &",
"* 78888888999eeerrrruuudddddfsdsssfsfffyyyyyttwwwwww9988888889 &",
">++8898889999eereerruuigddgffffffffffssyurryreee99w999998w897  :",
">>@+o#O#O#+######===#=2222;;22;2;;;;;;;-%%##++oooXXX X        &&",
"*>>>>>>>>>,<<<<<<<<1165655655555555555551<<,,<,,::::::::&&@@O&&&"
};
