/* XPM */
static char *Wall[] = {
/* columns rows colors chars-per-pixel */
"64 64 81 1 ",
"  c #101A2E",
". c #1B1A2E",
"X c #111C31",
"o c #1A1C30",
"O c #231A2E",
"+ c #2A1A2E",
"@ c #351A2E",
"# c #381A2E",
"$ c #211F33",
"% c #2C1F33",
"& c #331E34",
"* c #032C3D",
"= c #0B2C3D",
"- c #162134",
"; c #1A2136",
": c #172338",
"> c #19243A",
", c #122C3D",
"< c #1A2A3D",
"1 c #222134",
"2 c #2C2033",
"3 c #22263D",
"4 c #2C253C",
"5 c #222B3C",
"6 c #2A293A",
"7 c #352034",
"8 c #3A2033",
"9 c #31253C",
"0 c #3A243A",
"q c #312B3D",
"w c #3C2A3B",
"e c #491A2E",
"r c #5C1F35",
"t c #671C2F",
"y c #7E1A2E",
"u c #442239",
"i c #4C2838",
"p c #53233A",
"a c #5F2338",
"s c #6C2137",
"d c #7A253D",
"f c #042F40",
"g c #0D2F40",
"h c #132F40",
"j c #1D2B42",
"k c #1F2E4B",
"l c #063345",
"z c #0C3143",
"x c #073648",
"c c #093749",
"v c #0A384A",
"b c #113143",
"n c #1A3142",
"m c #103649",
"M c #12394C",
"N c #242B42",
"B c #292A42",
"V c #222E4C",
"C c #292D49",
"Z c #322C42",
"A c #3B2941",
"S c #33374D",
"D c #213151",
"F c #4A2C45",
"G c #423144",
"H c #40304D",
"J c #682D46",
"K c #384159",
"L c #831A2E",
"P c #BD1420",
"I c #80233B",
"U c #DC0000",
"Y c #D1050A",
"T c #DE060A",
"R c #CA0C15",
"E c #D50D16",
"W c #D5131B",
"Q c #DD121C",
"! c #E50000",
"~ c #E60609",
"^ c #E3090E",
/* pixels */
"zzzz=m===cv===*lfffffffllfxxxxxcxcxxlllgzzmgggzggffg*f======hzgz",
"=zzz===m===,v*l*fffffffflxxmxxxxxcxxcmmmbmmggmgzgg=====gg===gggg",
"=zbzm====,vv=v*lffffffgfxxxxvvvxvMMMmMMmhzmmggggggg>=ggg>===,bhg",
"mzmb,nn<m,,=,,v*ffffffmllmccvmvmMvMMMMmmmmgzmzggghgghg>hh<<,zzbz",
"=mMnnKKK<n,zm,,=fffggmxxmMmmmMMMMMMMMMMMzbbzzbzzbhhh>hjjSSKqbb,z",
"==,nK~^PeOO.oo--XXXX   X        X XX  .     X    ....OO@dLWu<bz,",
"==,<S!!Tp62351<<>>>>>>:>>::>>:::>X>XjoX>::o:;:;;>$>o3%%&U!Uw5z,z",
"m=m<Sd~Q046335;<>>>>>>>:>::>>:::XjXjXXjX::::::;;;$33$$%&^!R6n=z,",
"ggfj>uua9433N$Nj  X X           X           :   ;;;31$22up@<,,z,",
"ggzgg+u9B6N33Nj>                     X      ;   ;31111$267+:,z,z",
"gggz=.3NB33N33>j Xk>k>::>:::>:>:o>>X::;:::::>>:>3;3131;$%2O=zzz,",
"fzgf:.333NB3N3j>   X X::::::::>:>>>>o:::::::>;>>;33;131111.=z,zz",
"zgzgg.33N33k3>j>>>>>k>>>>>>>>>:>j>::X>::::>>:>>>>;333111$1.=b,zb",
"gzzb>.3k3333jj>jk>k>>>>>>>>>:>>>>:>:>>::>:>>>>>:>3;13131$..=bzz,",
"lzzbj 33333>>>>jk>k>>>k>>>:>>>:>>:>>>>:>>>>:>>>>>>>53351$1.=bzz=",
"zzzg>.N33kk>jk>>>>>>k>>>>>>>:>>>>>>>>>>>:>>>>:>>>>;;;3;11;.=zzzl",
"llgbh.3jk>>>>k>k>>>k>k>>=>>>>>:>>>>>>:>>:>:>>>>>>>:>>;>;;; ==ll*",
"llxzg >j>>>k>>>kk>>>>>>>k>>>>>>>::>:>>>:>>>>>:>>>>>>;:>;;; *llll",
"xxzcf j>>k>>>>k>>>>>>>>>>>>>::>:>>>>>:>>>:>::>>:>:;:<::--- *zlll",
"xxxcf j>>>kkk>>>>k>k>>=k>>>>>>>>:>:>>>>>>>>>:>>>>>>>:;:--- *l*ll",
"xcccf >>>>k>jjj>:k:kk>>>>>>>>>>>>>>>:>>:>>:>>>>>>>>>>:----X*xxll",
"cvccg >>>k>>>>>j>>>>>>>>>>>>>>:>>:>:>>>>:>>>:>>::>>>>:----X*xlll",
"cccvf >>>>>>>jj>>>>>>>k>>>>>:>:>>:>:>>:>>>:>>>>>>>:::----- *cxxl",
"cvcvfX>>>j>>>>>>:k:k>>>>>>::>>>>>>>>>>h>:>:>>:>>>>:::---X- *cllx",
"vxvxf o>>>>>>>j>>>>>>>>>>>>>>>>>:>Xj>>>>>>>>>>>>:::<;--o-- **lll",
"vvvvf X>>>j>>>:>>>k>j>>>j>>:>::>>>>>>>jX>::>>:>:>;:::----X *lllc",
"vvvvf :>>>>>j::j>>:>>>>>>>>>>>>>:jX>jX>>>>>>>:::>::;;----- *clxl",
"vvxvf ::>>>>>>:>>>>>>>>>>>:>>>:>hXj>>>>>>>:>>>>:<>15>1;1$- *vcxx",
"vvvvfX:>>>>>>j>>>>>>>>k:>>>:>>:>>>>>>>Xj>>>>>>>>;;331211$1 *vcxx",
"xvvvf o>>>>>>>>>>>>>>>>>>>>>>>>>>:>>>>>>:>::>>>>;332qw71$o *vvxx",
"xvvvf X:>>>>>>>:>>>k>>>>>>>>:>>>:>Xj>>>>>        ..+isr7$$ *vcxl",
"vxvvf ::>>>>>>>j>>>>>>>>:>>:>>:>:>>>>jX>: jjjkNVBBBZaIt7$$ *vccc",
"xvvv* o>>>3>>3>>ojjX>>>>>>>>>>>>>>>>>>:>XXkkDkVVCCBBFJe+$$ *fccx",
"vcvv* :>>>>>>>>>jXj>>>>>>:>>>:>>:>:>:>>>> kDkDDCCCCBZAO.$$ *cccc",
"xvvv* :>>>>>>>>>jXj>>>>>>:>:>::>>>>>jX:>> kkDDDDCCCBB4O.$1X*ccxx",
"xccx* X:>>>>>>>>Xjoj>>>>>>>>>>>>>:>::j:>> kDDDDDCCCBBNo.1$X*vccx",
"vvvv*X:>>>>>>>>>j>>>>>>>:>:>>>:>>>>>:>>>>XVDDDDDDCBNBB..$$ *ccxl",
"xxvv* X>>>>>>>>>>>>>>>>>>>:>>>>>:>::>:>:: kDDDDDkkNN$Nooo  *xxll",
"xvxvf X:>>>>>>>>>>>j,:>>>>>>>::;>>>>>:>:: kDDDDkjjVjNN oo: *lllx",
"xxxxf o:>>>>>>>>>>>:>:>:>:>>>>::>:>:>>>>: kkDkkkjjjjjj X-X *flfl",
"xxxxx X:>>::>>>>>>>:>>>>>:;:>>-<>:>:<::<: jkVkkNN>>j<5 X-- **l*l",
"xxfxx o:::>>:>:>>>>>>:>:>>:>;::<>:::::;:: jkkkkjkjNj<5 --- ***l*",
"fxxxl o:>;:;>>>>>>::>:>:>:>;><-:>;:::;>>> jjkkjj>jj<<< --- **l*l",
"fffxf X::>:>>::>>>>>>>>>>:::::;:::>>:<:::Xjjj<<>>jN<j< -.- *****",
"flfff ::::;>>;>:>o:>:o>>-:;::;:<:<>>:;:;:X      X      -X- *l**l",
"fflf* oX::::::>::>>>>>>:<::;:::;;-:::>:;;::--X--;X-;--Xo-- **ll*",
"ffff* :X::>::>>;>::>:>:><-:;;:;::::;:;:::::;-.---.X;-X--X- *l***",
"ffff* o:o:::;>:>>:>:>o>>:;::;:-::;;:;::;:;-X------------o- **l**",
"f**f*. o;::::;::--<<-<;;:;:;:-;:-,---1-----X----------o-o1 *****",
"ff*g*.o;1;;:::::<---:--:::::--:--------,-----o---- -o$1111.=****",
"f=>f=.;$1>1;::;:-<-<-:-:-:---:-----------oX---X--oo;$11111O==***",
"=fgg=.1;;13;o;::----;:-;-----o-------o ------ -o--$11$2$11.,,==*",
"===gX o1$>11>;;:--;--5-------o-------- ---- -X---;112$$21+O=,==*",
"==gg=O%%$31>1>::-,;<--------------oo-------oo---$$$221222+O,,,,=",
"===g>+%%&2131$;:------------------o--- -------o-o$2$222277+,,,,=",
"g=:j4&HHA7111>;;--5-,----------X ----oo---------;2$2222788#;<,,=",
"=,,5qd!QA&1111>;--,--,---- ----------- --------1$$$2222wE~y,5,,=",
"==<5wY!!r71o;1;;,-o---,--------=-------------X-11$222227U!Li<,,=",
"==,5SQ!y@O.....                         X XX   oOOO..+2@sYU5<,,,",
"===,5qGG>=============l==******l*********f****==,==-=,<<6qq<<,,=",
"===m,N5nhz=z=zzxlzzzbvvvvvvvvvvvvvvvlvlvccllllzz,,,,,,,<55,<,,,=",
"====z,l=g=zg=zgllllvvvzvlvvvvvvvvvvvllvllclllllb,,=,,,,=,,,=,,,=",
"==z=z,,=g=gggzflllllzvvvlvvlvvvvvvvlvvlvlcllll=zb,,,=,,,,,,,m,==",
"===m=,zz,zggggflllllvlllvvlvlvllvlvlllllllllllvz=,,,,,,,=,,,,,=*"
};
