/* XPM */
static char *_d70b51ea3bb4bfe915980a711f6516bnU37iDacsFKuabSy[] = {
/* columns rows colors chars-per-pixel */
"64 64 248 2 ",
"   c #16000D",
".  c #1B021A",
"X  c #180117",
"o  c #0F0011",
"O  c #230114",
"+  c #2A0115",
"@  c #24031C",
"#  c #2D041C",
"$  c #250A1C",
"%  c #2B0B1D",
"&  c #250917",
"*  c #31041B",
"=  c #320B1E",
"-  c #35041A",
";  c #31111D",
":  c #1C0723",
">  c #1F112B",
",  c #250523",
"<  c #2B0622",
"1  c #240B24",
"2  c #2C0B24",
"3  c #230C29",
"4  c #2B0D2A",
"5  c #220728",
"6  c #330B24",
"7  c #390D23",
"8  c #330D2A",
"9  c #3A0E2A",
"0  c #340621",
"q  c #2C132C",
"w  c #2A1328",
"e  c #341325",
"r  c #3B1325",
"t  c #34132C",
"y  c #3B142D",
"u  c #3B192C",
"i  c #36192B",
"p  c #350F30",
"a  c #2E1532",
"s  c #2D1A34",
"d  c #271934",
"f  c #331432",
"g  c #3B1533",
"h  c #341A34",
"j  c #3B1A34",
"k  c #341C3A",
"l  c #3B1D3A",
"z  c #2A0F32",
"x  c #3C223C",
"c  c #36223A",
"v  c #2D233C",
"b  c #42132C",
"n  c #45172B",
"m  c #431533",
"M  c #431A33",
"N  c #491B36",
"B  c #4D1230",
"V  c #44233C",
"C  c #4C233C",
"Z  c #482435",
"A  c #52243C",
"S  c #522A3E",
"D  c #3C2542",
"F  c #3A2A47",
"G  c #3F3650",
"H  c #452541",
"J  c #442B44",
"K  c #4C2A43",
"L  c #4B2C4A",
"P  c #462A48",
"I  c #532B44",
"U  c #582A46",
"Y  c #4A324B",
"T  c #54334D",
"R  c #5B324C",
"E  c #5A3548",
"W  c #4A3653",
"Q  c #543B56",
"!  c #593855",
"~  c #552D50",
"^  c #67374D",
"/  c #643A54",
"(  c #6B3C55",
")  c #6E3E5A",
"_  c #673855",
"`  c #743B55",
"'  c #692F4D",
"]  c #5C425A",
"[  c #574158",
"{  c #65425D",
"}  c #6B435C",
"|  c #694356",
" . c #73445C",
".. c #79475D",
"X. c #7A525F",
"o. c #5B4966",
"O. c #684A65",
"+. c #734562",
"@. c #7D4562",
"#. c #744D63",
"$. c #7B4C64",
"%. c #764C69",
"&. c #7B4C6A",
"*. c #67526A",
"=. c #75526B",
"-. c #7D536C",
";. c #7B5769",
":. c #6B5A76",
">. c #745C75",
",. c #795974",
"<. c #77637C",
"1. c #823E57",
"2. c #83435E",
"3. c #834C65",
"4. c #874B67",
"5. c #835166",
"6. c #83546B",
"7. c #8C546C",
"8. c #8B5A6E",
"9. c #85566A",
"0. c #93546C",
"q. c #845A74",
"w. c #8C5C73",
"e. c #8B5D79",
"r. c #865572",
"t. c #935D74",
"y. c #965A76",
"u. c #814F72",
"i. c #A15B77",
"p. c #8D637B",
"a. c #8C6779",
"s. c #946375",
"d. c #94647B",
"f. c #9B647B",
"g. c #996879",
"h. c #866369",
"j. c #A1647C",
"k. c #A2657B",
"l. c #796984",
"z. c #7F708D",
"x. c #846A86",
"c. c #9C6C84",
"v. c #996984",
"b. c #897289",
"n. c #9B7588",
"m. c #8D7894",
"M. c #987B96",
"N. c #A36B82",
"B. c #A86D85",
"V. c #A37284",
"C. c #A4748A",
"Z. c #AB758C",
"A. c #AC7B8D",
"S. c #A67888",
"D. c #B2768B",
"F. c #AC7C92",
"G. c #A67C95",
"H. c #B37B92",
"J. c #B26A87",
"K. c #98819D",
"L. c #98808D",
"P. c #AA8698",
"I. c #B38394",
"U. c #B4859B",
"Y. c #B48C9C",
"T. c #BB8B9C",
"R. c #BB8599",
"E. c #B58E96",
"W. c #9B87A4",
"Q. c #BB8DA3",
"!. c #B38EA4",
"~. c #BB92A4",
"^. c #BC95AB",
"/. c #B995A7",
"(. c #A690AA",
"). c #BFA3B1",
"_. c #C1899C",
"`. c #C292A6",
"'. c #C29BAD",
"]. c #C897AA",
"[. c #C99DB2",
"{. c #C996AC",
"}. c #C7A4AF",
"|. c #CCA3B5",
" X c #C8A5B6",
".X c #D4A4B9",
"XX c #BAA5C6",
"oX c #C9BAD7",
"OX c #D4BED9",
"+X c #CFB3CA",
"@X c #CCBEE1",
"#X c #E5ABC1",
"$X c #CAC2DC",
"%X c #D5C3DD",
"&X c #DBC3DE",
"*X c #D6C8DD",
"=X c #CDC4E5",
"-X c #CBC6E7",
";X c #D3C4E2",
":X c #DCC5E3",
">X c #D5CAE5",
",X c #DBCBE5",
"<X c #D5CCEC",
"1X c #DCCCEB",
"2X c #D6C6EB",
"3X c #D5D2ED",
"4X c #DCD2ED",
"5X c #D7D2E7",
"6X c #D5CEF1",
"7X c #DBCEF2",
"8X c #D7CFF8",
"9X c #D5D4F3",
"0X c #DCD3F3",
"qX c #DEDAF4",
"wX c #DCD5FA",
"eX c #DDDAFB",
"rX c #D6D9F5",
"tX c #CCCAF1",
"yX c #E3CBE5",
"uX c #E3CDEB",
"iX c #E7C9E7",
"pX c #E3D3ED",
"aX c #EAD3EE",
"sX c #E7D6EC",
"dX c #E3CEF2",
"fX c #E3D4F4",
"gX c #EBD4F2",
"hX c #E4DAF5",
"jX c #EBDBF5",
"kX c #E3D6FA",
"lX c #EAD5FA",
"zX c #E4DBFC",
"xX c #EBDCFC",
"cX c #F2DBF6",
"vX c #F2DCFC",
"bX c #F6D8F6",
"nX c #F3CEEB",
"mX c #E5E2FE",
"MX c #ECE3FE",
"NX c #EDE9FF",
"BX c #E8E2F8",
"VX c #F3E4FE",
"CX c #FBE4FE",
"ZX c #F4EAFF",
"AX c #FCECFF",
"SX c #F3E1F5",
"DX c #FDF3FF",
"FX c #FAF6FF",
/* pixels */
"0X0X0XzXxX2XkXzX0XzX4XgXbXnXiXR 7 0 j 1 3 4X9X9Xl.q g @.R._.s.h.a.s.s.I.G.] G qX0XzXxXvXxXkXkX0XjXOXx V $.V.g.D.j.{.R.R.U.M # 6 ",
"0XzXVXkXzXkXkX6XzX;XjXjXyX{ y 9 N N 2 t s MXzX0XpX. m 7.N._.V.~.T.s.A.U.q.Y F 5X0XzXxXxXkXkXkXwX1XgX*., #.#.d.t.N.j.H.Z.`.U.E + ",
"xXzXxXoXVX7XkXkXVXgX%Xh < y U ( 3.&.8 j Y gXfX1XjXJ 8 U y.N.s.S.R.S.Z.N.6.y 1 1XzXzXxXxXkXzXzXxXZXfX1XQ 4 y #.e.f.Z.B.Z.V.F.T.w.",
"4XDXfXVXlXxXfXfXoXP h @ T } $.-.@.w.8 t M.fXxXvX;XCX8 m ` t.H.N.B.f.Z.8._ j D vXzXzXzXkXzXzXxXxXzXZXDX1X*.4 j < ..w.8.F.I.g.`.S.",
"xXhXzXfXdXlXvX5 l 4 V ! { q.d.w.@.&.8 4 uXfXxXdXdXgXyX8 C 3.t.k.t.R...e.N , uXuX0X0X0XkXkXkXeXeXNX<X2XfXvXdXP P 6 # E } F.S.S.~.",
"zX4XfXVXgX4 q l 2 O.-.P.[.U.w.8.d.} < k VX1XfX1XkXxXCXgX8 _ t.f.g.8.w.y < m.vXVXeXeX0XkXzXzXeXeX-XMXkXkXVXuX;XvXV j t j ,.p.C.C.",
"MXZXhX%XD q 4 < y G.^.Q.`.U.V.N.} M < x.gXfXxXVXVX=X4XVX] <  .t.8.| E @ >.:XfXMXmXzXzXzXzXxXzXzXZX-XMX1X7XxXgXdXAXOXY h 1 K p.#.",
"4XVX;Xk P h @ 8 # / G.U.Q.H.f.^ g < Y jXhXzX7XkXzXZX4X4XaXt ) 7.s.M % ] %XAXFX4XNXxXkX0XkXzXzXzX0XzX0XxXCXlXdXlXhXxXjXuXT K < 8 ",
"VXjX: J 1 1 j O 7 O # Y.Q.p.$.7 . >.oXxXzXkXkXkXmX<XwXzXuXf / %.=.2 J jX,XjX1XVXhX1XgXMXxXxXvX:XCXvXvXjXhX<X3XzX,XuXjXgX1XgXvXuX",
"pXVXd 1 1 V X y r + S 6.p.-.M # l.XXVXMX7X6XxXVX6XeXeXhX1XH V U @ h &XCXjXpXjX:XCXgXpXgXpXvXCXbXiXgXvXjXMXZXMX4XDXVXjX1XfXvX1XlX",
"pX<.: x h y O y O # ^ n.{   j ,.fXjXfX1X0XMXxX7XzXNXxX3XjXK., 4 k (.cXVXOX2 t =.) L l f 4 t g 6 t $ X t <.+XVXBXOXxX1XVXfXfX7XxX",
"CXq h *.=.+ 7 * y 6 M } y j (.&XzXxXjX7X<XkXzXkXqX<XzX0XVXCXq l o.uXpXuXV 8 u.U Z.c.v.e.&.+.) ^ E S M e $ w J ] ZX0XZX7XxXzXzX7X",
"%X>.t K n.I C b # y K , x :XgXxX6XkXzXfX0XhXxXxXzX0X4XVX4XjX3 > kXzX1XVXT M _ y.y.f.N.v.t.3.....^ ^ | ^ S u 2 % D > >X1XxX9X6XMX",
"AXbXj K d.| N b 0 t t l W.DX2XkXmXeX0X0XjXxXzX0X=XVXF G uX1Xl.4XxX0X0XfXM.6 ) 3.i.J.H.F.A.V.N.Z.A.V.8.;.a.n.| & 1 . Y jX0XxXzXMX",
"bXbX@ } p.V.f.t.{ 2 V x.1X0X9XeXeXzXMXxX0X1X0XMX4X:.X P gXuXfX4X-XFX0X1XCX8 M t.j.D.Z.Z.I.I.I.`.S.U.Y.P.P.Y.b.| & J . pXjX1XzXkX",
"aXbX8 / $.d.d...y @ bXcX1XzXNX9XNXeX9XkXvXVXhX4XgXd a k CX1XkXzXmX-XwXDXOXj # 5.0.f.g.g.I.T.E.].[.{.~.Q.!.!.P.n.{ 2 c W VXpXxX0X",
"sXsXq K q.%.&.8 J %XZX4XzXNX=XxXfX7XxXzX9XVXjXyX,Xc j T CXvX1XzX6XmXVXxXCXuXa c 9.t.y.k.H.T.E.~./.^.}.^./.^.^.G.| 6.< j iXjXNXeX",
"SX*XQ y K -.C 8 +XjXMX4XeX9X9XVXMXxX7XMX>XzXjXjXl t t / O.jXjXzXmX6XxXdXvX&X:.X ( 5.t.N.B.A.T.}.|. XP.} e 1 t 6 M / g j gXhXmXeX",
"pXAXb.f L f @ x.DXfXxXhXxX6XMXzX=XFX=XzXFX4X,Xx.@ 6 C C 2 K.jX9XwX7X0X1XvXgX,X:.0  .w.3.R.A.I.}.^.} 6 % e 2 8 8 # C M f &XkXzXeX",
"jXpXjX: a 1 J gXfX<XxXzXhXzXVX9XFXeX0XzX<XhX,Xh m * ) b I P 4XzX7XAXkXjXjXjXZX%XO.0 +.t.N.V.|.Y.q.M O i u @ # y 0 M y 4 M.jXwX9X",
"CX1XZXF s D lX1X7XVXxXfX<XxXxXxX3X<XZXzXzX,XY 2 * U 3.( A t W.;XkXxXfXxXhX4XjXlXiXK I w.t.F.I.Q.# % i t % % y u e C y j Q hXkX0X",
"fXxX1X1XG <X0XzXxXZX7XkXkXMX9XMXZX>X1X0XvXo.@ 2 A w.3.t.A 8 T (.DX;XhX4XzX0XZXfXsXCX< $.c.w.U. .M t e 2 % e e O y R V H Q dXfXeX",
"2XvXxXFXeX-XxXxXzXkX7XlXVXxXfXzXfXDX1XjXvX5 @ M 5.9.5.8.3.M H ,.;XhXVX0XqXzXxX1XVXaX!.R _ F.Z.+ 6 + < i % O 7 n I { V f K.fXfXzX",
"vXdXkXmXeXeXeXxXeX8XxXkXlXfXVX0X1XxXhXdXk f 8 &.6.8.Z.7.8.A M < F 1XhXmXzXZX2XkXZXyXiXN 6.3.U.* 6 t y e % y u # =.#.V . uXxXkX0X",
"lX7XVXeXrX3XmX<X0XzXzX=XMXmXtXeXrXNXpX] 6 * ` 7.t.C.Q.Q.w...b b p W.jXqXeXmX0XxX3X4XCXt R v.A.= 4 j O e r + n r -.#.4 f xXfX2XzX",
"vXxX7XzXFXzXNXMXZX=XzXMX9X9XNXNX3X4XaX@ y  .^ f.C.Q.|.~.p.5.N - , L ,XNX9X0XxXfXmXzXyXO.6 ( C.N 2 2 % % r + r F. .C f h 1XMX<XFX",
"5 lXlX0XhX4XoXjX0XAXMX0XqXMXzX<XZXpXf 8 9 ( t.D.n.`..X'.F.F. .B j a %XZXqX9X0X<X0XxXgXaXM  .F.V.q x O e r A c.d.e.< f vXVXzXeX9X",
"4 x P aX,XDXjXVXVX7X<XFXZXzXMXzXVXK., 9 ^ f.H.0.'.'./.Y.~.`.7.B + 4 K.gX4XxX<XxX0XVXpXCX. T &.F.P.V e | n.|.Q. .y 2 P gX2XzXeXeX",
"K j 1 j 2 &XAXaXuXhXzXMXMX0XfXxXgXh O N ..7.7.#X X X X'.'.U.C.8.y j ] cX4XMX<XNX7XZX1X,XO.j / w.^./.^.Y.~.P.$./ t f uXfXVXmX3XqX",
"n.a.6.y y V @ 8 O.oXAXoXhXMX1XuXf H 6 ) 6.f.k.[.`.~.!.'. XU.V.9.#.y j aXfXzXwXzXlXxXhXZXsX. R e.$.U.^.'./.G.-.< q P jX1X7X2XMXzX",
"~.s.I.w.^ m I R f D 1XMXhX4XCXvXq < g ( A.9.V.T.U 7 + E P.Y.U.9...O @ b.,XfXxXzXAX7XfXhXMXx 0 $.B.5..X.Xd.E @ x W >XxX0XMXzXoXo.",
"L.Y.H.Z.8.d.r.+.! Y jXhXzX4XlXuXl 8 O q.8.s.X.= * 7 = O % = #.d.8.Z t < uXzXeXeXvX<XZX5XhXsXM A ` s.N.8.| e h x.4XzXkX2XxXkX).: ",
"L.).Y.`.|.9.g...5.nXCX1XkXwXxXkXq @ 8 %.%.y < @ 1 8 t < 8 < g e.7.` b p vXfX2XzX1XZX,XVX1XyXm.i ^ ^ ..T @ s [ fXmX6XxX1XjXyXh { ",
"a.^.[.|.U.t.9. .$.nXAXAXVX6X7XfXw 2 y / ' * = u 1 @ @ 2 y < 9 -.t...0 8 gXfXzXzXVX1XVX4XpXjXAXO.r / C 2 <.VXgXMX-XDXoXjXCX! H / ",
"a.~.~.`.A.Z.$.@.p.CX:X1XkXzXxXjX1 2 y _ ^ * + u $ x x . @ t # 6 5.$.< l :XhXqX3XAXz.<.VX,XjX*X(.M.u 1 Q jXVXZX0XeX0XxXgXgX@ -.C.",
"E '.[.I.c.c.}  .K CXvXxX7X0XzXkXw 2 M @.w.A + + i X X $ t % < / s.w.O 1 m.>XhXFX1Xd 3 d pXjXDXhXb.q c jX4XhX3X9XNX-XjXCXL t +.Q.",
"r |.`.n.G.q.C g O.AXVXZXkXxXzX4Xw t A ..f.8.E n i $ w w 2 u } ^...5.8 h z.hX>XMXs h x 4 o.pX$XZXDX:.v AX0XMXeXNX=XMXxXiX< I V.R.",
"^ Y.n.C.C.K q { ,XDX>X1XkXMXzXMXw e S ' 3.H.H.c.Z e % & | !.~.C.0.3.< : l.hXhX*X*.] L L x pXhXNX4XMXMXMXzX9XxXoXMXFXhXk H ( `.`.",
"X.S.G.P.{ T >.*XVXZXMXxXzX9X3XNX[ 2 M ' ..Z.{..X^./. X X~.P.n.A.2.` 6 h oXBXjX*.N T O.O.H W.VX-X<XNX0XZXzXwX7XAX6XkX;X1 ! a.u b ",
";.n.n.;.K %XjXVXhX4XzXfXzXMX4X4XP.2 7  .2.4.B.{.|.~.'.^.~.T.g.5.4.` 0 q AXpXSX. C R %.&.~ q 1XNXmX<XzXwXwX0XxX7XzXzXfXD O.;.% ; ",
"=.M.>.>.aXjXoXCXfXVX<XNXNX-XMXfXpXq V # ..0.B.f.A.{.].R._.D.0.4.4.U 8 a jXVXVXq 8 / ! ! 4 c MXxX9XqXqX0XzXxXkX7XzX2XZXs *.=.; % ",
"< ! b.%XpXDXgXhXZX0XZX$X<XZX0XjXjX: t y ^ t.5.j.A.{.[.R.D.j.4.2.` A 4 D xX>X>Xc 4 f H   P oX<XzXBXzXqXqXzXzXkXzXxX0XhXs ] a.E r ",
"m.M.pXVXMX<XVX;XxX0X<XqXmXhXxXxXpXx.4 y N $.8.f.S._.].R.N.y.4.2.N 6 h >XZX>XhXjXAXO.O.yXsXjXxX<X4XNXmX3X0XMXMXkXzXkXfX4 h q.#XQ.",
"fXxXfXzX3X0X9XxX;XVXW.VX,XfX>X1X>XVX:.@ + U $.f.f.B.D.J.j.0.4.` g j D ZX$XZXZX4X*X,XSXAXyXpXgX0XpXpX4XhXMX0X>XzXzX>XVXD l -.c..X",
"1XMX9XeXNXNX9XMX:Xc 3 3 gXvX:XAXhXhXpXc 2 8 A w.f.f.j.j.y.7.( B q x o.fXMXhXNXBXDXpX%XSXyXO.k D x.+XcXpXpXhX0XfXmX<X1XgXf 8 ) v.",
"zX0XZXeXZX0XMXfXCXX l q j aXCX&XzXzX1XuXH j O +.N.k.j.y.0...A 0 s 1XZX0X9XMXzX3X,XjXx.@ V g g < X M f q x.uXVXgX<XZXhXgXyX5 t ,.",
"fX0X<XNXoXhXjXjX<.@ M O.I g T aXxX1XxXMXOX. V M $.f.f.0.3.U y u l.jX1XxXkXMX<XZXjXq t I _ 6.' u.u.+.C 8 4 w :.pXxX0X;XVXVX:Xq 1 ",
"fXzXMXhXZXMXVXcXt g +.&.+.+.8 t 7XMXfX>XZX] @ 0 N ..7.2.' m t Y BXhXhXkXxX1XZXhXD 3 g $.$.@.A b ' v.c.O.T f w W 4XVXxX1XVX,XjX3 ",
"kXVX7XzXkXxXlXlX6 N 5.s.k.N.` B 2 ,.sXZX4XBX<.d 2 R ) u.m f a gXZX0XqX4XZXaXyXj % C -.d.N 0 # t + I q.u.+.q.C 8 h sXVXhXxXMX2XkX",
"2XMXzXxXxXfX1XuXg M 3.H.R.B...` H 8 o.%X4X5X4XW h X O.~ p , yXjXzXqXqXMX>XSX,.y I ..e.( 7 9 t 2 u   A F.e.r. .C j Q oX4X<X2XkXxX",
"7XxXzX9XxXxXlXCXM I $.f.Z.H.t.6.%.< t M.MXhXjX,Xq h l , f o.fXhXNX0X0XZXDXOXe u $.d.d.N # 8 t 2 i O O p.Q.C.g.$.T o Q *.jX0X7XlX",
"xXzXzX>XMXVX:XuX0 I 5.f.H.T.F.v.p.q.@ x %XjX1XpXm.k X l k uXzXzXzX9XzX,XgXh y q.t.g.g.r r % $ q & Z O n ]..XR.9./ 4 : : VXkXkX7X",
"kX0XxX0XFXjXm.>.t / p.S.s.A * 6 b %.} < Q uXCXcXfXs d F o.fX0X9XmX9XVXVXCXy } #.f.S.F.r u 2 % i & e e + T..X`...C j M.b.4X2XVX7X",
"kX0XzXfXZXpXY 5 + ..g.s.( 7 # y 7 + R 2 f uXCXvX1Xo.d F 7XZXkXzXwXzXkX:X! 0  .d.g.T.^.e % e 2 e % 2 t A .X`.g.6.C 2 gXpX4XxXkXwX",
"kXwX0XfXhXpXh . = 9.X.n * + 0 < * 7 6 { j P OXfXhXxX1X0XxX@X2XMXeXxXdXuXy I $.5.S.~.}.Z & e % = $ M 0 p..Xc.( #.K 2 gXhXzXNX6XwX",
"wXkXzXMXhXhXs w C  .Z * 7 = t t 7 + 9 =.l 5 gXxX9XVXfXxXkXZXxX7XtXxXVXnXy + 5.8.Y.Y.}.E i u O r 6 8 6 [.v.-.%.V t q aXVX3X-XmXrX",
"xXkXVXzXMXpXY 4 e #.# b 0 y t < e O #.q.j 4 W.fXqX0XqXzXxXkX0X7X<XxX*.: h y 6 $.~.!.|..XG./ t 8 y # I x.=.L L 4 k jXpXgXlX:XlXxX",
"kXxXxXVXjXVX:Xx $ -.0 7 # O < t + $.v.%.! P o.1XqXzXqX>X<XxXMXkXMX9X:.D . 1 y y G.n.n.P.^.!.,.M 8 { T y 4 , f J uXpXvXgX:XY z z ",
"kXMXzXMX<X1XVX: 1 ,.6 0 9 6 y 6 3.Z.c._ 2 a l.hXBXhXhXMXxXfX0XkXeX<XAXhXjXaX4 @ 1 j V y t l l t a o J D >.uXuX,XvXaXgXQ < @ K g ",
"7XkXzXzXMXxX1X>.V ! M m 0 # / G.J.0.0.&.2 x uXVX$XgXjXuXuXlXlX1XNXzX>XfXfXjXCXVXL D h a 4 q D Q hXxX;X1XjXjXVXjXaXO.8 2 N +. .r.",
"kXzX0XzXNXFXkXfXl l %.q.e.v.v.p.J.0.@.' < <.,X1XVXx.k x h < >.gX$XZXhX4XxX;XMX<XVX1X;XfXlXpXuXlX0X0XZXfX$XpXpXpXK V y _ ) f.3.y.",
"fXxX6XNX6XwXxXfXgXQ l I %. . .-.i.0...b 2 bXAXuX. q j y 9 8 t 2 l.sXpX>XFX0XmXzX7XfXxXMXxXkXhXxXzXzX=XxXfXjXjXW y R ^ 9.d.s.f._.",
"<XzX0XNXeX0XNX6XvX:XM.8 6 9 R 7 1.4.5.t V uX+XD 4 ~ %.r.t.v.v.p.h P ,XAX=XZX@XmXxXzXwX0XeXxXzX9XwXMXzX<XAXOXQ 4 ( e.c.g.V.I.R.R.",
"xXzXzX-XmXeX6XwXhXvXiXbXnXb # y b 3.| e P.yXcX3 { u.v.v.f.v.c.c.T h c 1XzXxXwXeXwXwXeXzXwX6X0XzXzX8X7XxXuXx.f %.g.w.c.I.I..XT.I."
};
