/* XPM */
static char *_7918fae4ad74584afe21ba664401340wltcVTZOEw3BPDDV[] = {
/* columns rows colors chars-per-pixel */
"64 64 225 2 ",
"   c #05063C",
".  c #0C014D",
"X  c #150659",
"o  c #171A51",
"O  c #1C1952",
"+  c #12134B",
"@  c #1E394E",
"#  c #26334C",
"$  c #272959",
"%  c #253951",
"&  c #21096B",
"*  c #2E2169",
"=  c #32276C",
"-  c #353369",
";  c #3D3373",
":  c #3C357D",
">  c #423679",
",  c #384966",
"<  c #3C4E6C",
"1  c #444879",
"2  c #49507C",
"3  c #515A79",
"4  c #4D5772",
"5  c #566579",
"6  c #697676",
"7  c #3E3681",
"8  c #433E81",
"9  c #534C8C",
"0  c #594D8F",
"q  c #585688",
"w  c #5B5591",
"e  c #5B5399",
"r  c #594D97",
"t  c #615992",
"y  c #5D6589",
"u  c #666B91",
"i  c #716A9E",
"p  c #657295",
"a  c #645AA1",
"s  c #807EB0",
"d  c #74858C",
"f  c #78858B",
"g  c #738199",
"h  c #7B859D",
"j  c #7E8B9E",
"k  c #7B93AC",
"l  c #7E90A6",
"z  c #7787A0",
"x  c #80889D",
"c  c #8A969F",
"v  c #9DA29B",
"b  c #A2A59E",
"n  c #828DA3",
"m  c #8592A9",
"M  c #8892A8",
"N  c #8683B7",
"B  c #8E9AB4",
"V  c #8F95B6",
"C  c #9297BF",
"Z  c #BD8FAC",
"A  c #98A0AD",
"S  c #9DABA7",
"D  c #94A2BB",
"F  c #99A8BD",
"G  c #A6ABA4",
"H  c #A7AAA4",
"J  c #ADB1AC",
"K  c #AFB2A1",
"L  c #B1B4AD",
"P  c #B5BAAB",
"I  c #A5A9BA",
"U  c #A9B5B5",
"Y  c #B5B7B2",
"T  c #B9BEB6",
"R  c #C59AB9",
"E  c #BBC3BC",
"W  c #BBC2B7",
"Q  c #C2C4BC",
"!  c #C7CAB6",
"~  c #C3C3AB",
"^  c #9CAAC1",
"/  c #BBACC4",
"(  c #B8ABC2",
")  c #A9B5C4",
"_  c #A9B5C6",
"`  c #BBB1C5",
"'  c #B5B6C4",
"]  c #B5BAD3",
"[  c #B6B9EA",
"{  c #C2ADC5",
"}  c #C5AECA",
"|  c #C9ACCC",
" . c #CFA4C5",
".. c #D0A7C8",
"X. c #C3B1C6",
"o. c #C5B3CB",
"O. c #CBB4CD",
"+. c #C6BBCE",
"@. c #CCBACD",
"#. c #C6BEC7",
"$. c #D7B6CB",
"%. c #CAAFD1",
"&. c #CDB4D4",
"*. c #C6BDD4",
"=. c #CBBDD3",
"-. c #C5BCD8",
";. c #D2B3D5",
":. c #D3BCD4",
">. c #D4BDDA",
",. c #D9BDDC",
"<. c #DAB3D6",
"1. c #D3AFD3",
"2. c #DABCE0",
"3. c #BDC4C4",
"4. c #BECAC4",
"5. c #B6C5CA",
"6. c #BECDCB",
"7. c #B7C6CA",
"8. c #BCD0CF",
"9. c #BDCAD2",
"0. c #BCCADB",
"q. c #B7C3D7",
"w. c #BDD5D6",
"e. c #BCCBE1",
"r. c #BDD7E8",
"t. c #BCE1E9",
"y. c #C1C6C1",
"u. c #C4CAC3",
"i. c #CACDC4",
"p. c #C2C3CA",
"a. c #CCC1CD",
"s. c #C3CBCC",
"d. c #CACECC",
"f. c #CBC0C6",
"g. c #D2C2CE",
"h. c #C3D2CC",
"j. c #CBD2CB",
"k. c #C8D5C7",
"l. c #D4D6C6",
"z. c #D4D9C7",
"x. c #C6C4D3",
"c. c #CAC4D5",
"v. c #C6C9D3",
"b. c #CACAD5",
"n. c #CCC3DA",
"m. c #C4CCDE",
"M. c #CBCBDA",
"N. c #D3C2D5",
"B. c #D2CBD1",
"V. c #D3C3DB",
"C. c #DBC4DC",
"Z. c #DCCADD",
"A. c #C5D3D5",
"S. c #CBD4D4",
"D. c #CDDBD4",
"F. c #C4D3DA",
"G. c #CBD4DC",
"H. c #C3DADC",
"J. c #CCDCDC",
"K. c #C5D9D3",
"L. c #D3DCD4",
"P. c #DCDBD3",
"I. c #D1D2DC",
"U. c #D4DBDC",
"Y. c #D7D8D6",
"T. c #E1CBDE",
"R. c #E3DFD6",
"E. c #CDE0D4",
"W. c #CDE1DD",
"Q. c #D2E3DC",
"!. c #DAE3D9",
"~. c #E5E3DA",
"^. c #C7CAEB",
"/. c #D6CCE5",
"(. c #DBCBE5",
"). c #DAC8E4",
"_. c #C5D3E4",
"`. c #CAD5E2",
"'. c #C5DBE2",
"]. c #CCDBE3",
"[. c #C4DBEB",
"{. c #CBDCEB",
"}. c #C7D6EB",
"|. c #D3D4E2",
" X c #D9D3E3",
".X c #D3DCE4",
"XX c #D9DCE5",
"oX c #DDD3EB",
"OX c #D3DDEA",
"+X c #DADCEC",
"@X c #CCDCF3",
"#X c #C8DDF5",
"$X c #DBDAFF",
"%X c #D8DCF5",
"&X c #CFCCF9",
"*X c #E3CBE5",
"=X c #E5CEE8",
"-X c #E3D3ED",
";X c #E6D5E9",
":X c #E8DDF4",
">X c #CDE1E2",
",X c #CCE3EB",
"<X c #C6E0E1",
"1X c #D4E3E5",
"2X c #D9E4E4",
"3X c #D4E3EA",
"4X c #DAE4EB",
"5X c #D4EAED",
"6X c #DBEAED",
"7X c #D9EAE4",
"8X c #CCE5F4",
"9X c #CBE5F9",
"0X c #CCE6F7",
"qX c #D4E4F2",
"wX c #DAE5F0",
"eX c #D4EBF4",
"rX c #DCEAF4",
"tX c #D4EBFD",
"yX c #DDEBFC",
"uX c #D4E4FB",
"iX c #D8F0FA",
"pX c #E2E6EF",
"aX c #E3EBFE",
"sX c #E6E9F8",
"dX c #E8F5F9",
/* pixels */
"& & . o p 9X[.,X4X|.x.*.*.*.x.v.2X`.3X,Xr.tX9X@ + ; ; w > = r 7 7 r * 8 0 > - + @ 9XtXr.,X,X].4Xx.x.x.*.*.c.|.4X,X[.@Xp O . & & ",
"X X 9 [ #Xr.tXeXI.b.*.-.-.c.b.M.v.b.3XeX,X0Xr., $ - - q ; = a : : a = ; 0 = - $ , r.9X,XeX,Xb.s.M.b.c.=.*.*.x.I.tXeXr.$X[ 9 X X ",
"X >   , uX{.5XF.=.a.c./. X XXX+Xd.U.J.wXr.8X#Xk 3 q q i w : w : : e ; t i 3 q 3 k 9X8X[.eXJ.I.d.+XXX X/./.=.x.a.w.5X{.uX,   8 X ",
"O [ 1 # ,XrX`.G.o.@.>.(.-X-XoX4XY.XXs.3X'.0XtX#XqXyX^.$X$Xi w 1 1 w k &X$X^.aXrX#XtX8X'.2Xs.XXP.4XoX%X-X(.>.@.o.H.'.rX,X# 1 [ o ",
"p aX@X{.yX3XG.|.X.{ &.>.).n.x.x.f.B.3.2X3XeX,X0X].qX{.aXaX^.C 1 1 C ^.aXaX{.OX{.8X,XqX,XXX3.B.f.c.c.n.).>.&.X.X..XF.1XsX].@XyXp ",
"}.{.[.dX]..XI. XO.} } %.%.o.` ( @.a.p.G.3X3XH.'.eXH.,XqX^.yXe.% # e.yXF.%X.XF.eX,XJ.5X3XG.p.a.@.( / o.&.&.} } @.|.G..X].dX[.#X[.",
"eXeX'.,X.XXXpX:X=.o.| %.;.&.o.` T.N.b.v.1X1XW.W.w.7.w.J.7.rX3Xd d {.rX9.H.w.7.w.>XW.1X1Xv.b.N.C.` o.&.;.} | } &.pX:X+X.X].J.eX0X",
"8XeX<Xw.1Xv.:XV.@.} / %.,.).,.V.Z.:. Xb.7X1XQ.D.w.eX>X1XpXH.7.W.W.7.H.sX>X<X5XW.K.W.W.7Xb.Z.V.*XN.C.).<.%./ } *.V.pXc.XXH.].eX8X",
"|.I.+.` X.O.o.V.x.] n./.n.&.V.=Xn.c.M..X1XL.E.E.3X>X>X1XU.1XU.J.J.U.1XU.1X1X].5XE.E.!.1XU.b.c.M.;XV.o.n./.-.] -.=.:.@.{ o.x.M.4X",
"|.b.x.@.X.} o.} -./.oXoX*.} :.C.x.M.|.4X4X2XJ.Q.J.J.H.J.A.rXA.A.F.A.rXv.J.H.W.J.W.E.Q.4X4X|.c.x.g.@.X.+.oXoX).-./ O.} / o.a.b.|.",
"M.*.n.C.&.} o./ ^.oX:X-X>.:.:.O.b.G.+XpX6X2X3X4XW.W.8.A.A.rX) ) ) ) rXF.8.8.W.J.4X2X4XpXpX+XM.b.$.N.:.:.-X:XoX/.( } } %.>.=.*.c.",
"n.` ).-X&.&.>.%././.=X-X*X*XC.;.|..X4X4X4X4X4X6XE.h.7.5.`.0.n m M n 0.'.5.4.K.E.6X4X3X4X4X4XOX.X@.Z.*X=X-X-X(.(.1.;.;.>.(./.*.c.",
"n.o./.:XV.&.2.2.N.O.N.=X*XV.V.V.1X1X3X3X4X4X|.].K.4.A.5._.j h C D h h H.5.A.4.S.].|.4X4X2X3X1X1XN.V.C.*X*XV.*.n.2.>.;.V.-X/.n.*.",
"n.c. X:XV.o.>.2.o.X.N.*XV.+.M.3X>X1X1X4X2X2XJ.s.h.A.3XF.F.5 D #X@XB 5 _.F.4XA.h.s.D.1X4X4X1X,X>XOXM.+.V.*X,.X.o.>.&.o.n.oXoXx.x.",
"M.M.OX+XM.` X.C.N.$.N.T.V.M.}.0X>X,X1X1XU.L.j.u.G.1X4X3XF.4 q.yXyXq.4 _.3X4XOXG.u.j.U.L.Q.1X3X>XqX{.c.V.).C.&.n.>.o./ p.oXXXc.x.",
"v.M.|.+XM.` { Z.T.N.:.:.n.3XeXt.,X5X>XK.u.k.z.z..XwX`.yX_.y e._.}.e.5 [.rX_.wX.Xz.z.k.h.A.>X5X,X[.eXqXV.:.:.:.*XV.o.( x.4XOXM.b.",
"|.s.d.Y.B.g.T.*XM.c.b.G.U.1X5X,XW.W.E.E G Q ~.~.XXdXI.XXyXh V @X%XM h aXOXG.dXQ.R.~.W G E Q.Q.W.,X5X1X].G.M.M.M.=X).N.B.Y.b.v.|.",
"4XG.G.Y.B.@.N.N.x.c.G..X1X1X1X1XE.E.D.W v G i.R.D.D.Q.G.pXq.l B V n q.rXI.U.L.Y.P.j.H v W D.E.W.,X>X1X1X|.G.x.x.V.N.@.B.Y.I.G.3X",
"3X`.J.A.p.p.c.N.b.I.XX4X4X7X1X>XQ.Q.!.D.L b Y Q l.! j.3.G.yXF g p ^ yXG.6.j.! z.Q Y b L D.7XQ.Q.>X1X3X6X4X+XI.b.n.N.p.p.b.J.].3X",
"eXqX5X1XA.G.I.s.U.XX4X6X6X3XJ.D.E E K.!.i.J H L ! l.T 4.7.rX}.m m {.rX7.Q T l.! L H L i.L.k.W W D.J.4X6XpX4X+XXXx.G.G.F.,XqXwXtX",
"r.[.8XqX3X3X3XU.7X2X1X2X2X1XD.h.H b H u.P.d.y.f.~ ! ~ j.6.rX`.D F [.wX6.S.Q ! ! f.Q j.!.f.H b H h.D.1X4X4X+X2X2XJ.4X3X,XqX0X[.r.",
"tX0X0X0X{.>X5X7X!.7X1X4X4X2X!.z.Q L b J L.!.U.!.l.P i.E s.pX^ _ _ I rXs.T u.P ! ~.U.~.Y.L b L Q D.L.2X4X4X1X7X7X6X5X3X{.0X0X0XtX",
",Xr.#XtX8X'.W.D.E.Q.2X4X1XU.L.z.P.i.J H Q L.j.d.!.P y.L G.|.A `.`.A ].S.L y.P !.s.d.L.Q b L i.P.z.L.U.1X4X4X7XE.J.J.].0XtX#Xr.9X",
"@ < k r.eX5XW.K.k.E.4X1XG.u.k.! P.~.i.Y i.U.d.u.u.i.3.E sX7.I pX:XI s.sXT 4.i.Q 4.d.U.i.Y i.~.P.! u.s.G.OX2XE.K.K.W.0X9Xr.k < @ ",
"o $ y r.].H.'.w.5XJ.W.W.D.h.A..XXXL.P.~ ! l.~.Q 4.S U eXm.' |.I.I. X' G.wXU G 4.Q ~.z.! ! z.S.2X.XA.h.D.W.J.>X>Xw.<XH.{.}.y $ + ",
"- - u yXyXH.w.H.>XW.K.6.6.S..XrXdXY.k.! ! K P i.G 6 d ].`.I ` o.o./ I |.`.f 6 S Q Y K ! ! k.L.dXwX.XK.6.6.K.J.W.<Xw.H.rXaXu - - ",
"> - 2 ^.}..XH.>X1XJ.K.8.A.].OX].A..Xj.Q T ! E Y U f c 4X%X/ } O.O.o./ %X4XM f U Y E i.T ! j.1Xm.].OX].A.6.K.J.1X,XF.].{.^.q - ; ",
"w 0 i aX%XOXA.6X6XH.5.5.9.].wXrX6X4X3.u.4.4.J 4.rX`.wXaX).} | R R | | (.sX+X`.rX3.J Q 4.k.3.2X4XrXwX].6.5.7.G.6X6XA.{.%XaXi 0 w ",
"> > w $XyX`.9.3XD.F.].OX`.0.e.,X+XaXG.G.s.G.v.pXJ.`.+XoX&.;...R R ..;.;.=X%X/.G.pXA.G.s.A.G.aXOX{.m.0.`.OX`.G.J.3X9.^.aX$Xt > ; ",
"* * ; N ^.aXrXF.1X4X3Xq.n 5 4 5 x q.qXqX].4X.Xb.' I ( %.1.<. .R R  .<.;.&.( I ' b.I.6X.X3XqXq.j 5 4 5 n q.3X5XQ.A.rXaXe.s > = * ",
"t a 9 9 C e.{.8.S.F.) n g B ] e.M h ^ }.}.I A I  X/ { | .. .Z R R R  ... .{ /  XI A F {.}.^ z V e.] B g n ) F.G.8.3Xq.C 9 9 a e ",
"7 7 7 9 1 # d 8.U.G.) m ^ @XiX}.%XB z l ^ _ {.+XI.o.O.R Z  .R $. .R R R R O.O.I.%X.X) ^ m z B %Xr.yXuX^ m ) J.U.8.d # 1 9 8 : 7 ",
": : : 9 2 % d 8.U.G.) M ^ @XyX[.%XB h l ^ _ |.OXI.+.&.R R R R $.$.R R R R $.O. X+X`._ ^ m z V %X}.iX#X^ M ) G.U.w.d % 9 < 7 : 7 ",
"e a 9 w C q.3X8.S.G.) n g B ] 0.m h ^ {.{.F A I  X` { | ..R R R R R  ..... ./  XI A I }.[.^ h M e.] V z n ) G.S.6.,X] C r 9 a e ",
"* = ; s ^.aXrXH.1X3X3Xq.m 5 4 3 n q.qXqX{.6X.Xb.' I ( | 1.<...R R  .$...%.( I ' b.].wX].qXqXq.n 5 4 5 n q.3X3X1XK.rXaX^.N ; = * ",
"; : t $XaX_.7.4XJ.G.].{.`.0._.{.OXaXG.A.s.I.A.pX`.G.%X*X;.1.%.Z R R <.<.(.oX`.G.pXS.G.s.A.G.sXOX{.m.0.{.>X].G.G.3X9.`.aX$Xt ; : ",
"r 0 i :X%XOXF.6X6XG.7.5.9.].wXrXwX1X3.u.Q u.U 3.rXH.+XsX).%.| R R | | (.sX4X`.rX4.J 4.Q u.3.XX4XrX3X].9.5.5.J.6X6XF.OX%XaXi 0 w ",
"> - q ^.{.].F.>X>XJ.K.6.A.J.OX].b.1Xj.Q W ! W P U d M %XoX( o.O.&.X./ %X:XM f U Y E i.W Q j..XS.].3X].A.6.K.J.>X>XF.].}.^.q - ; ",
"- - u yXtXH.w.<X>XW.K.6.6.K..XrXdXD.i.! ! K W Q S 6 f U.`.I ` +.o.X.I M.].f 6 G ! W K ! ! k.S.dXwX1XA.6.h.K.J.W.'.w.H.yXaXu - - ",
"+ $ y _.].H.<Xw.,XW.E.W.D.h.S..X2XD.P.! ! z.~.E 4.S U rXH.' |.Z.I.|.' G.rXU S 4.i.~.! ! ~ !.L.XX.Xb.h.D.W.D.W.,Xw.W.H.].`.q $ o ",
"% < k r.0X5XW.K.k.E.7X3XS.s.u.k.P.R.f.P i.Y.j.3.Q k.E 3.sX3.I wX:XI p.sX' E k.i.4.d.U.i.Y i.~.P.k.u.s.G.3X7XW.k.K.>XqXtXr.k < @ ",
"9Xr.8XtX8X'.J.E.E.Q.7X4X1XU.L.z.P.l.J H y.Y.j.s.~.P y.J G..XA `.`.A |.J.L y.P !.u.d.L.Q b J l.P.z.z.I.OX4X5X!.!.W.<X].0XtX#Xr.9X",
"tX0X0X0X,X1X5X7X!.7X1X4X2X2XL.z.Q L b L z.pXU.!.z.P ! E s.wXI _ _ I 6Xs.T i.P l.2XP.2XY.Y b Y E D.L.2X4X4X3X7X2X7X5X3X{.0X9X9XtX",
"r.r.8X5X,X3X3XJ.2X1XXX2X4X2XD.k.H b H u.L.j.Q f.~ ! Q d.s.wX[.D F _.qXs.j.~ ! ~ i.Q j.Y.u.G v G k.L.2X4X3XXX2X2XJ.3X3X,XeX8Xr.r.",
"eXeX3X1XA.G.M.v.U.XX4XpX6X7XW.E.E E j.L.i.J b J ! l.T y.7.rX,Xm m [.rX5.4.T l.! J H J i.Y.k.W W A.J.3XrXwX4X+XXXv.G.G.G.{.qXwXtX",
"3X`.J.b.p.p.B.c.b.I.XX4X6X7X>XW.Q.Q.!.D.L G Y Q l.i.k.y.G.yXF p g ^ yXG.3.d.i.l.Q Y b L L.!.Q.Q.>X1X2X6X6X+XI.M.n.c.+.p.A.`.].3X",
"3XG.I.Y.B.a.N.N.x.b.M.].1X1X1X,XW.D.D.W v H l.R.L.S.U.G.rXq.l V B n q.yXG..XS.D.R.i.J v E D.D.W.1X,X3X1X].M.c.c.N.N.:.B.Y.G.G.3X",
".Xs.d.Y.B.g.Z.*XM.b.b.G.U.,X1X5XW.Q.U.4.H Q R.R..XdXJ..XaXh V %X@XV h pXXXJ.dX!.R.R.Q H E Q.>XQ.,X3X3X].G.M.M.M.=XC.g.B.I.d.v..X",
"a.M.3X+Xx.' o.C.T.:.$.:.N.OXeXt.,X5XW.A.k.k.z.z.].wX`.rX_.5 e.r.r.0.5 _.rX`.wX.Xz.z.k.u.K.W.5X,Xt.eX+X/.:.;.:.(.N.O.( x.4X+Xb.v.",
"x.x.XXoX*./ o.>.:.:.C.T.c.M.].0X,X1X1XW.J.L.j.u.G.3XwX4XF.5 q.yXyXq.5 _.3XwX1XG.s.j.L.U.Q.1X,X,X5X].M.=.).C.=.V.>.X.( x.+X Xb.x.",
"x.c. XoX=./ &.,.#.X.g.=XV.*.M.OX,X>X1X3X4X2XS.s.h.v.3XF._.4 D @X@XC 5 m.m.4Xh.h.6.S.2X2X3X2X1X].+XM.o.).=XV.o.o.,.&.} -.-XOXc.c.",
"-.-. X-X).>.>.2.=.O.V.=X(.V.V./.XX1X4X4X4X4X.XU.K.4.A.5.`.j h D D h j '.5.A.6.K.J.XX4X4X4X3X1XOXV.V.V.(.=X>.-.-.,.>.&.).-X(.*.*.",
"*.*.V.*XV.&.;.&././.-X-X*X*XC.&.|.OX3X4X4X3X4X4XE.K.6.5.'.0.n m m n 0.`.5.7.K.E.wX3X4X4X4X+XXX.X@.C.*X*X;X-X)./.&.;.&.>.)./.*.*.",
"c.*.n.n.&.| | / /.oX:X-X>.:.,.O.M.G.XXpX6X4X3X7XJ.J.8.9.F.rX) ) ) ) rXw.A.6.W.D.4X2X4XwXwXXXG.M.@.:.@.N.-X:XoX/.( } } O.>.n.*.c.",
"|.b.+.o.{ } o./ ] ^.oXoX=.} :.,.c.M.I.+X4X7XW.Q.W.W.H.J.v.rXA.F.G.A.rXv.J.H.W.W.Q.W.2X2X4X|.M.x.g.:.X.o.-XoX/.-./ } } { o.a.M.|.",
"+XM.a.o.X.@.N.=.x.o.n.(.n.@.N.=XM.c.b.U.2XU.E.E.3XW.>X2XJ.2XU.G.G.J.2XJ.1X>X>X1XD.E.Q.2XU.M.c.M.=XB.@.n. Xn.] &.=.>.@.X.o.+.M.4X",
"8XeX[.H..Xc.pXn.-.} { %.2.).>.:.T.:. Xb.2X2XW.E.w.5X].1XrXK.7.>XW.7.K.sX1XJ.5Xw.K.W.Q.7Xb.|.N.T.V.2.).2.;.{ o.=.V.:Xv.XXF.].qX8X",
"8XeXH.].].XX:X:X=.o.{ | ;.&.o.} T.B.c.v.1X>XW.W.w.5.w.G.v.rX5Xg d 3XwX9.H.w.5.H.>XW.1X1Xv.b.N.T.o.o.;.>.&.{ o.:.;XpXXX.X.XH.eX8X",
"[.[.[.dX].U.I. XO.o.| &.&.o./ ` g.a.p.G.3X3XH.].iXH.OXqXm.yXe.# # e.yX^.4X,Xr.eX].'.5X3XG.p.g.@.' / ` ;.%.} } :.|.I..X].aX[.,Xr.",
"u aX@X'.sX3XM..XX.o.&.:.>.n.x.b.f.B.' XX3XeX8X8X'.qX{.aXaX^.C < < C ^.aXaX{.3X>X8X,XwX,X2X' B.f.c.c./.).2.} X.@.].F.3XsX[.8XyXp ",
"O [ 1 # OXiX].G.o.&.V.*X-XoX%X+XY.Y.s.3Xr.8XtX8XqXaX^.$X&Xs w 1 1 w N &X$X^.aXqX#X0X0X'.3X6.;XY.+XoX:X:X=X=.O.@.H.'.iX{.# 2 [ o ",
"X 9   , uX}.3XH.a.*.=./.oX X XXXb.U.J.rXr.8X9Xk q 5 2 i t ; r : : w > t i 2 q q k 9X9X[.wXD.U.d..X|. XoX(.*.+.x.w.5X{.uX,   1 X ",
"X X 9 [ 9Xr.iXiXG.x.*.*.-.x.b.M.s.G.,XiX<X9Xr., $ - - 0 ; = a : : a = - q - - $ , t.9X[.eX3Xb.s.M.v.x.n.*.*.x.G.iXiX_.$X[ 0 X X ",
"& & . o p 8X[.,X4X|.x.*.*.*.v.b.2X].1X,Xr.tXtX@ + ; > 0 > * r 7 7 r = > 0 ; ; + @ 9XtXr.,X3X].4Xb.x.*.*.-.x.|.4X,X[.8Xi O . & & "
};
